ISO-10303-21;
HEADER;
FILE_DESCRIPTION (( 'STEP AP214' ),
    '1' );
FILE_NAME ('CUI_DEVICES_CX-0905C.step',
    '2019-10-20T21:25:41',
    ( '' ),
    ( '' ),
    'SwSTEP 2.0',
    'SolidWorks 2019',
    '' );
FILE_SCHEMA (( 'AUTOMOTIVE_DESIGN' ));
ENDSEC;

DATA;
#1 = CARTESIAN_POINT ( 'NONE',  ( 0.0000000000000000000, 0.1968503937007874127, 0.0000000000000000000 ) ) ;
#2 = UNCERTAINTY_MEASURE_WITH_UNIT (LENGTH_MEASURE( 1.000000000000000082E-05 ), #96, 'distance_accuracy_value', 'NONE');
#3 = MECHANICAL_DESIGN_GEOMETRIC_PRESENTATION_REPRESENTATION (  '', ( #12 ), #345 ) ;
#4 = AXIS2_PLACEMENT_3D ( 'NONE', #570, #273, #425 ) ;
#5 =( NAMED_UNIT ( * ) SI_UNIT ( $, .STERADIAN. ) SOLID_ANGLE_UNIT ( ) );
#6 = FACE_OUTER_BOUND ( 'NONE', #542, .T. ) ;
#7 = CARTESIAN_POINT ( 'NONE',  ( -0.09842519685039366473, -0.1377952755905511584, -0.01181102362204729077 ) ) ;
#8 = EDGE_CURVE ( 'NONE', #391, #440, #400, .T. ) ;
#9 = SURFACE_SIDE_STYLE ('',( #390 ) ) ;
#10 = ORIENTED_EDGE ( 'NONE', *, *, #116, .F. ) ;
#11 = CARTESIAN_POINT ( 'NONE',  ( 0.0000000000000000000, 0.1968503937007874127, 0.0000000000000000000 ) ) ;
#12 = STYLED_ITEM ( 'NONE', ( #393 ), #66 ) ;
#13 =( GEOMETRIC_REPRESENTATION_CONTEXT ( 3 ) GLOBAL_UNCERTAINTY_ASSIGNED_CONTEXT ( ( #606 ) ) GLOBAL_UNIT_ASSIGNED_CONTEXT ( ( #240, #431, #5 ) ) REPRESENTATION_CONTEXT ( 'NONE', 'WORKASPACE' ) );
#14 = COLOUR_RGB ( '',0.2509803921568627416, 0.2509803921568627416, 0.2509803921568627416 ) ;
#15 = SURFACE_STYLE_USAGE ( .BOTH. , #9 ) ;
#16 = DIRECTION ( 'NONE',  ( 0.0000000000000000000, 0.0000000000000000000, 1.000000000000000000 ) ) ;
#17 = ORIENTED_EDGE ( 'NONE', *, *, #100, .F. ) ;
#18 = PLANE ( 'NONE',  #4 ) ;
#19 = DIMENSIONAL_EXPONENTS ( 1.000000000000000000, 0.0000000000000000000, 0.0000000000000000000, 0.0000000000000000000, 0.0000000000000000000, 0.0000000000000000000, 0.0000000000000000000 ) ;
#20 = CARTESIAN_POINT ( 'NONE',  ( -0.09842519685039366473, -0.1377952755905511584, 0.01181102362204724393 ) ) ;
#21 =( LENGTH_UNIT ( ) NAMED_UNIT ( * ) SI_UNIT ( $, .METRE. ) );
#22 = DIRECTION ( 'NONE',  ( 0.0000000000000000000, 0.0000000000000000000, 1.000000000000000000 ) ) ;
#23 =( LENGTH_UNIT ( ) NAMED_UNIT ( * ) SI_UNIT ( $, .METRE. ) );
#24 = AXIS2_PLACEMENT_3D ( 'NONE', #125, #316, #22 ) ;
#25 = VERTEX_POINT ( 'NONE', #212 ) ;
#26 = MECHANICAL_DESIGN_GEOMETRIC_PRESENTATION_REPRESENTATION (  '', ( #286 ), #102 ) ;
#27 =( NAMED_UNIT ( * ) PLANE_ANGLE_UNIT ( ) SI_UNIT ( $, .RADIAN. ) );
#28 = ORIENTED_EDGE ( 'NONE', *, *, #579, .F. ) ;
#29 = DIRECTION ( 'NONE',  ( 0.0000000000000000000, 1.000000000000000000, 0.0000000000000000000 ) ) ;
#30 = FILL_AREA_STYLE ('',( #260 ) ) ;
#31 = ADVANCED_FACE ( 'NONE', ( #416 ), #450, .F. ) ;
#32 = ORIENTED_EDGE ( 'NONE', *, *, #163, .T. ) ;
#33 = LENGTH_MEASURE_WITH_UNIT ( LENGTH_MEASURE( 0.02539999999999999897 ), #65 );
#34 = DIRECTION ( 'NONE',  ( -0.0000000000000000000, -1.000000000000000000, -0.0000000000000000000 ) ) ;
#35 = ORIENTED_EDGE ( 'NONE', *, *, #8, .T. ) ;
#36 = VECTOR ( 'NONE', #29, 39.37007874015748143 ) ;
#37 = AXIS2_PLACEMENT_3D ( 'NONE', #587, #99, #246 ) ;
#38 = CARTESIAN_POINT ( 'NONE',  ( -0.09842519685039366473, 0.0000000000000000000, -0.01181102362204727169 ) ) ;
#39 =( CONVERSION_BASED_UNIT ( 'INCH', #90 ) LENGTH_UNIT ( ) NAMED_UNIT ( #242 ) );
#40 = SURFACE_STYLE_FILL_AREA ( #319 ) ;
#41 = DIRECTION ( 'NONE',  ( 0.0000000000000000000, -1.000000000000000000, 0.0000000000000000000 ) ) ;
#42 = STYLED_ITEM ( 'NONE', ( #199 ), #232 ) ;
#43 = DIRECTION ( 'NONE',  ( -0.0000000000000000000, -1.000000000000000000, -0.0000000000000000000 ) ) ;
#44 =( LENGTH_UNIT ( ) NAMED_UNIT ( * ) SI_UNIT ( $, .METRE. ) );
#45 = DIRECTION ( 'NONE',  ( 0.0000000000000000000, 0.0000000000000000000, -1.000000000000000000 ) ) ;
#46 = ADVANCED_FACE ( 'NONE', ( #85 ), #317, .F. ) ;
#47 = ORIENTED_EDGE ( 'NONE', *, *, #359, .F. ) ;
#48 = STYLED_ITEM ( 'NONE', ( #92 ), #46 ) ;
#49 = COLOUR_RGB ( '',1.000000000000000000, 1.000000000000000000, 1.000000000000000000 ) ;
#50 =( GEOMETRIC_REPRESENTATION_CONTEXT ( 3 ) GLOBAL_UNCERTAINTY_ASSIGNED_CONTEXT ( ( #519 ) ) GLOBAL_UNIT_ASSIGNED_CONTEXT ( ( #353, #264, #572 ) ) REPRESENTATION_CONTEXT ( 'NONE', 'WORKASPACE' ) );
#51 = FILL_AREA_STYLE_COLOUR ( '', #81 ) ;
#52 = EDGE_CURVE ( 'NONE', #61, #396, #72, .T. ) ;
#53 = FILL_AREA_STYLE ('',( #51 ) ) ;
#54 = DIRECTION ( 'NONE',  ( 0.0000000000000000000, 0.0000000000000000000, 1.000000000000000000 ) ) ;
#55 = DIRECTION ( 'NONE',  ( 0.0000000000000000000, 0.0000000000000000000, 1.000000000000000000 ) ) ;
#56 = ORIENTED_EDGE ( 'NONE', *, *, #258, .T. ) ;
#57 = CARTESIAN_POINT ( 'NONE',  ( 0.09842519685039373412, 0.0000000000000000000, -0.01181102362204724740 ) ) ;
#58 = VECTOR ( 'NONE', #211, 39.37007874015748143 ) ;
#59 = AXIS2_PLACEMENT_3D ( 'NONE', #1, #343, #573 ) ;
#60 = CARTESIAN_POINT ( 'NONE',  ( 2.941080895590100076E-18, 0.1673228346456692994, -0.02401574803149606266 ) ) ;
#61 = VERTEX_POINT ( 'NONE', #197 ) ;
#62 = CARTESIAN_POINT ( 'NONE',  ( 0.09842519685039373412, 0.0000000000000000000, 0.0000000000000000000 ) ) ;
#63 = CYLINDRICAL_SURFACE ( 'NONE', #567, 0.02401574803149606266 ) ;
#64 = FILL_AREA_STYLE ('',( #177 ) ) ;
#65 =( LENGTH_UNIT ( ) NAMED_UNIT ( * ) SI_UNIT ( $, .METRE. ) );
#66 = MANIFOLD_SOLID_BREP ( 'Cut-Extrude3', #605 ) ;
#67 = DIRECTION ( 'NONE',  ( -0.0000000000000000000, -1.000000000000000000, -0.0000000000000000000 ) ) ;
#68 = DIRECTION ( 'NONE',  ( 0.0000000000000000000, 1.000000000000000000, 0.0000000000000000000 ) ) ;
#69 = VERTEX_POINT ( 'NONE', #7 ) ;
#70 = UNCERTAINTY_MEASURE_WITH_UNIT (LENGTH_MEASURE( 1.000000000000000082E-05 ), #296, 'distance_accuracy_value', 'NONE');
#71 = DIRECTION ( 'NONE',  ( 0.0000000000000000000, 0.0000000000000000000, 1.000000000000000000 ) ) ;
#72 = CIRCLE ( 'NONE', #336, 0.1889763779527559029 ) ;
#73 = SURFACE_STYLE_FILL_AREA ( #30 ) ;
#74 = MECHANICAL_DESIGN_GEOMETRIC_PRESENTATION_REPRESENTATION (  '', ( #307 ), #269 ) ;
#75 = ORIENTED_EDGE ( 'NONE', *, *, #87, .F. ) ;
#76 = ADVANCED_FACE ( 'NONE', ( #6 ), #386, .T. ) ;
#77 = ORIENTED_EDGE ( 'NONE', *, *, #163, .F. ) ;
#78 = ORIENTED_EDGE ( 'NONE', *, *, #189, .T. ) ;
#79 = FACE_OUTER_BOUND ( 'NONE', #549, .T. ) ;
#80 = COLOUR_RGB ( '',1.000000000000000000, 1.000000000000000000, 1.000000000000000000 ) ;
#81 = COLOUR_RGB ( '',1.000000000000000000, 1.000000000000000000, 1.000000000000000000 ) ;
#82 = PRESENTATION_STYLE_ASSIGNMENT (( #236 ) ) ;
#83 = CIRCLE ( 'NONE', #582, 0.1889763779527559029 ) ;
#84 = STYLED_ITEM ( 'NONE', ( #556 ), #169 ) ;
#85 = FACE_OUTER_BOUND ( 'NONE', #462, .T. ) ;
#86 = CARTESIAN_POINT ( 'NONE',  ( 0.09842519685039373412, -0.2165354330708661457, 0.0000000000000000000 ) ) ;
#87 = EDGE_CURVE ( 'NONE', #299, #391, #460, .T. ) ;
#88 = LENGTH_MEASURE_WITH_UNIT ( LENGTH_MEASURE( 0.02539999999999999897 ), #231 );
#89 = FILL_AREA_STYLE ('',( #526 ) ) ;
#90 = LENGTH_MEASURE_WITH_UNIT ( LENGTH_MEASURE( 0.02539999999999999897 ), #471 );
#91 =( NAMED_UNIT ( * ) PLANE_ANGLE_UNIT ( ) SI_UNIT ( $, .RADIAN. ) );
#92 = PRESENTATION_STYLE_ASSIGNMENT (( #327 ) ) ;
#93 = CIRCLE ( 'NONE', #441, 0.01181102362204724740 ) ;
#94 = COLOUR_RGB ( '',0.2509803921568627416, 0.2509803921568627416, 0.2509803921568627416 ) ;
#95 = EDGE_CURVE ( 'NONE', #69, #440, #111, .T. ) ;
#96 =( CONVERSION_BASED_UNIT ( 'INCH', #239 ) LENGTH_UNIT ( ) NAMED_UNIT ( #157 ) );
#97 = DIMENSIONAL_EXPONENTS ( 1.000000000000000000, 0.0000000000000000000, 0.0000000000000000000, 0.0000000000000000000, 0.0000000000000000000, 0.0000000000000000000, 0.0000000000000000000 ) ;
#98 = FILL_AREA_STYLE ('',( #531 ) ) ;
#99 = DIRECTION ( 'NONE',  ( 0.0000000000000000000, 1.000000000000000000, 0.0000000000000000000 ) ) ;
#100 = EDGE_CURVE ( 'NONE', #69, #299, #535, .T. ) ;
#101 = COLOUR_RGB ( '',0.9411764705882352811, 0.6745098039215686736, 0.1176470588235294101 ) ;
#102 =( GEOMETRIC_REPRESENTATION_CONTEXT ( 3 ) GLOBAL_UNCERTAINTY_ASSIGNED_CONTEXT ( ( #289 ) ) GLOBAL_UNIT_ASSIGNED_CONTEXT ( ( #586, #540, #293 ) ) REPRESENTATION_CONTEXT ( 'NONE', 'WORKASPACE' ) );
#103 =( NAMED_UNIT ( * ) PLANE_ANGLE_UNIT ( ) SI_UNIT ( $, .RADIAN. ) );
#104 = LENGTH_MEASURE_WITH_UNIT ( LENGTH_MEASURE( 0.02539999999999999897 ), #283 );
#105 = ORIENTED_EDGE ( 'NONE', *, *, #359, .T. ) ;
#106 = CARTESIAN_POINT ( 'NONE',  ( 0.0000000000000000000, 0.1673228346456692994, 0.0000000000000000000 ) ) ;
#107 = SURFACE_STYLE_USAGE ( .BOTH. , #498 ) ;
#108 = CARTESIAN_POINT ( 'NONE',  ( 0.0000000000000000000, 0.1968503937007874127, -0.1889763779527559029 ) ) ;
#109 = FACE_OUTER_BOUND ( 'NONE', #385, .T. ) ;
#110 = DIRECTION ( 'NONE',  ( 0.0000000000000000000, 1.000000000000000000, 0.0000000000000000000 ) ) ;
#111 = LINE ( 'NONE', #511, #143 ) ;
#112 = APPLICATION_PROTOCOL_DEFINITION ( 'draft international standard', 'automotive_design', 1998, #399 ) ;
#113 = LINE ( 'NONE', #119, #486 ) ;
#114 = CARTESIAN_POINT ( 'NONE',  ( -0.09842519685039366473, 0.0000000000000000000, -2.410722045565656070E-17 ) ) ;
#115 = SURFACE_STYLE_FILL_AREA ( #412 ) ;
#116 = EDGE_CURVE ( 'NONE', #518, #25, #457, .T. ) ;
#117 = APPLICATION_PROTOCOL_DEFINITION ( 'draft international standard', 'automotive_design', 1998, #452 ) ;
#118 = MECHANICAL_DESIGN_GEOMETRIC_PRESENTATION_REPRESENTATION (  '', ( #48 ), #413 ) ;
#119 = CARTESIAN_POINT ( 'NONE',  ( 0.0000000000000000000, 0.1673228346456692994, 0.02401574803149606266 ) ) ;
#120 = MECHANICAL_DESIGN_GEOMETRIC_PRESENTATION_REPRESENTATION (  '', ( #42 ), #13 ) ;
#121 =( GEOMETRIC_REPRESENTATION_CONTEXT ( 3 ) GLOBAL_UNCERTAINTY_ASSIGNED_CONTEXT ( ( #388 ) ) GLOBAL_UNIT_ASSIGNED_CONTEXT ( ( #187, #464, #619 ) ) REPRESENTATION_CONTEXT ( 'NONE', 'WORKASPACE' ) );
#122 =( CONVERSION_BASED_UNIT ( 'INCH', #226 ) LENGTH_UNIT ( ) NAMED_UNIT ( #433 ) );
#123 = ORIENTED_EDGE ( 'NONE', *, *, #479, .F. ) ;
#124 = UNCERTAINTY_MEASURE_WITH_UNIT (LENGTH_MEASURE( 1.000000000000000082E-05 ), #401, 'distance_accuracy_value', 'NONE');
#125 = CARTESIAN_POINT ( 'NONE',  ( -0.09842519685039366473, -0.2165354330708661457, -2.410722045565656070E-17 ) ) ;
#126 =( NAMED_UNIT ( * ) SI_UNIT ( $, .STERADIAN. ) SOLID_ANGLE_UNIT ( ) );
#127 = SURFACE_STYLE_USAGE ( .BOTH. , #372 ) ;
#128 =( GEOMETRIC_REPRESENTATION_CONTEXT ( 3 ) GLOBAL_UNCERTAINTY_ASSIGNED_CONTEXT ( ( #124 ) ) GLOBAL_UNIT_ASSIGNED_CONTEXT ( ( #401, #548, #351 ) ) REPRESENTATION_CONTEXT ( 'NONE', 'WORKASPACE' ) );
#129 = AXIS2_PLACEMENT_3D ( 'NONE', #398, #507, #461 ) ;
#130 = CIRCLE ( 'NONE', #488, 0.01181102362204724740 ) ;
#131 = SURFACE_SIDE_STYLE ('',( #501 ) ) ;
#132 = ADVANCED_FACE ( 'NONE', ( #109 ), #165, .T. ) ;
#133 = DIRECTION ( 'NONE',  ( 0.0000000000000000000, 1.000000000000000000, 0.0000000000000000000 ) ) ;
#134 = CARTESIAN_POINT ( 'NONE',  ( 0.09842519685039373412, -0.2165354330708661457, 0.0000000000000000000 ) ) ;
#135 = AXIS2_PLACEMENT_3D ( 'NONE', #106, #247, #54 ) ;
#136 = COLOUR_RGB ( '',0.2509803921568627416, 0.2509803921568627416, 0.2509803921568627416 ) ;
#137 =( LENGTH_UNIT ( ) NAMED_UNIT ( * ) SI_UNIT ( $, .METRE. ) );
#138 = DIRECTION ( 'NONE',  ( -0.0000000000000000000, -1.000000000000000000, -0.0000000000000000000 ) ) ;
#139 = ADVANCED_FACE ( 'NONE', ( #79 ), #18, .T. ) ;
#140 = EDGE_LOOP ( 'NONE', ( #493, #145 ) ) ;
#141 = SURFACE_SIDE_STYLE ('',( #483 ) ) ;
#142 = SURFACE_SIDE_STYLE ('',( #492 ) ) ;
#143 = VECTOR ( 'NONE', #174, 39.37007874015748143 ) ;
#144 = CARTESIAN_POINT ( 'NONE',  ( 2.941080895590100076E-18, 0.1968503937007874127, -0.02401574803149606266 ) ) ;
#145 = ORIENTED_EDGE ( 'NONE', *, *, #571, .F. ) ;
#146 = DIRECTION ( 'NONE',  ( 0.0000000000000000000, 0.0000000000000000000, 1.000000000000000000 ) ) ;
#147 = CARTESIAN_POINT ( 'NONE',  ( 0.0000000000000000000, 0.1673228346456692994, 0.0000000000000000000 ) ) ;
#148 = CARTESIAN_POINT ( 'NONE',  ( 0.0000000000000000000, 0.1968503937007874127, 0.02401574803149606266 ) ) ;
#149 = ORIENTED_EDGE ( 'NONE', *, *, #338, .F. ) ;
#150 = LENGTH_MEASURE_WITH_UNIT ( LENGTH_MEASURE( 0.02539999999999999897 ), #384 );
#151 = DIRECTION ( 'NONE',  ( 0.0000000000000000000, 0.0000000000000000000, 1.000000000000000000 ) ) ;
#152 = EDGE_CURVE ( 'NONE', #396, #61, #392, .T. ) ;
#153 = DIMENSIONAL_EXPONENTS ( 1.000000000000000000, 0.0000000000000000000, 0.0000000000000000000, 0.0000000000000000000, 0.0000000000000000000, 0.0000000000000000000, 0.0000000000000000000 ) ;
#154 = LINE ( 'NONE', #310, #58 ) ;
#155 = FACE_OUTER_BOUND ( 'NONE', #594, .T. ) ;
#156 = AXIS2_PLACEMENT_3D ( 'NONE', #476, #34, #421 ) ;
#157 = DIMENSIONAL_EXPONENTS ( 1.000000000000000000, 0.0000000000000000000, 0.0000000000000000000, 0.0000000000000000000, 0.0000000000000000000, 0.0000000000000000000, 0.0000000000000000000 ) ;
#158 = PRODUCT_DEFINITION_FORMATION_WITH_SPECIFIED_SOURCE ( 'ANY', '', #539, .NOT_KNOWN. ) ;
#159 = FILL_AREA_STYLE_COLOUR ( '', #324 ) ;
#160 = SURFACE_STYLE_FILL_AREA ( #64 ) ;
#161 = LENGTH_MEASURE_WITH_UNIT ( LENGTH_MEASURE( 0.02539999999999999897 ), #213 );
#162 = SURFACE_SIDE_STYLE ('',( #73 ) ) ;
#163 = EDGE_CURVE ( 'NONE', #299, #69, #381, .T. ) ;
#164 = LENGTH_MEASURE_WITH_UNIT ( LENGTH_MEASURE( 0.02539999999999999897 ), #21 );
#165 = CYLINDRICAL_SURFACE ( 'NONE', #24, 0.01181102362204724740 ) ;
#166 = PRESENTATION_STYLE_ASSIGNMENT (( #562 ) ) ;
#167 =( CONVERSION_BASED_UNIT ( 'INCH', #161 ) LENGTH_UNIT ( ) NAMED_UNIT ( #97 ) );
#168 = SURFACE_SIDE_STYLE ('',( #602 ) ) ;
#169 = ADVANCED_BREP_SHAPE_REPRESENTATION ( 'CUI_DEVICES_CX-0905C', ( #66, #287 ), #227 ) ;
#170 = AXIS2_PLACEMENT_3D ( 'NONE', #114, #357, #304 ) ;
#171 = CARTESIAN_POINT ( 'NONE',  ( -0.09842519685039366473, 0.0000000000000000000, 0.01181102362204722485 ) ) ;
#172 = VECTOR ( 'NONE', #138, 39.37007874015748143 ) ;
#173 = ORIENTED_EDGE ( 'NONE', *, *, #189, .F. ) ;
#174 = DIRECTION ( 'NONE',  ( 0.0000000000000000000, 1.000000000000000000, 0.0000000000000000000 ) ) ;
#175 = SHAPE_DEFINITION_REPRESENTATION ( #598, #169 ) ;
#176 = CYLINDRICAL_SURFACE ( 'NONE', #156, 0.1889763779527559029 ) ;
#177 = FILL_AREA_STYLE_COLOUR ( '', #183 ) ;
#178 = FACE_OUTER_BOUND ( 'NONE', #337, .T. ) ;
#179 = ADVANCED_FACE ( 'NONE', ( #178 ), #277, .T. ) ;
#180 = FILL_AREA_STYLE ('',( #611 ) ) ;
#181 = PRESENTATION_STYLE_ASSIGNMENT (( #229 ) ) ;
#182 = CARTESIAN_POINT ( 'NONE',  ( 0.0000000000000000000, 0.1968503937007874127, 0.0000000000000000000 ) ) ;
#183 = COLOUR_RGB ( '',1.000000000000000000, 1.000000000000000000, 1.000000000000000000 ) ;
#184 =( GEOMETRIC_REPRESENTATION_CONTEXT ( 3 ) GLOBAL_UNCERTAINTY_ASSIGNED_CONTEXT ( ( #463 ) ) GLOBAL_UNIT_ASSIGNED_CONTEXT ( ( #428, #280, #490 ) ) REPRESENTATION_CONTEXT ( 'NONE', 'WORKASPACE' ) );
#185 =( NAMED_UNIT ( * ) SI_UNIT ( $, .STERADIAN. ) SOLID_ANGLE_UNIT ( ) );
#186 = MECHANICAL_DESIGN_GEOMETRIC_PRESENTATION_REPRESENTATION (  '', ( #422 ), #513 ) ;
#187 =( CONVERSION_BASED_UNIT ( 'INCH', #88 ) LENGTH_UNIT ( ) NAMED_UNIT ( #429 ) );
#188 = CARTESIAN_POINT ( 'NONE',  ( 0.0000000000000000000, 0.1968503937007874127, 0.0000000000000000000 ) ) ;
#189 = EDGE_CURVE ( 'NONE', #241, #518, #215, .T. ) ;
#190 = FACE_BOUND ( 'NONE', #140, .T. ) ;
#191 =( NAMED_UNIT ( * ) PLANE_ANGLE_UNIT ( ) SI_UNIT ( $, .RADIAN. ) );
#192 = DIRECTION ( 'NONE',  ( 0.0000000000000000000, 1.000000000000000000, 0.0000000000000000000 ) ) ;
#193 = LINE ( 'NONE', #383, #172 ) ;
#194 = DIMENSIONAL_EXPONENTS ( 1.000000000000000000, 0.0000000000000000000, 0.0000000000000000000, 0.0000000000000000000, 0.0000000000000000000, 0.0000000000000000000, 0.0000000000000000000 ) ;
#195 =( LENGTH_UNIT ( ) NAMED_UNIT ( * ) SI_UNIT ( $, .METRE. ) );
#196 = ORIENTED_EDGE ( 'NONE', *, *, #560, .T. ) ;
#197 = CARTESIAN_POINT ( 'NONE',  ( 0.0000000000000000000, 0.1968503937007874127, -0.1889763779527559029 ) ) ;
#198 = DIRECTION ( 'NONE',  ( 0.0000000000000000000, 1.000000000000000000, 0.0000000000000000000 ) ) ;
#199 = PRESENTATION_STYLE_ASSIGNMENT (( #15 ) ) ;
#200 = EDGE_LOOP ( 'NONE', ( #580, #28 ) ) ;
#201 = SURFACE_SIDE_STYLE ('',( #285 ) ) ;
#202 = FILL_AREA_STYLE ('',( #297 ) ) ;
#203 =( GEOMETRIC_REPRESENTATION_CONTEXT ( 3 ) GLOBAL_UNCERTAINTY_ASSIGNED_CONTEXT ( ( #509 ) ) GLOBAL_UNIT_ASSIGNED_CONTEXT ( ( #371, #612, #563 ) ) REPRESENTATION_CONTEXT ( 'NONE', 'WORKASPACE' ) );
#204 = AXIS2_PLACEMENT_3D ( 'NONE', #147, #192, #592 ) ;
#205 = CARTESIAN_POINT ( 'NONE',  ( 0.0000000000000000000, 0.0000000000000000000, 0.0000000000000000000 ) ) ;
#206 = ORIENTED_EDGE ( 'NONE', *, *, #207, .T. ) ;
#207 = EDGE_CURVE ( 'NONE', #25, #559, #468, .T. ) ;
#208 = SURFACE_STYLE_FILL_AREA ( #202 ) ;
#209 = ORIENTED_EDGE ( 'NONE', *, *, #95, .T. ) ;
#210 = FILL_AREA_STYLE_COLOUR ( '', #554 ) ;
#211 = DIRECTION ( 'NONE',  ( 0.0000000000000000000, 1.000000000000000000, 0.0000000000000000000 ) ) ;
#212 = CARTESIAN_POINT ( 'NONE',  ( 0.09842519685039373412, 0.0000000000000000000, 0.01181102362204724740 ) ) ;
#213 =( LENGTH_UNIT ( ) NAMED_UNIT ( * ) SI_UNIT ( $, .METRE. ) );
#214 =( GEOMETRIC_REPRESENTATION_CONTEXT ( 3 ) GLOBAL_UNCERTAINTY_ASSIGNED_CONTEXT ( ( #256 ) ) GLOBAL_UNIT_ASSIGNED_CONTEXT ( ( #350, #325, #620 ) ) REPRESENTATION_CONTEXT ( 'NONE', 'WORKASPACE' ) );
#215 = CIRCLE ( 'NONE', #369, 0.01181102362204724740 ) ;
#216 = ADVANCED_FACE ( 'NONE', ( #623 ), #331, .T. ) ;
#217 = CIRCLE ( 'NONE', #362, 0.01181102362204724740 ) ;
#218 =( CONVERSION_BASED_UNIT ( 'INCH', #410 ) LENGTH_UNIT ( ) NAMED_UNIT ( #333 ) );
#219 = EDGE_LOOP ( 'NONE', ( #47, #123 ) ) ;
#220 = SURFACE_SIDE_STYLE ('',( #449 ) ) ;
#221 = VERTEX_POINT ( 'NONE', #144 ) ;
#222 = DIRECTION ( 'NONE',  ( 0.0000000000000000000, 1.000000000000000000, 0.0000000000000000000 ) ) ;
#223 = ORIENTED_EDGE ( 'NONE', *, *, #571, .T. ) ;
#224 =( NAMED_UNIT ( * ) SI_UNIT ( $, .STERADIAN. ) SOLID_ANGLE_UNIT ( ) );
#225 = CIRCLE ( 'NONE', #361, 0.1889763779527559029 ) ;
#226 = LENGTH_MEASURE_WITH_UNIT ( LENGTH_MEASURE( 0.02539999999999999897 ), #558 );
#227 =( GEOMETRIC_REPRESENTATION_CONTEXT ( 3 ) GLOBAL_UNCERTAINTY_ASSIGNED_CONTEXT ( ( #2 ) ) GLOBAL_UNIT_ASSIGNED_CONTEXT ( ( #96, #279, #126 ) ) REPRESENTATION_CONTEXT ( 'NONE', 'WORKASPACE' ) );
#228 = ORIENTED_EDGE ( 'NONE', *, *, #607, .T. ) ;
#229 = SURFACE_STYLE_USAGE ( .BOTH. , #566 ) ;
#230 = DIRECTION ( 'NONE',  ( 0.0000000000000000000, 0.0000000000000000000, 1.000000000000000000 ) ) ;
#231 =( LENGTH_UNIT ( ) NAMED_UNIT ( * ) SI_UNIT ( $, .METRE. ) );
#232 = ADVANCED_FACE ( 'NONE', ( #387 ), #339, .T. ) ;
#233 = DIRECTION ( 'NONE',  ( 0.0000000000000000000, 0.0000000000000000000, -1.000000000000000000 ) ) ;
#234 = MECHANICAL_DESIGN_GEOMETRIC_PRESENTATION_REPRESENTATION (  '', ( #510 ), #306 ) ;
#235 = PRESENTATION_LAYER_ASSIGNMENT (  '', '', ( #496 ) ) ;
#236 = SURFACE_STYLE_USAGE ( .BOTH. , #131 ) ;
#237 = DIRECTION ( 'NONE',  ( 0.0000000000000000000, 0.0000000000000000000, 1.000000000000000000 ) ) ;
#238 = CARTESIAN_POINT ( 'NONE',  ( 0.0000000000000000000, 0.1673228346456692994, 0.02401574803149606266 ) ) ;
#239 = LENGTH_MEASURE_WITH_UNIT ( LENGTH_MEASURE( 0.02539999999999999897 ), #44 );
#240 =( CONVERSION_BASED_UNIT ( 'INCH', #489 ) LENGTH_UNIT ( ) NAMED_UNIT ( #282 ) );
#241 = VERTEX_POINT ( 'NONE', #249 ) ;
#242 = DIMENSIONAL_EXPONENTS ( 1.000000000000000000, 0.0000000000000000000, 0.0000000000000000000, 0.0000000000000000000, 0.0000000000000000000, 0.0000000000000000000, 0.0000000000000000000 ) ;
#243 = CIRCLE ( 'NONE', #593, 0.02401574803149606266 ) ;
#244 = CIRCLE ( 'NONE', #59, 0.02401574803149606266 ) ;
#245 =( NAMED_UNIT ( * ) SI_UNIT ( $, .STERADIAN. ) SOLID_ANGLE_UNIT ( ) );
#246 = DIRECTION ( 'NONE',  ( 0.0000000000000000000, 0.0000000000000000000, 1.000000000000000000 ) ) ;
#247 = DIRECTION ( 'NONE',  ( 0.0000000000000000000, 1.000000000000000000, 0.0000000000000000000 ) ) ;
#248 = PRODUCT_DEFINITION ( 'UNKNOWN', '', #158, #487 ) ;
#249 = CARTESIAN_POINT ( 'NONE',  ( 0.09842519685039373412, -0.2165354330708661457, -0.01181102362204724740 ) ) ;
#250 = ORIENTED_EDGE ( 'NONE', *, *, #95, .F. ) ;
#251 = CARTESIAN_POINT ( 'NONE',  ( -0.09842519685039366473, 0.0000000000000000000, -2.410722045565656070E-17 ) ) ;
#252 = MECHANICAL_DESIGN_GEOMETRIC_PRESENTATION_REPRESENTATION (  '', ( #617 ), #121 ) ;
#253 = ORIENTED_EDGE ( 'NONE', *, *, #87, .T. ) ;
#254 = FILL_AREA_STYLE ('',( #159 ) ) ;
#255 = EDGE_LOOP ( 'NONE', ( #504, #459, #56, #515 ) ) ;
#256 = UNCERTAINTY_MEASURE_WITH_UNIT (LENGTH_MEASURE( 1.000000000000000082E-05 ), #350, 'distance_accuracy_value', 'NONE');
#257 = DIRECTION ( 'NONE',  ( 0.0000000000000000000, 0.0000000000000000000, 1.000000000000000000 ) ) ;
#258 = EDGE_CURVE ( 'NONE', #364, #491, #225, .T. ) ;
#259 = CARTESIAN_POINT ( 'NONE',  ( 0.0000000000000000000, 0.0000000000000000000, 0.0000000000000000000 ) ) ;
#260 = FILL_AREA_STYLE_COLOUR ( '', #136 ) ;
#261 = ORIENTED_EDGE ( 'NONE', *, *, #52, .T. ) ;
#262 =( NAMED_UNIT ( * ) PLANE_ANGLE_UNIT ( ) SI_UNIT ( $, .RADIAN. ) );
#263 = STYLED_ITEM ( 'NONE', ( #349 ), #406 ) ;
#264 =( NAMED_UNIT ( * ) PLANE_ANGLE_UNIT ( ) SI_UNIT ( $, .RADIAN. ) );
#265 = VERTEX_POINT ( 'NONE', #148 ) ;
#266 = CARTESIAN_POINT ( 'NONE',  ( 0.09842519685039373412, -0.2165354330708661457, 0.01181102362204724740 ) ) ;
#267 = EDGE_CURVE ( 'NONE', #518, #241, #93, .T. ) ;
#268 = VERTEX_POINT ( 'NONE', #238 ) ;
#269 =( GEOMETRIC_REPRESENTATION_CONTEXT ( 3 ) GLOBAL_UNCERTAINTY_ASSIGNED_CONTEXT ( ( #355 ) ) GLOBAL_UNIT_ASSIGNED_CONTEXT ( ( #39, #191, #185 ) ) REPRESENTATION_CONTEXT ( 'NONE', 'WORKASPACE' ) );
#270 = MECHANICAL_DESIGN_GEOMETRIC_PRESENTATION_REPRESENTATION (  '', ( #263 ), #50 ) ;
#271 = CARTESIAN_POINT ( 'NONE',  ( 0.0000000000000000000, 0.0000000000000000000, 0.0000000000000000000 ) ) ;
#272 =( LENGTH_UNIT ( ) NAMED_UNIT ( * ) SI_UNIT ( $, .METRE. ) );
#273 = DIRECTION ( 'NONE',  ( 0.0000000000000000000, 1.000000000000000000, 0.0000000000000000000 ) ) ;
#274 = DIRECTION ( 'NONE',  ( 0.0000000000000000000, 1.000000000000000000, 0.0000000000000000000 ) ) ;
#275 = PRESENTATION_LAYER_ASSIGNMENT (  '', '', ( #360 ) ) ;
#276 = MECHANICAL_DESIGN_GEOMETRIC_PRESENTATION_REPRESENTATION (  '', ( #330 ), #203 ) ;
#277 = PLANE ( 'NONE',  #512 ) ;
#278 =( GEOMETRIC_REPRESENTATION_CONTEXT ( 3 ) GLOBAL_UNCERTAINTY_ASSIGNED_CONTEXT ( ( #318 ) ) GLOBAL_UNIT_ASSIGNED_CONTEXT ( ( #122, #91, #314 ) ) REPRESENTATION_CONTEXT ( 'NONE', 'WORKASPACE' ) );
#279 =( NAMED_UNIT ( * ) PLANE_ANGLE_UNIT ( ) SI_UNIT ( $, .RADIAN. ) );
#280 =( NAMED_UNIT ( * ) PLANE_ANGLE_UNIT ( ) SI_UNIT ( $, .RADIAN. ) );
#281 = FILL_AREA_STYLE ('',( #292 ) ) ;
#282 = DIMENSIONAL_EXPONENTS ( 1.000000000000000000, 0.0000000000000000000, 0.0000000000000000000, 0.0000000000000000000, 0.0000000000000000000, 0.0000000000000000000, 0.0000000000000000000 ) ;
#283 =( LENGTH_UNIT ( ) NAMED_UNIT ( * ) SI_UNIT ( $, .METRE. ) );
#284 = PRESENTATION_LAYER_ASSIGNMENT (  '', '', ( #42 ) ) ;
#285 = SURFACE_STYLE_FILL_AREA ( #281 ) ;
#286 = STYLED_ITEM ( 'NONE', ( #577 ), #584 ) ;
#287 = AXIS2_PLACEMENT_3D ( 'NONE', #271, #71, #352 ) ;
#288 = ORIENTED_EDGE ( 'NONE', *, *, #267, .T. ) ;
#289 = UNCERTAINTY_MEASURE_WITH_UNIT (LENGTH_MEASURE( 1.000000000000000082E-05 ), #586, 'distance_accuracy_value', 'NONE');
#290 = EDGE_CURVE ( 'NONE', #396, #364, #193, .T. ) ;
#291 = ORIENTED_EDGE ( 'NONE', *, *, #52, .F. ) ;
#292 = FILL_AREA_STYLE_COLOUR ( '', #101 ) ;
#293 =( NAMED_UNIT ( * ) SI_UNIT ( $, .STERADIAN. ) SOLID_ANGLE_UNIT ( ) );
#294 = CARTESIAN_POINT ( 'NONE',  ( 2.314293163743029593E-17, 0.0000000000000000000, 0.1889763779527559029 ) ) ;
#295 = ORIENTED_EDGE ( 'NONE', *, *, #434, .F. ) ;
#296 =( CONVERSION_BASED_UNIT ( 'INCH', #150 ) LENGTH_UNIT ( ) NAMED_UNIT ( #589 ) );
#297 = FILL_AREA_STYLE_COLOUR ( '', #94 ) ;
#298 = PRESENTATION_LAYER_ASSIGNMENT (  '', '', ( #263 ) ) ;
#299 = VERTEX_POINT ( 'NONE', #20 ) ;
#300 = DIRECTION ( 'NONE',  ( -0.0000000000000000000, -1.000000000000000000, -0.0000000000000000000 ) ) ;
#301 = LINE ( 'NONE', #108, #402 ) ;
#302 = FACE_OUTER_BOUND ( 'NONE', #255, .T. ) ;
#303 = ORIENTED_EDGE ( 'NONE', *, *, #100, .T. ) ;
#304 = DIRECTION ( 'NONE',  ( 0.0000000000000000000, 0.0000000000000000000, 1.000000000000000000 ) ) ;
#305 = SURFACE_SIDE_STYLE ('',( #115 ) ) ;
#306 =( GEOMETRIC_REPRESENTATION_CONTEXT ( 3 ) GLOBAL_UNCERTAINTY_ASSIGNED_CONTEXT ( ( #408 ) ) GLOBAL_UNIT_ASSIGNED_CONTEXT ( ( #167, #262, #516 ) ) REPRESENTATION_CONTEXT ( 'NONE', 'WORKASPACE' ) );
#307 = STYLED_ITEM ( 'NONE', ( #82 ), #139 ) ;
#308 = MECHANICAL_DESIGN_GEOMETRIC_PRESENTATION_REPRESENTATION (  '', ( #557 ), #278 ) ;
#309 = MECHANICAL_DESIGN_GEOMETRIC_PRESENTATION_REPRESENTATION (  '', ( #84 ), #618 ) ;
#310 = CARTESIAN_POINT ( 'NONE',  ( 2.941080895590100076E-18, 0.1673228346456692994, -0.02401574803149606266 ) ) ;
#311 = ORIENTED_EDGE ( 'NONE', *, *, #326, .F. ) ;
#312 = CARTESIAN_POINT ( 'NONE',  ( -0.09842519685039366473, -0.2165354330708661457, -2.410722045565656070E-17 ) ) ;
#313 = EDGE_CURVE ( 'NONE', #354, #268, #243, .T. ) ;
#314 =( NAMED_UNIT ( * ) SI_UNIT ( $, .STERADIAN. ) SOLID_ANGLE_UNIT ( ) );
#315 = ORIENTED_EDGE ( 'NONE', *, *, #326, .T. ) ;
#316 = DIRECTION ( 'NONE',  ( 0.0000000000000000000, 1.000000000000000000, 0.0000000000000000000 ) ) ;
#317 = CYLINDRICAL_SURFACE ( 'NONE', #135, 0.02401574803149606266 ) ;
#318 = UNCERTAINTY_MEASURE_WITH_UNIT (LENGTH_MEASURE( 1.000000000000000082E-05 ), #122, 'distance_accuracy_value', 'NONE');
#319 = FILL_AREA_STYLE ('',( #420 ) ) ;
#320 = SURFACE_STYLE_USAGE ( .BOTH. , #168 ) ;
#321 = AXIS2_PLACEMENT_3D ( 'NONE', #553, #300, #597 ) ;
#322 = AXIS2_PLACEMENT_3D ( 'NONE', #436, #198, #55 ) ;
#323 = PRESENTATION_STYLE_ASSIGNMENT (( #127 ) ) ;
#324 = COLOUR_RGB ( '',0.2509803921568627416, 0.2509803921568627416, 0.2509803921568627416 ) ;
#325 =( NAMED_UNIT ( * ) PLANE_ANGLE_UNIT ( ) SI_UNIT ( $, .RADIAN. ) );
#326 = EDGE_CURVE ( 'NONE', #268, #265, #113, .T. ) ;
#327 = SURFACE_STYLE_USAGE ( .BOTH. , #622 ) ;
#328 = PLANE ( 'NONE',  #524 ) ;
#329 = PRESENTATION_LAYER_ASSIGNMENT (  '', '', ( #510 ) ) ;
#330 = STYLED_ITEM ( 'NONE', ( #181 ), #179 ) ;
#331 = CYLINDRICAL_SURFACE ( 'NONE', #37, 0.01181102362204724740 ) ;
#332 = COLOUR_RGB ( '',0.9411764705882352811, 0.6745098039215686736, 0.1176470588235294101 ) ;
#333 = DIMENSIONAL_EXPONENTS ( 1.000000000000000000, 0.0000000000000000000, 0.0000000000000000000, 0.0000000000000000000, 0.0000000000000000000, 0.0000000000000000000, 0.0000000000000000000 ) ;
#334 = ORIENTED_EDGE ( 'NONE', *, *, #290, .F. ) ;
#335 = PRESENTATION_STYLE_ASSIGNMENT (( #578 ) ) ;
#336 = AXIS2_PLACEMENT_3D ( 'NONE', #11, #537, #146 ) ;
#337 = EDGE_LOOP ( 'NONE', ( #288, #78 ) ) ;
#338 = EDGE_CURVE ( 'NONE', #354, #221, #154, .T. ) ;
#339 = CYLINDRICAL_SURFACE ( 'NONE', #322, 0.01181102362204724740 ) ;
#340 = LENGTH_MEASURE_WITH_UNIT ( LENGTH_MEASURE( 0.02539999999999999897 ), #137 );
#341 = CARTESIAN_POINT ( 'NONE',  ( 0.09842519685039373412, -0.2165354330708661457, 0.0000000000000000000 ) ) ;
#342 = SURFACE_STYLE_USAGE ( .BOTH. , #201 ) ;
#343 = DIRECTION ( 'NONE',  ( 0.0000000000000000000, 1.000000000000000000, 0.0000000000000000000 ) ) ;
#344 = DIRECTION ( 'NONE',  ( 0.0000000000000000000, 0.0000000000000000000, 1.000000000000000000 ) ) ;
#345 =( GEOMETRIC_REPRESENTATION_CONTEXT ( 3 ) GLOBAL_UNCERTAINTY_ASSIGNED_CONTEXT ( ( #70 ) ) GLOBAL_UNIT_ASSIGNED_CONTEXT ( ( #296, #484, #245 ) ) REPRESENTATION_CONTEXT ( 'NONE', 'WORKASPACE' ) );
#346 = FILL_AREA_STYLE ('',( #210 ) ) ;
#347 = COLOUR_RGB ( '',1.000000000000000000, 1.000000000000000000, 1.000000000000000000 ) ;
#348 = AXIS2_PLACEMENT_3D ( 'NONE', #182, #520, #233 ) ;
#349 = PRESENTATION_STYLE_ASSIGNMENT (( #356 ) ) ;
#350 =( CONVERSION_BASED_UNIT ( 'INCH', #164 ) LENGTH_UNIT ( ) NAMED_UNIT ( #194 ) );
#351 =( NAMED_UNIT ( * ) SI_UNIT ( $, .STERADIAN. ) SOLID_ANGLE_UNIT ( ) );
#352 = DIRECTION ( 'NONE',  ( 1.000000000000000000, 0.0000000000000000000, 0.0000000000000000000 ) ) ;
#353 =( CONVERSION_BASED_UNIT ( 'INCH', #514 ) LENGTH_UNIT ( ) NAMED_UNIT ( #454 ) );
#354 = VERTEX_POINT ( 'NONE', #60 ) ;
#355 = UNCERTAINTY_MEASURE_WITH_UNIT (LENGTH_MEASURE( 1.000000000000000082E-05 ), #39, 'distance_accuracy_value', 'NONE');
#356 = SURFACE_STYLE_USAGE ( .BOTH. , #220 ) ;
#357 = DIRECTION ( 'NONE',  ( -0.0000000000000000000, -1.000000000000000000, -0.0000000000000000000 ) ) ;
#358 = PRESENTATION_STYLE_ASSIGNMENT (( #585 ) ) ;
#359 = EDGE_CURVE ( 'NONE', #265, #221, #414, .T. ) ;
#360 = STYLED_ITEM ( 'NONE', ( #166 ), #31 ) ;
#361 = AXIS2_PLACEMENT_3D ( 'NONE', #205, #438, #395 ) ;
#362 = AXIS2_PLACEMENT_3D ( 'NONE', #62, #590, #380 ) ;
#363 = CARTESIAN_POINT ( 'NONE',  ( 0.0000000000000000000, 0.0000000000000000000, 0.0000000000000000000 ) ) ;
#364 = VERTEX_POINT ( 'NONE', #294 ) ;
#365 = SURFACE_SIDE_STYLE ('',( #160 ) ) ;
#366 = FILL_AREA_STYLE_COLOUR ( '', #332 ) ;
#367 = FILL_AREA_STYLE ('',( #370 ) ) ;
#368 = DIRECTION ( 'NONE',  ( 0.0000000000000000000, 0.0000000000000000000, 1.000000000000000000 ) ) ;
#369 = AXIS2_PLACEMENT_3D ( 'NONE', #86, #466, #475 ) ;
#370 = FILL_AREA_STYLE_COLOUR ( '', #497 ) ;
#371 =( CONVERSION_BASED_UNIT ( 'INCH', #374 ) LENGTH_UNIT ( ) NAMED_UNIT ( #153 ) );
#372 = SURFACE_SIDE_STYLE ('',( #565 ) ) ;
#373 = SURFACE_STYLE_FILL_AREA ( #89 ) ;
#374 = LENGTH_MEASURE_WITH_UNIT ( LENGTH_MEASURE( 0.02539999999999999897 ), #477 );
#375 = DIMENSIONAL_EXPONENTS ( 1.000000000000000000, 0.0000000000000000000, 0.0000000000000000000, 0.0000000000000000000, 0.0000000000000000000, 0.0000000000000000000, 0.0000000000000000000 ) ;
#376 = DIRECTION ( 'NONE',  ( 0.0000000000000000000, 0.0000000000000000000, 1.000000000000000000 ) ) ;
#377 = DIRECTION ( 'NONE',  ( -0.0000000000000000000, -1.000000000000000000, -0.0000000000000000000 ) ) ;
#378 = ADVANCED_FACE ( 'NONE', ( #541 ), #63, .F. ) ;
#379 = STYLED_ITEM ( 'NONE', ( #358 ), #76 ) ;
#380 = DIRECTION ( 'NONE',  ( 0.0000000000000000000, 0.0000000000000000000, 1.000000000000000000 ) ) ;
#381 = CIRCLE ( 'NONE', #616, 0.01181102362204726648 ) ;
#382 = UNCERTAINTY_MEASURE_WITH_UNIT (LENGTH_MEASURE( 1.000000000000000082E-05 ), #564, 'distance_accuracy_value', 'NONE');
#383 = CARTESIAN_POINT ( 'NONE',  ( 2.314293163743029593E-17, 0.1968503937007874127, 0.1889763779527559029 ) ) ;
#384 =( LENGTH_UNIT ( ) NAMED_UNIT ( * ) SI_UNIT ( $, .METRE. ) );
#385 = EDGE_LOOP ( 'NONE', ( #17, #209, #223, #75 ) ) ;
#386 = CYLINDRICAL_SURFACE ( 'NONE', #456, 0.01181102362204724740 ) ;
#387 = FACE_OUTER_BOUND ( 'NONE', #600, .T. ) ;
#388 = UNCERTAINTY_MEASURE_WITH_UNIT (LENGTH_MEASURE( 1.000000000000000082E-05 ), #187, 'distance_accuracy_value', 'NONE');
#389 = FILL_AREA_STYLE ('',( #437 ) ) ;
#390 = SURFACE_STYLE_FILL_AREA ( #53 ) ;
#391 = VERTEX_POINT ( 'NONE', #171 ) ;
#392 = CIRCLE ( 'NONE', #529, 0.1889763779527559029 ) ;
#393 = PRESENTATION_STYLE_ASSIGNMENT (( #342 ) ) ;
#394 = CARTESIAN_POINT ( 'NONE',  ( 0.09842519685039373412, -0.2165354330708661457, 0.01181102362204724740 ) ) ;
#395 = DIRECTION ( 'NONE',  ( 0.0000000000000000000, 0.0000000000000000000, 1.000000000000000000 ) ) ;
#396 = VERTEX_POINT ( 'NONE', #458 ) ;
#397 = ORIENTED_EDGE ( 'NONE', *, *, #579, .T. ) ;
#398 = CARTESIAN_POINT ( 'NONE',  ( 0.0000000000000000000, 0.1968503937007874127, 0.0000000000000000000 ) ) ;
#399 = APPLICATION_CONTEXT ( 'automotive_design' ) ;
#400 = CIRCLE ( 'NONE', #170, 0.01181102362204724740 ) ;
#401 =( CONVERSION_BASED_UNIT ( 'INCH', #33 ) LENGTH_UNIT ( ) NAMED_UNIT ( #19 ) );
#402 = VECTOR ( 'NONE', #67, 39.37007874015748143 ) ;
#403 = CYLINDRICAL_SURFACE ( 'NONE', #348, 0.1889763779527559029 ) ;
#404 = ORIENTED_EDGE ( 'NONE', *, *, #267, .F. ) ;
#405 =( LENGTH_UNIT ( ) NAMED_UNIT ( * ) SI_UNIT ( $, .METRE. ) );
#406 = ADVANCED_FACE ( 'NONE', ( #302 ), #403, .T. ) ;
#407 = EDGE_LOOP ( 'NONE', ( #173, #228, #397, #10 ) ) ;
#408 = UNCERTAINTY_MEASURE_WITH_UNIT (LENGTH_MEASURE( 1.000000000000000082E-05 ), #167, 'distance_accuracy_value', 'NONE');
#409 = DIRECTION ( 'NONE',  ( 0.0000000000000000000, 1.000000000000000000, 0.0000000000000000000 ) ) ;
#410 = LENGTH_MEASURE_WITH_UNIT ( LENGTH_MEASURE( 0.02539999999999999897 ), #23 );
#411 = ORIENTED_EDGE ( 'NONE', *, *, #434, .T. ) ;
#412 = FILL_AREA_STYLE ('',( #451 ) ) ;
#413 =( GEOMETRIC_REPRESENTATION_CONTEXT ( 3 ) GLOBAL_UNCERTAINTY_ASSIGNED_CONTEXT ( ( #583 ) ) GLOBAL_UNIT_ASSIGNED_CONTEXT ( ( #474, #103, #435 ) ) REPRESENTATION_CONTEXT ( 'NONE', 'WORKASPACE' ) );
#414 = CIRCLE ( 'NONE', #129, 0.02401574803149606266 ) ;
#415 = PRESENTATION_LAYER_ASSIGNMENT (  '', '', ( #422 ) ) ;
#416 = FACE_OUTER_BOUND ( 'NONE', #604, .T. ) ;
#417 = CARTESIAN_POINT ( 'NONE',  ( -0.09842519685039366473, -0.1377952755905511584, -2.410722045565656070E-17 ) ) ;
#418 = FACE_BOUND ( 'NONE', #219, .T. ) ;
#419 = LENGTH_MEASURE_WITH_UNIT ( LENGTH_MEASURE( 0.02539999999999999897 ), #272 );
#420 = FILL_AREA_STYLE_COLOUR ( '', #49 ) ;
#421 = DIRECTION ( 'NONE',  ( 0.0000000000000000000, 0.0000000000000000000, -1.000000000000000000 ) ) ;
#422 = STYLED_ITEM ( 'NONE', ( #544 ), #378 ) ;
#423 = DIRECTION ( 'NONE',  ( 0.0000000000000000000, 0.0000000000000000000, 1.000000000000000000 ) ) ;
#424 = FACE_OUTER_BOUND ( 'NONE', #455, .T. ) ;
#425 = DIRECTION ( 'NONE',  ( 0.0000000000000000000, 0.0000000000000000000, 1.000000000000000000 ) ) ;
#426 = LINE ( 'NONE', #532, #530 ) ;
#427 = CARTESIAN_POINT ( 'NONE',  ( 0.0000000000000000000, -0.1377952755905511861, 0.0000000000000000000 ) ) ;
#428 =( CONVERSION_BASED_UNIT ( 'INCH', #104 ) LENGTH_UNIT ( ) NAMED_UNIT ( #574 ) );
#429 = DIMENSIONAL_EXPONENTS ( 1.000000000000000000, 0.0000000000000000000, 0.0000000000000000000, 0.0000000000000000000, 0.0000000000000000000, 0.0000000000000000000, 0.0000000000000000000 ) ;
#430 = PRESENTATION_LAYER_ASSIGNMENT (  '', '', ( #379 ) ) ;
#431 =( NAMED_UNIT ( * ) PLANE_ANGLE_UNIT ( ) SI_UNIT ( $, .RADIAN. ) );
#432 = ORIENTED_EDGE ( 'NONE', *, *, #116, .T. ) ;
#433 = DIMENSIONAL_EXPONENTS ( 1.000000000000000000, 0.0000000000000000000, 0.0000000000000000000, 0.0000000000000000000, 0.0000000000000000000, 0.0000000000000000000, 0.0000000000000000000 ) ;
#434 = EDGE_CURVE ( 'NONE', #491, #364, #83, .T. ) ;
#435 =( NAMED_UNIT ( * ) SI_UNIT ( $, .STERADIAN. ) SOLID_ANGLE_UNIT ( ) );
#436 = CARTESIAN_POINT ( 'NONE',  ( 0.09842519685039373412, -0.2165354330708661457, 0.0000000000000000000 ) ) ;
#437 = FILL_AREA_STYLE_COLOUR ( '', #80 ) ;
#438 = DIRECTION ( 'NONE',  ( 0.0000000000000000000, 1.000000000000000000, 0.0000000000000000000 ) ) ;
#439 = VECTOR ( 'NONE', #409, 39.37007874015748143 ) ;
#440 = VERTEX_POINT ( 'NONE', #38 ) ;
#441 = AXIS2_PLACEMENT_3D ( 'NONE', #341, #482, #45 ) ;
#442 = PRESENTATION_LAYER_ASSIGNMENT (  '', '', ( #286 ) ) ;
#443 = DIRECTION ( 'NONE',  ( -0.0000000000000000000, -1.000000000000000000, -0.0000000000000000000 ) ) ;
#444 =( NAMED_UNIT ( * ) PLANE_ANGLE_UNIT ( ) SI_UNIT ( $, .RADIAN. ) );
#445 = ORIENTED_EDGE ( 'NONE', *, *, #338, .T. ) ;
#446 = ADVANCED_FACE ( 'NONE', ( #527 ), #176, .T. ) ;
#447 = CARTESIAN_POINT ( 'NONE',  ( -0.09842519685039366473, -0.2165354330708661457, 0.01181102362204722485 ) ) ;
#448 = DIRECTION ( 'NONE',  ( 0.0000000000000000000, 1.000000000000000000, 0.0000000000000000000 ) ) ;
#449 = SURFACE_STYLE_FILL_AREA ( #254 ) ;
#450 = PLANE ( 'NONE',  #528 ) ;
#451 = FILL_AREA_STYLE_COLOUR ( '', #478 ) ;
#452 = APPLICATION_CONTEXT ( 'automotive_design' ) ;
#453 = DIRECTION ( 'NONE',  ( 0.0000000000000000000, 1.000000000000000000, 0.0000000000000000000 ) ) ;
#454 = DIMENSIONAL_EXPONENTS ( 1.000000000000000000, 0.0000000000000000000, 0.0000000000000000000, 0.0000000000000000000, 0.0000000000000000000, 0.0000000000000000000, 0.0000000000000000000 ) ;
#455 = EDGE_LOOP ( 'NONE', ( #261, #533 ) ) ;
#456 = AXIS2_PLACEMENT_3D ( 'NONE', #312, #222, #257 ) ;
#457 = LINE ( 'NONE', #266, #36 ) ;
#458 = CARTESIAN_POINT ( 'NONE',  ( 2.314293163743029593E-17, 0.1968503937007874127, 0.1889763779527559029 ) ) ;
#459 = ORIENTED_EDGE ( 'NONE', *, *, #290, .T. ) ;
#460 = LINE ( 'NONE', #447, #439 ) ;
#461 = DIRECTION ( 'NONE',  ( 0.0000000000000000000, 0.0000000000000000000, 1.000000000000000000 ) ) ;
#462 = EDGE_LOOP ( 'NONE', ( #149, #465, #315, #105 ) ) ;
#463 = UNCERTAINTY_MEASURE_WITH_UNIT (LENGTH_MEASURE( 1.000000000000000082E-05 ), #428, 'distance_accuracy_value', 'NONE');
#464 =( NAMED_UNIT ( * ) PLANE_ANGLE_UNIT ( ) SI_UNIT ( $, .RADIAN. ) );
#465 = ORIENTED_EDGE ( 'NONE', *, *, #521, .F. ) ;
#466 = DIRECTION ( 'NONE',  ( 0.0000000000000000000, -1.000000000000000000, 0.0000000000000000000 ) ) ;
#467 = PRESENTATION_LAYER_ASSIGNMENT (  '', '', ( #12 ) ) ;
#468 = CIRCLE ( 'NONE', #545, 0.01181102362204724740 ) ;
#469 = SURFACE_STYLE_USAGE ( .BOTH. , #608 ) ;
#470 = UNCERTAINTY_MEASURE_WITH_UNIT (LENGTH_MEASURE( 1.000000000000000082E-05 ), #218, 'distance_accuracy_value', 'NONE');
#471 =( LENGTH_UNIT ( ) NAMED_UNIT ( * ) SI_UNIT ( $, .METRE. ) );
#472 = ADVANCED_FACE ( 'NONE', ( #418, #424 ), #328, .T. ) ;
#473 = DIRECTION ( 'NONE',  ( 0.0000000000000000000, 0.0000000000000000000, 1.000000000000000000 ) ) ;
#474 =( CONVERSION_BASED_UNIT ( 'INCH', #419 ) LENGTH_UNIT ( ) NAMED_UNIT ( #375 ) );
#475 = DIRECTION ( 'NONE',  ( 0.0000000000000000000, 0.0000000000000000000, -1.000000000000000000 ) ) ;
#476 = CARTESIAN_POINT ( 'NONE',  ( 0.0000000000000000000, 0.1968503937007874127, 0.0000000000000000000 ) ) ;
#477 =( LENGTH_UNIT ( ) NAMED_UNIT ( * ) SI_UNIT ( $, .METRE. ) );
#478 = COLOUR_RGB ( '',1.000000000000000000, 1.000000000000000000, 1.000000000000000000 ) ;
#479 = EDGE_CURVE ( 'NONE', #221, #265, #244, .T. ) ;
#480 = CIRCLE ( 'NONE', #204, 0.02401574803149606266 ) ;
#481 = DIRECTION ( 'NONE',  ( 0.0000000000000000000, 0.0000000000000000000, -1.000000000000000000 ) ) ;
#482 = DIRECTION ( 'NONE',  ( 0.0000000000000000000, -1.000000000000000000, 0.0000000000000000000 ) ) ;
#483 = SURFACE_STYLE_FILL_AREA ( #98 ) ;
#484 =( NAMED_UNIT ( * ) PLANE_ANGLE_UNIT ( ) SI_UNIT ( $, .RADIAN. ) );
#485 = MECHANICAL_DESIGN_GEOMETRIC_PRESENTATION_REPRESENTATION (  '', ( #360 ), #214 ) ;
#486 = VECTOR ( 'NONE', #110, 39.37007874015748143 ) ;
#487 = PRODUCT_DEFINITION_CONTEXT ( 'detailed design', #399, 'design' ) ;
#488 = AXIS2_PLACEMENT_3D ( 'NONE', #251, #443, #16 ) ;
#489 = LENGTH_MEASURE_WITH_UNIT ( LENGTH_MEASURE( 0.02539999999999999897 ), #195 );
#490 =( NAMED_UNIT ( * ) SI_UNIT ( $, .STERADIAN. ) SOLID_ANGLE_UNIT ( ) );
#491 = VERTEX_POINT ( 'NONE', #494 ) ;
#492 = SURFACE_STYLE_FILL_AREA ( #389 ) ;
#493 = ORIENTED_EDGE ( 'NONE', *, *, #8, .F. ) ;
#494 = CARTESIAN_POINT ( 'NONE',  ( 0.0000000000000000000, 0.0000000000000000000, -0.1889763779527559029 ) ) ;
#495 = SURFACE_STYLE_USAGE ( .BOTH. , #162 ) ;
#496 = STYLED_ITEM ( 'NONE', ( #335 ), #216 ) ;
#497 = COLOUR_RGB ( '',0.2509803921568627416, 0.2509803921568627416, 0.2509803921568627416 ) ;
#498 = SURFACE_SIDE_STYLE ('',( #208 ) ) ;
#499 = DIRECTION ( 'NONE',  ( 0.0000000000000000000, 0.0000000000000000000, 1.000000000000000000 ) ) ;
#500 = EDGE_LOOP ( 'NONE', ( #334, #291, #196, #411 ) ) ;
#501 = SURFACE_STYLE_FILL_AREA ( #346 ) ;
#502 = PLANE ( 'NONE',  #536 ) ;
#503 = CARTESIAN_POINT ( 'NONE',  ( 0.0000000000000000000, 0.1673228346456692994, 0.0000000000000000000 ) ) ;
#504 = ORIENTED_EDGE ( 'NONE', *, *, #152, .F. ) ;
#505 = DIMENSIONAL_EXPONENTS ( 1.000000000000000000, 0.0000000000000000000, 0.0000000000000000000, 0.0000000000000000000, 0.0000000000000000000, 0.0000000000000000000, 0.0000000000000000000 ) ;
#506 = PRODUCT_CONTEXT ( 'NONE', #452, 'mechanical' ) ;
#507 = DIRECTION ( 'NONE',  ( 0.0000000000000000000, 1.000000000000000000, 0.0000000000000000000 ) ) ;
#508 = ORIENTED_EDGE ( 'NONE', *, *, #258, .F. ) ;
#509 = UNCERTAINTY_MEASURE_WITH_UNIT (LENGTH_MEASURE( 1.000000000000000082E-05 ), #371, 'distance_accuracy_value', 'NONE');
#510 = STYLED_ITEM ( 'NONE', ( #601 ), #132 ) ;
#511 = CARTESIAN_POINT ( 'NONE',  ( -0.09842519685039366473, -0.2165354330708661457, -0.01181102362204727169 ) ) ;
#512 = AXIS2_PLACEMENT_3D ( 'NONE', #134, #41, #481 ) ;
#513 =( GEOMETRIC_REPRESENTATION_CONTEXT ( 3 ) GLOBAL_UNCERTAINTY_ASSIGNED_CONTEXT ( ( #470 ) ) GLOBAL_UNIT_ASSIGNED_CONTEXT ( ( #218, #444, #599 ) ) REPRESENTATION_CONTEXT ( 'NONE', 'WORKASPACE' ) );
#514 = LENGTH_MEASURE_WITH_UNIT ( LENGTH_MEASURE( 0.02539999999999999897 ), #405 );
#515 = ORIENTED_EDGE ( 'NONE', *, *, #560, .F. ) ;
#516 =( NAMED_UNIT ( * ) SI_UNIT ( $, .STERADIAN. ) SOLID_ANGLE_UNIT ( ) );
#517 =( LENGTH_UNIT ( ) NAMED_UNIT ( * ) SI_UNIT ( $, .METRE. ) );
#518 = VERTEX_POINT ( 'NONE', #394 ) ;
#519 = UNCERTAINTY_MEASURE_WITH_UNIT (LENGTH_MEASURE( 1.000000000000000082E-05 ), #353, 'distance_accuracy_value', 'NONE');
#520 = DIRECTION ( 'NONE',  ( -0.0000000000000000000, -1.000000000000000000, -0.0000000000000000000 ) ) ;
#521 = EDGE_CURVE ( 'NONE', #268, #354, #480, .T. ) ;
#522 = DIRECTION ( 'NONE',  ( 0.0000000000000000000, 1.000000000000000000, 0.0000000000000000000 ) ) ;
#523 = PRESENTATION_LAYER_ASSIGNMENT (  '', '', ( #48 ) ) ;
#524 = AXIS2_PLACEMENT_3D ( 'NONE', #621, #448, #151 ) ;
#525 = DIRECTION ( 'NONE',  ( 0.0000000000000000000, 1.000000000000000000, 0.0000000000000000000 ) ) ;
#526 = FILL_AREA_STYLE_COLOUR ( '', #615 ) ;
#527 = FACE_OUTER_BOUND ( 'NONE', #500, .T. ) ;
#528 = AXIS2_PLACEMENT_3D ( 'NONE', #427, #525, #423 ) ;
#529 = AXIS2_PLACEMENT_3D ( 'NONE', #188, #522, #368 ) ;
#530 = VECTOR ( 'NONE', #133, 39.37007874015748143 ) ;
#531 = FILL_AREA_STYLE_COLOUR ( '', #347 ) ;
#532 = CARTESIAN_POINT ( 'NONE',  ( 0.09842519685039373412, -0.2165354330708661457, -0.01181102362204724740 ) ) ;
#533 = ORIENTED_EDGE ( 'NONE', *, *, #152, .T. ) ;
#534 = DIMENSIONAL_EXPONENTS ( 1.000000000000000000, 0.0000000000000000000, 0.0000000000000000000, 0.0000000000000000000, 0.0000000000000000000, 0.0000000000000000000, 0.0000000000000000000 ) ;
#535 = CIRCLE ( 'NONE', #321, 0.01181102362204726648 ) ;
#536 = AXIS2_PLACEMENT_3D ( 'NONE', #259, #453, #376 ) ;
#537 = DIRECTION ( 'NONE',  ( 0.0000000000000000000, 1.000000000000000000, 0.0000000000000000000 ) ) ;
#538 = ORIENTED_EDGE ( 'NONE', *, *, #313, .F. ) ;
#539 = PRODUCT ( 'CUI_DEVICES_CX-0905C', 'CUI_DEVICES_CX-0905C', '', ( #506 ) ) ;
#540 =( NAMED_UNIT ( * ) PLANE_ANGLE_UNIT ( ) SI_UNIT ( $, .RADIAN. ) );
#541 = FACE_OUTER_BOUND ( 'NONE', #552, .T. ) ;
#542 = EDGE_LOOP ( 'NONE', ( #250, #77, #253, #35 ) ) ;
#543 = FACE_BOUND ( 'NONE', #200, .T. ) ;
#544 = PRESENTATION_STYLE_ASSIGNMENT (( #495 ) ) ;
#545 = AXIS2_PLACEMENT_3D ( 'NONE', #614, #43, #237 ) ;
#546 = ORIENTED_EDGE ( 'NONE', *, *, #521, .T. ) ;
#547 = PRESENTATION_LAYER_ASSIGNMENT (  '', '', ( #617 ) ) ;
#548 =( NAMED_UNIT ( * ) PLANE_ANGLE_UNIT ( ) SI_UNIT ( $, .RADIAN. ) );
#549 = EDGE_LOOP ( 'NONE', ( #546, #609 ) ) ;
#550 = SURFACE_STYLE_USAGE ( .BOTH. , #305 ) ;
#551 = LENGTH_MEASURE_WITH_UNIT ( LENGTH_MEASURE( 0.02539999999999999897 ), #517 );
#552 = EDGE_LOOP ( 'NONE', ( #538, #445, #596, #311 ) ) ;
#553 = CARTESIAN_POINT ( 'NONE',  ( -0.09842519685039366473, -0.1377952755905511584, -2.410722045565656070E-17 ) ) ;
#554 = COLOUR_RGB ( '',1.000000000000000000, 1.000000000000000000, 1.000000000000000000 ) ;
#555 = PRESENTATION_LAYER_ASSIGNMENT (  '', '', ( #330 ) ) ;
#556 = PRESENTATION_STYLE_ASSIGNMENT (( #320 ) ) ;
#557 = STYLED_ITEM ( 'NONE', ( #561 ), #446 ) ;
#558 =( LENGTH_UNIT ( ) NAMED_UNIT ( * ) SI_UNIT ( $, .METRE. ) );
#559 = VERTEX_POINT ( 'NONE', #57 ) ;
#560 = EDGE_CURVE ( 'NONE', #61, #491, #301, .T. ) ;
#561 = PRESENTATION_STYLE_ASSIGNMENT (( #469 ) ) ;
#562 = SURFACE_STYLE_USAGE ( .BOTH. , #365 ) ;
#563 =( NAMED_UNIT ( * ) SI_UNIT ( $, .STERADIAN. ) SOLID_ANGLE_UNIT ( ) );
#564 =( CONVERSION_BASED_UNIT ( 'INCH', #551 ) LENGTH_UNIT ( ) NAMED_UNIT ( #534 ) );
#565 = SURFACE_STYLE_FILL_AREA ( #180 ) ;
#566 = SURFACE_SIDE_STYLE ('',( #40 ) ) ;
#567 = AXIS2_PLACEMENT_3D ( 'NONE', #591, #603, #499 ) ;
#568 = PRESENTATION_LAYER_ASSIGNMENT (  '', '', ( #84 ) ) ;
#569 = SURFACE_STYLE_FILL_AREA ( #367 ) ;
#570 = CARTESIAN_POINT ( 'NONE',  ( 0.0000000000000000000, 0.1673228346456692994, 0.0000000000000000000 ) ) ;
#571 = EDGE_CURVE ( 'NONE', #440, #391, #130, .T. ) ;
#572 =( NAMED_UNIT ( * ) SI_UNIT ( $, .STERADIAN. ) SOLID_ANGLE_UNIT ( ) );
#573 = DIRECTION ( 'NONE',  ( 0.0000000000000000000, 0.0000000000000000000, 1.000000000000000000 ) ) ;
#574 = DIMENSIONAL_EXPONENTS ( 1.000000000000000000, 0.0000000000000000000, 0.0000000000000000000, 0.0000000000000000000, 0.0000000000000000000, 0.0000000000000000000, 0.0000000000000000000 ) ;
#575 = MECHANICAL_DESIGN_GEOMETRIC_PRESENTATION_REPRESENTATION (  '', ( #379 ), #128 ) ;
#576 = PRESENTATION_LAYER_ASSIGNMENT (  '', '', ( #307 ) ) ;
#577 = PRESENTATION_STYLE_ASSIGNMENT (( #107 ) ) ;
#578 = SURFACE_STYLE_USAGE ( .BOTH. , #141 ) ;
#579 = EDGE_CURVE ( 'NONE', #559, #25, #217, .T. ) ;
#580 = ORIENTED_EDGE ( 'NONE', *, *, #207, .F. ) ;
#581 = MECHANICAL_DESIGN_GEOMETRIC_PRESENTATION_REPRESENTATION (  '', ( #496 ), #184 ) ;
#582 = AXIS2_PLACEMENT_3D ( 'NONE', #363, #274, #473 ) ;
#583 = UNCERTAINTY_MEASURE_WITH_UNIT (LENGTH_MEASURE( 1.000000000000000082E-05 ), #474, 'distance_accuracy_value', 'NONE');
#584 = ADVANCED_FACE ( 'NONE', ( #190, #543, #155 ), #502, .F. ) ;
#585 = SURFACE_STYLE_USAGE ( .BOTH. , #142 ) ;
#586 =( CONVERSION_BASED_UNIT ( 'INCH', #340 ) LENGTH_UNIT ( ) NAMED_UNIT ( #505 ) );
#587 = CARTESIAN_POINT ( 'NONE',  ( 0.09842519685039373412, -0.2165354330708661457, 0.0000000000000000000 ) ) ;
#588 = ORIENTED_EDGE ( 'NONE', *, *, #607, .F. ) ;
#589 = DIMENSIONAL_EXPONENTS ( 1.000000000000000000, 0.0000000000000000000, 0.0000000000000000000, 0.0000000000000000000, 0.0000000000000000000, 0.0000000000000000000, 0.0000000000000000000 ) ;
#590 = DIRECTION ( 'NONE',  ( -0.0000000000000000000, -1.000000000000000000, -0.0000000000000000000 ) ) ;
#591 = CARTESIAN_POINT ( 'NONE',  ( 0.0000000000000000000, 0.1673228346456692994, 0.0000000000000000000 ) ) ;
#592 = DIRECTION ( 'NONE',  ( 0.0000000000000000000, 0.0000000000000000000, 1.000000000000000000 ) ) ;
#593 = AXIS2_PLACEMENT_3D ( 'NONE', #503, #68, #344 ) ;
#594 = EDGE_LOOP ( 'NONE', ( #295, #508 ) ) ;
#595 = PRESENTATION_LAYER_ASSIGNMENT (  '', '', ( #557 ) ) ;
#596 = ORIENTED_EDGE ( 'NONE', *, *, #479, .T. ) ;
#597 = DIRECTION ( 'NONE',  ( 0.0000000000000000000, 0.0000000000000000000, 1.000000000000000000 ) ) ;
#598 = PRODUCT_DEFINITION_SHAPE ( 'NONE', 'NONE',  #248 ) ;
#599 =( NAMED_UNIT ( * ) SI_UNIT ( $, .STERADIAN. ) SOLID_ANGLE_UNIT ( ) );
#600 = EDGE_LOOP ( 'NONE', ( #588, #404, #432, #206 ) ) ;
#601 = PRESENTATION_STYLE_ASSIGNMENT (( #550 ) ) ;
#602 = SURFACE_STYLE_FILL_AREA ( #610 ) ;
#603 = DIRECTION ( 'NONE',  ( 0.0000000000000000000, 1.000000000000000000, 0.0000000000000000000 ) ) ;
#604 = EDGE_LOOP ( 'NONE', ( #32, #303 ) ) ;
#605 = CLOSED_SHELL ( 'NONE', ( #406, #378, #216, #132, #76, #232, #46, #446, #472, #584, #139, #179, #31 ) ) ;
#606 = UNCERTAINTY_MEASURE_WITH_UNIT (LENGTH_MEASURE( 1.000000000000000082E-05 ), #240, 'distance_accuracy_value', 'NONE');
#607 = EDGE_CURVE ( 'NONE', #241, #559, #426, .T. ) ;
#608 = SURFACE_SIDE_STYLE ('',( #569 ) ) ;
#609 = ORIENTED_EDGE ( 'NONE', *, *, #313, .T. ) ;
#610 = FILL_AREA_STYLE ('',( #366 ) ) ;
#611 = FILL_AREA_STYLE_COLOUR ( '', #14 ) ;
#612 =( NAMED_UNIT ( * ) PLANE_ANGLE_UNIT ( ) SI_UNIT ( $, .RADIAN. ) );
#613 = PRODUCT_RELATED_PRODUCT_CATEGORY ( 'part', '', ( #539 ) ) ;
#614 = CARTESIAN_POINT ( 'NONE',  ( 0.09842519685039373412, 0.0000000000000000000, 0.0000000000000000000 ) ) ;
#615 = COLOUR_RGB ( '',0.2509803921568627416, 0.2509803921568627416, 0.2509803921568627416 ) ;
#616 = AXIS2_PLACEMENT_3D ( 'NONE', #417, #377, #230 ) ;
#617 = STYLED_ITEM ( 'NONE', ( #323 ), #472 ) ;
#618 =( GEOMETRIC_REPRESENTATION_CONTEXT ( 3 ) GLOBAL_UNCERTAINTY_ASSIGNED_CONTEXT ( ( #382 ) ) GLOBAL_UNIT_ASSIGNED_CONTEXT ( ( #564, #27, #224 ) ) REPRESENTATION_CONTEXT ( 'NONE', 'WORKASPACE' ) );
#619 =( NAMED_UNIT ( * ) SI_UNIT ( $, .STERADIAN. ) SOLID_ANGLE_UNIT ( ) );
#620 =( NAMED_UNIT ( * ) SI_UNIT ( $, .STERADIAN. ) SOLID_ANGLE_UNIT ( ) );
#621 = CARTESIAN_POINT ( 'NONE',  ( 0.0000000000000000000, 0.1968503937007874127, 0.0000000000000000000 ) ) ;
#622 = SURFACE_SIDE_STYLE ('',( #373 ) ) ;
#623 = FACE_OUTER_BOUND ( 'NONE', #407, .T. ) ;
ENDSEC;
END-ISO-10303-21;
