#VRML V2.0 utf8
# 3D model generated by easyeda2kicad.py (https://github.com/uPesy/easyeda2kicad.py)

Shape{
    appearance Appearance {
        material  Material 	{
            diffuseColor 0.6666666666666666 0.6666666666666666 0.6666666666666666
            specularColor 0.4666666666666667 0.4666666666666667 0.4666666666666667
            ambientIntensity 0.6667
            transparency 0.0
            shininess 0.5
        }
    }
    geometry IndexedFaceSet {
        ccw TRUE
        solid FALSE
        coord DEF co Coordinate {
            point [
                0.7087 1.9685 0.0, 0.7087 -1.9685 0.0, 0.7087 1.9685 0.0039, 0.7087 -1.9685 0.0039, 1.9685 1.9685 0.0, 1.9685 1.9685 0.0039, 1.9773 1.9675 0.0039, 1.9773 1.9675 0.0, 1.9856 1.9646 0.0039, 1.9856 1.9646 0.0, 1.9931 1.9599 0.0039, 1.9931 1.9599 0.0, 1.9993 1.9537 0.0039, 1.9993 1.9537 0.0, 2.004 1.9462 0.0039, 2.004 1.9462 0.0, 2.0069 1.9379 0.0039, 2.0069 1.9379 0.0, 2.0079 1.9291 0.0039, 2.0079 1.9291 0.0, 2.0079 -1.9291 0.0, 2.0079 -1.9291 0.0039, 2.0069 -1.9379 0.0039, 2.0069 -1.9379 0.0, 2.004 -1.9462 0.0039, 2.004 -1.9462 0.0, 1.9993 -1.9537 0.0039, 1.9993 -1.9537 0.0, 1.9931 -1.9599 0.0039, 1.9931 -1.9599 0.0, 1.9856 -1.9646 0.0039, 1.9856 -1.9646 0.0, 1.9773 -1.9675 0.0039, 1.9773 -1.9675 0.0, 1.9685 -1.9685 0.0039, 1.9685 -1.9685 0.0, -0.7087 -1.9685 0.0, -0.7087 1.9685 0.0, -0.7087 -1.9685 0.0039, -0.7087 1.9685 0.0039, -1.9685 1.9685 0.0, -1.9685 1.9685 0.0039, -2.0079 1.9291 0.0, -2.0079 1.9291 0.0039, -2.0069 1.9379 0.0039, -2.0069 1.9379 0.0, -2.004 1.9462 0.0039, -2.004 1.9462 0.0, -1.9993 1.9537 0.0039, -1.9993 1.9537 0.0, -1.9931 1.9599 0.0039, -1.9931 1.9599 0.0, -1.9856 1.9646 0.0039, -1.9856 1.9646 0.0, -1.9773 1.9675 0.0039, -1.9773 1.9675 0.0, -2.0079 -1.9291 0.0, -2.0079 -1.9291 0.0039, -1.9685 -1.9685 0.0, -1.9685 -1.9685 0.0039, -1.9773 -1.9675 0.0039, -1.9773 -1.9675 0.0, -1.9856 -1.9646 0.0039, -1.9856 -1.9646 0.0, -1.9931 -1.9599 0.0039, -1.9931 -1.9599 0.0, -1.9993 -1.9537 0.0039, -1.9993 -1.9537 0.0, -2.004 -1.9462 0.0039, -2.004 -1.9462 0.0, -2.0069 -1.9379 0.0039, -2.0069 -1.9379 0.0
            ]
        }
        coordIndex [
            0,1,2,-1,2,1,3,-1,4,0,5,-1,5,0,2,-1,4,5,6,-1,4,6,7,-1,7,6,8,-1,7,8,9,-1,9,8,10,-1,9,10,11,-1,11,10,12,-1,11,12,13,-1,13,12,14,-1,13,14,15,-1,15,14,16,-1,15,16,17,-1,17,16,18,-1,17,18,19,-1,20,19,21,-1,21,19,18,-1,20,21,22,-1,20,22,23,-1,23,22,24,-1,23,24,25,-1,25,24,26,-1,25,26,27,-1,27,26,28,-1,27,28,29,-1,29,28,30,-1,29,30,31,-1,31,30,32,-1,31,32,33,-1,33,32,34,-1,33,34,35,-1,1,35,3,-1,3,35,34,-1,33,35,25,-1,1,0,35,-1,35,0,4,-1,17,19,4,-1,25,35,23,-1,4,19,35,-1,35,19,20,-1,35,20,23,-1,33,25,31,-1,31,25,27,-1,31,27,29,-1,4,7,17,-1,17,7,9,-1,17,9,15,-1,15,9,11,-1,15,11,13,-1,2,3,5,-1,5,3,34,-1,24,34,32,-1,8,18,16,-1,24,22,34,-1,34,22,21,-1,34,21,5,-1,5,21,18,-1,5,18,6,-1,6,18,8,-1,32,30,24,-1,24,30,28,-1,24,28,26,-1,16,14,8,-1,8,14,12,-1,8,12,10,-1,36,37,38,-1,38,37,39,-1,37,40,39,-1,39,40,41,-1,42,43,44,-1,42,44,45,-1,45,44,46,-1,45,46,47,-1,47,46,48,-1,47,48,49,-1,49,48,50,-1,49,50,51,-1,51,50,52,-1,51,52,53,-1,53,52,54,-1,53,54,55,-1,55,54,41,-1,55,41,40,-1,42,56,43,-1,43,56,57,-1,58,59,60,-1,58,60,61,-1,61,60,62,-1,61,62,63,-1,63,62,64,-1,63,64,65,-1,65,64,66,-1,65,66,67,-1,67,66,68,-1,67,68,69,-1,69,68,70,-1,69,70,71,-1,71,70,57,-1,71,57,56,-1,58,36,59,-1,59,36,38,-1,37,36,40,-1,40,36,58,-1,53,42,45,-1,69,58,61,-1,53,55,42,-1,42,55,40,-1,42,40,56,-1,56,40,58,-1,56,58,71,-1,71,58,69,-1,45,47,53,-1,53,47,49,-1,53,49,51,-1,61,63,69,-1,69,63,65,-1,69,65,67,-1,60,59,68,-1,38,39,59,-1,59,39,41,-1,44,43,41,-1,68,59,70,-1,41,43,59,-1,59,43,57,-1,59,57,70,-1,60,68,62,-1,62,68,66,-1,62,66,64,-1,41,54,44,-1,44,54,52,-1,44,52,46,-1,46,52,50,-1,46,50,48,-1,
        ]
    }
}
Shape{
    appearance Appearance {
        material  Material 	{
            diffuseColor 0.34901960784313724 0.34901960784313724 0.34901960784313724
            specularColor 0.023529411764705882 0.023529411764705882 0.023529411764705882
            ambientIntensity 0.498
            transparency 0.0
            shininess 0.5
        }
    }
    geometry IndexedFaceSet {
        ccw TRUE
        solid FALSE
        coord DEF co Coordinate {
            point [
                1.3987 -1.5223 1.1811, 1.3987 -1.5793 1.1811, 1.4243 -1.5793 1.1811, 1.5889 -1.6061 1.1811, 1.6093 -1.6061 1.1811, 1.6093 -1.5872 1.1811, 1.8488 -1.9291 1.1811, 1.9685 -1.9291 1.1811, 1.9685 -1.7148 1.1811, 1.5002 -1.689 1.1811, 1.4976 -1.6893 1.1811, 1.5137 -1.6893 1.1811, 1.6695 -1.5872 1.1811, 1.6486 -1.5867 1.1811, 1.6394 -1.5867 1.1811, 1.6241 -1.5223 1.1811, 1.6695 -1.5218 1.1811, 1.6093 -1.5218 1.1811, 1.5999 -1.5867 1.1811, 1.5907 -1.5867 1.1811, 1.5889 -1.5872 1.1811, 1.6093 -1.5691 1.1811, 1.6061 -1.5691 1.1811, 1.5889 -1.5218 1.1811, 1.6093 -1.538 1.1811, 1.6152 -1.5223 1.1811, 1.4365 -1.5472 1.1811, 1.4724 -1.5773 1.1811, 1.4385 -1.5415 1.1811, 1.4415 -1.5369 1.1811, 1.4357 -1.5552 1.1811, 1.4357 -1.5558 1.1811, 1.4689 -1.5788 1.1811, 1.4616 -1.5802 1.1811, 1.4571 -1.5289 1.1811, 1.4515 -1.53 1.1811, 1.4724 -1.5314 1.1811, 1.4675 -1.5296 1.1811, 1.4599 -1.5287 1.1811, 1.4465 -1.5324 1.1811, 1.4424 -1.5359 1.1811, 1.4367 -1.5637 1.1811, 1.4387 -1.569 1.1811, 1.442 -1.5736 1.1811, 1.4478 -1.578 1.1811, 1.4525 -1.5797 1.1811, 1.4585 -1.5803 1.1811, 1.4435 -1.5751 1.1811, 1.474 -1.532 1.1811, 1.4751 -1.576 1.1811, 1.4751 -1.5325 1.1811, 1.4843 -1.5872 1.1811, 1.4843 -1.5218 1.1811, 1.4665 -1.5218 1.1811, 1.4688 -1.522 1.1811, 1.4724 -1.5218 1.1811, 1.4724 -1.523 1.1811, 1.4751 -1.5239 1.1811, 1.4605 -1.5212 1.1811, 1.4724 1.9291 1.1811, 1.4599 -1.5212 1.1811, 1.4298 1.9291 1.1811, 1.4547 -1.5218 1.1811, 1.4298 -1.5218 1.1811, 1.4448 -1.5245 1.1811, 1.4517 -1.5221 1.1811, 1.4318 -1.5364 1.1811, 1.4362 -1.5307 1.1811, 1.4384 -1.5287 1.1811, 1.426 -1.5218 1.1811, 1.4286 -1.5435 1.1811, 1.4298 -1.5409 1.1811, 1.4298 -1.5703 1.1811, 1.4282 -1.566 1.1811, 1.426 -1.5872 1.1811, 1.4269 -1.5557 1.1811, 1.4271 -1.5518 1.1811, 1.4465 -1.5861 1.1811, 1.4404 -1.5833 1.1811, 1.4298 -1.5872 1.1811, 1.4352 -1.579 1.1811, 1.4346 -1.5783 1.1811, 1.4307 -1.5728 1.1811, 1.4517 -1.5872 1.1811, 1.4298 -1.6061 1.1811, 1.4535 -1.5876 1.1811, 1.4573 -1.5877 1.1811, 1.4724 -1.6061 1.1811, 1.463 -1.5872 1.1811, 1.4751 -1.584 1.1811, 1.474 -1.5845 1.1811, 1.4724 -1.5872 1.1811, 1.4724 -1.5851 1.1811, 1.4671 -1.5868 1.1811, 1.5287 -1.654 1.1811, 1.5368 -1.6773 1.1811, 1.539 -1.6774 1.1811, 1.5287 -1.6061 1.1811, 1.5515 -1.6428 1.1811, 1.5599 -1.6428 1.1811, 1.5378 -1.6811 1.1811, 1.538 -1.6811 1.1811, 1.5384 -1.6795 1.1811, 1.5248 -1.6428 1.1811, 1.5158 -1.6428 1.1811, 1.5335 -1.6893 1.1811, 1.5338 -1.6886 1.1811, 1.5287 -1.6756 1.1811, 1.5303 -1.697 1.1811, 1.5287 -1.6893 1.1811, 1.5287 -1.6999 1.1811, 1.5287 -1.6999 1.1811, 1.5137 -1.7148 1.1811, 1.5174 -1.7097 1.1811, 1.5174 -1.7026 1.1811, 1.522 -1.7035 1.1811, 1.5239 -1.7033 1.1811, 1.5287 -1.7089 1.1811, 1.5259 -1.71 1.1811, 1.5287 -1.7148 1.1811, 1.5226 -1.7104 1.1811, 1.5209 -1.7103 1.1811, 1.5257 -1.7026 1.1811, 1.5272 -1.7016 1.1811, 1.539 -1.6957 1.1811, 1.5354 -1.7028 1.1811, 1.5889 -1.7148 1.1811, 1.5416 -1.6893 1.1811, 1.5324 -1.7063 1.1811, 1.5319 -1.7068 1.1811, 1.5291 -1.7088 1.1811, 1.5089 -1.6686 1.1811, 1.5104 -1.6709 1.1811, 1.5094 -1.6516 1.1811, 1.4881 -1.644 1.1811, 1.4843 -1.6061 1.1811, 1.4858 -1.6454 1.1811, 1.4843 -1.6467 1.1811, 1.5112 -1.6732 1.1811, 1.5116 -1.6762 1.1811, 1.5112 -1.6795 1.1811, 1.5102 -1.682 1.1811, 1.5087 -1.6842 1.1811, 1.4925 -1.6424 1.1811, 1.4985 -1.6417 1.1811, 1.5137 -1.6061 1.1811, 1.5094 -1.6438 1.1811, 1.5031 -1.642 1.1811, 1.5064 -1.6862 1.1811, 1.5045 -1.6874 1.1811, 1.4977 -1.6483 1.1811, 1.4953 -1.6485 1.1811, 1.4889 -1.6545 1.1811, 1.4932 -1.649 1.1811, 1.4913 -1.65 1.1811, 1.489 -1.6555 1.1811, 1.4893 -1.6568 1.1811, 1.4899 -1.6579 1.1811, 1.4907 -1.6587 1.1811, 1.4935 -1.6605 1.1811, 1.503 -1.6489 1.1811, 1.4985 -1.6627 1.1811, 1.5075 -1.6505 1.1811, 1.5016 -1.6639 1.1811, 1.507 -1.6669 1.1811, 1.4901 -1.6511 1.1811, 1.4894 -1.6521 1.1811, 1.489 -1.6532 1.1811, 1.4805 -1.6788 1.1811, 1.4724 -1.6893 1.1811, 1.4834 -1.6475 1.1811, 1.4819 -1.6497 1.1811, 1.4837 -1.6807 1.1811, 1.4843 -1.681 1.1811, 1.4843 -1.6639 1.1811, 1.4829 -1.6625 1.1811, 1.4818 -1.6608 1.1811, 1.4809 -1.6583 1.1811, 1.4806 -1.6552 1.1811, 1.4809 -1.6523 1.1811, 1.4842 -1.6638 1.1811, 1.4887 -1.6827 1.1811, 1.4928 -1.6685 1.1811, 1.488 -1.6663 1.1811, 1.4938 -1.6832 1.1811, 1.4942 -1.6832 1.1811, 1.4981 -1.6708 1.1811, 1.4983 -1.6828 1.1811, 1.5033 -1.677 1.1811, 1.5032 -1.676 1.1811, 1.5004 -1.682 1.1811, 1.5011 -1.6816 1.1811, 1.502 -1.6807 1.1811, 1.5027 -1.6797 1.1811, 1.5031 -1.6786 1.1811, 1.5029 -1.6748 1.1811, 1.5022 -1.6737 1.1811, 1.5012 -1.6726 1.1811, 1.4877 -1.6893 1.1811, 1.4863 -1.6891 1.1811, 1.4843 -1.6893 1.1811, 1.4843 -1.6884 1.1811, 1.4805 -1.6871 1.1811, 1.493 -1.6898 1.1811, 1.4843 -1.7148 1.1811, 1.5191 -1.7031 1.1811, 1.4359 -1.6668 1.1811, 1.4372 -1.6538 1.1811, 1.4343 -1.6691 1.1811, 1.4332 -1.672 1.1811, 1.4298 -1.6893 1.1811, 1.4341 -1.6828 1.1811, 1.4331 -1.6801 1.1811, 1.455 -1.6486 1.1811, 1.4522 -1.6483 1.1811, 1.4479 -1.6614 1.1811, 1.4578 -1.6422 1.1811, 1.4612 -1.6432 1.1811, 1.4639 -1.6447 1.1811, 1.4661 -1.6467 1.1811, 1.4677 -1.6493 1.1811, 1.4384 -1.6647 1.1811, 1.4418 -1.6629 1.1811, 1.4429 -1.6503 1.1811, 1.448 -1.6487 1.1811, 1.4394 -1.6881 1.1811, 1.4366 -1.6862 1.1811, 1.4357 -1.6853 1.1811, 1.4616 -1.6816 1.1811, 1.4613 -1.6816 1.1811, 1.4616 -1.6887 1.1811, 1.4601 -1.6835 1.1811, 1.4575 -1.6863 1.1811, 1.4327 -1.6764 1.1811, 1.4327 -1.6755 1.1811, 1.4372 -1.646 1.1811, 1.4393 -1.6448 1.1811, 1.4454 -1.6426 1.1811, 1.453 -1.6417 1.1811, 1.469 -1.653 1.1811, 1.4696 -1.6592 1.1811, 1.4696 -1.6887 1.1811, 1.4616 -1.6595 1.1811, 1.4613 -1.656 1.1811, 1.4604 -1.6531 1.1811, 1.4595 -1.6514 1.1811, 1.4583 -1.6501 1.1811, 1.4568 -1.6492 1.1811, 1.4516 -1.6893 1.1811, 1.4514 -1.6894 1.1811, 1.4724 -1.7148 1.1811, 1.4298 -1.7148 1.1811, 1.4473 -1.6898 1.1811, 1.4426 -1.6893 1.1811, 1.4424 -1.6893 1.1811, 1.3082 -1.5725 1.1811, 1.3206 -1.583 1.1811, 1.364 -1.5218 1.1811, 1.364 -1.5872 1.1811, 1.2473 -1.5151 1.1811, 1.2572 -1.5218 1.1811, 1.2677 -1.5288 1.1811, 1.2828 -1.5464 1.1811, 1.2924 -1.565 1.1811, 1.2946 -1.5657 1.1811, 1.2243 -1.507 1.1811, 1.364 1.9291 1.1811, 1.2055 -1.505 1.1811, 1.1828 -1.5078 1.1811, 1.1617 -1.516 1.1811, -1.9685 1.9291 1.1811, 1.1524 -1.5218 1.1811, -1.9685 -1.5218 1.1811, 1.1506 -1.5229 1.1811, 1.0673 -1.5641 1.1811, 1.0704 -1.5612 1.1811, 1.0849 -1.5509 1.1811, 1.1019 -1.5443 1.1811, 1.1199 -1.5421 1.1811, 1.1398 -1.5321 1.1811, 1.1252 -1.5424 1.1811, 1.1304 -1.543 1.1811, -1.9685 -1.5872 1.1811, -1.9685 -1.6061 1.1811, 1.047 -1.6061 1.1811, 1.049 -1.5947 1.1811, 1.0523 -1.5872 1.1811, 1.0563 -1.5782 1.1811, 1.0793 -1.6782 1.1811, 1.065 -1.6661 1.1811, -1.9685 -1.6893 1.1811, 1.0546 -1.6512 1.1811, 1.0958 -1.6863 1.1811, 1.1022 -1.6893 1.1811, 1.1016 -1.688 1.1811, 1.048 -1.6342 1.1811, 1.0458 -1.6162 1.1811, 1.0459 -1.6119 1.1811, 1.122 -1.713 1.1811, 1.113 -1.7063 1.1811, 1.1062 -1.6979 1.1811, 1.364 -1.7148 1.1811, 1.164 -1.7148 1.1811, 1.364 -1.9291 1.1811, 1.1562 -1.7178 1.1811, 1.1451 -1.7192 1.1811, 1.1433 -1.7191 1.1811, 1.1325 -1.7174 1.1811, 1.1261 -1.7148 1.1811, -1.9685 -1.7148 1.1811, -1.9685 -1.9291 1.1811, 1.364 -1.6893 1.1811, 1.1879 -1.6893 1.1811, 1.1879 -1.6896 1.1811, 1.1824 -1.6997 1.1811, 1.1755 -1.7075 1.1811, 1.1664 -1.7139 1.1811, 1.3356 -1.6099 1.1811, 1.3377 -1.6249 1.1811, 1.364 -1.6061 1.1811, 1.2464 -1.6623 1.1811, 1.2495 -1.661 1.1811, 1.2549 -1.635 1.1811, 1.3207 -1.6684 1.1811, 1.3083 -1.6789 1.1811, 1.1794 -1.6428 1.1811, 1.2407 -1.6107 1.1811, 1.1714 -1.6355 1.1811, 1.1616 -1.6303 1.1811, 1.2435 -1.6643 1.1811, 1.3298 -1.6557 1.1811, 1.3356 -1.6412 1.1811, 1.253 -1.6606 1.1811, 1.2535 -1.6606 1.1811, 1.2549 -1.6609 1.1811, 1.0785 -1.6336 1.1811, 1.0839 -1.6428 1.1811, 1.1071 -1.6476 1.1811, 1.0921 -1.6512 1.1811, 1.1021 -1.6574 1.1811, 1.124 -1.6324 1.1811, 1.0758 -1.6061 1.1811, 1.1147 -1.6389 1.1811, 1.0746 -1.6153 1.1811, 1.0752 -1.6225 1.1811, 1.1341 -1.6286 1.1811, 1.1451 -1.6272 1.1811, 1.1506 -1.6275 1.1811, 1.2389 -1.6748 1.1811, 1.239 -1.673 1.1811, 1.1908 -1.6688 1.1811, 1.2399 -1.6695 1.1811, 1.2416 -1.6664 1.1811, 1.2558 -1.6611 1.1811, 1.2764 -1.6611 1.1811, 1.2809 -1.6604 1.1811, 1.2495 -1.6885 1.1811, 1.2465 -1.6874 1.1811, 1.2435 -1.6852 1.1811, 1.2425 -1.6842 1.1811, 1.2405 -1.6813 1.1811, 1.2393 -1.6782 1.1811, 1.1906 -1.6783 1.1811, 1.1908 -1.6734 1.1811, 1.2944 -1.6857 1.1811, 1.2791 -1.689 1.1811, 1.2521 -1.689 1.1811, 1.3008 -1.6486 1.1811, 1.3056 -1.6413 1.1811, 1.3085 -1.6331 1.1811, 1.3093 -1.6254 1.1811, 1.3091 -1.6212 1.1811, 1.2893 -1.6576 1.1811, 1.2967 -1.6528 1.1811, 1.2736 -1.5897 1.1811, 1.27 -1.5897 1.1811, 1.3034 -1.6061 1.1811, 1.2812 -1.5905 1.1811, 1.3069 -1.6124 1.1811, 1.076 -1.6042 1.1811, 1.0799 -1.594 1.1811, 1.3026 -1.6045 1.1811, 1.2965 -1.598 1.1811, 1.2893 -1.5933 1.1811, 1.26 -1.5621 1.1811, 1.2497 -1.5498 1.1811, 1.1446 -1.5764 1.1811, 1.2487 -1.5488 1.1811, 1.2358 -1.5399 1.1811, 1.1516 -1.5619 1.1811, 1.0846 -1.5872 1.1811, 1.1415 -1.5747 1.1811, 1.2694 -1.5872 1.1811, 1.2671 -1.5768 1.1811, 1.1312 -1.5709 1.1811, 1.1204 -1.5696 1.1811, 1.1155 -1.5698 1.1811, 1.1619 -1.5497 1.1811, 1.2215 -1.5344 1.1811, 1.1741 -1.5407 1.1811, 1.2059 -1.5325 1.1811, 1.189 -1.5347 1.1811, 1.1042 -1.5725 1.1811, 1.094 -1.578 1.1811, 1.0863 -1.5849 1.1811, 1.3237 -1.5872 1.1811, 1.33 -1.596 1.1811, 1.334 -1.6061 1.1811, 1.6017 -1.6244 1.1811, 1.5889 -1.6244 1.1811, 1.5686 -1.6244 1.1811, 1.6017 -1.6318 1.1811, 1.6032 -1.6814 1.1811, 1.6093 -1.6893 1.1811, 1.6032 -1.6887 1.1811, 1.5889 -1.6893 1.1811, 1.5889 -1.6887 1.1811, 1.5686 -1.6887 1.1811, 1.5769 -1.6598 1.1811, 1.5769 -1.6814 1.1811, 1.5889 -1.6598 1.1811, 1.5889 -1.6814 1.1811, 1.5999 -1.6598 1.1811, 1.5999 -1.6524 1.1811, 1.5889 -1.6524 1.1811, 1.5889 -1.6318 1.1811, 1.5769 -1.6524 1.1811, 1.5769 -1.6318 1.1811, 1.5226 -1.5793 1.1811, 1.5226 -1.5867 1.1811, 1.5287 -1.5872 1.1811, 1.5211 -1.5297 1.1811, 1.5287 -1.5218 1.1811, 1.5211 -1.5223 1.1811, 1.5137 -1.5218 1.1811, 1.5137 -1.5223 1.1811, 1.4963 -1.5577 1.1811, 1.4963 -1.5793 1.1811, 1.5137 -1.5577 1.1811, 1.5137 -1.5793 1.1811, 1.5193 -1.5577 1.1811, 1.5193 -1.5503 1.1811, 1.4963 -1.5297 1.1811, 1.4963 -1.5503 1.1811, 1.5137 -1.5297 1.1811, 1.5137 -1.5503 1.1811, 1.5137 -1.5872 1.1811, 1.5137 -1.5867 1.1811, 1.488 -1.5867 1.1811, 1.488 -1.5223 1.1811, 1.8488 -1.7148 1.1811, 1.6695 -1.9291 1.1811, 1.6695 -1.7148 1.1811, 1.6093 -1.9291 1.1811, 1.6093 -1.7148 1.1811, 1.5889 -1.9291 1.1811, 1.5287 -1.9291 1.1811, 1.5137 -1.9291 1.1811, 1.4843 -1.9291 1.1811, 1.4724 -1.9291 1.1811, 1.4298 -1.9291 1.1811, 1.4547 -1.6882 1.1811, 1.3904 -1.6244 1.1811, 1.3904 -1.6887 1.1811, 1.426 -1.6893 1.1811, 1.426 -1.7148 1.1811, 1.426 -1.9291 1.1811, 1.4235 -1.6244 1.1811, 1.426 -1.6061 1.1811, 1.4235 -1.6318 1.1811, 1.425 -1.6814 1.1811, 1.425 -1.6887 1.1811, 1.3987 -1.6598 1.1811, 1.3987 -1.6814 1.1811, 1.4217 -1.6598 1.1811, 1.4217 -1.6524 1.1811, 1.3987 -1.6524 1.1811, 1.3987 -1.6318 1.1811, 1.6659 -1.6676 1.1811, 1.6626 -1.6743 1.1811, 1.6695 -1.6893 1.1811, 1.6512 -1.6846 1.1811, 1.6438 -1.6874 1.1811, 1.633 -1.6887 1.1811, 1.6153 -1.6887 1.1811, 1.6153 -1.6244 1.1811, 1.6337 -1.6244 1.1811, 1.6695 -1.6061 1.1811, 1.6442 -1.6256 1.1811, 1.6519 -1.6286 1.1811, 1.6646 -1.6415 1.1811, 1.6669 -1.6478 1.1811, 1.6677 -1.6557 1.1811, 1.6675 -1.6602 1.1811, 1.658 -1.6797 1.1811, 1.6574 -1.6803 1.1811, 1.658 -1.6329 1.1811, 1.6608 -1.6357 1.1811, 1.6805 -1.6887 1.1811, 1.6713 -1.6887 1.1811, 1.72 -1.6887 1.1811, 1.7134 -1.6711 1.1811, 1.6867 -1.6711 1.1811, 1.6958 -1.6244 1.1811, 1.7047 -1.6244 1.1811, 1.8488 -1.6893 1.1811, 1.6329 -1.5691 1.1811, 1.3904 -1.5867 1.1811, 1.3904 -1.5223 1.1811, 1.4243 -1.5867 1.1811, 1.5853 -1.5656 1.1811, 1.5821 -1.5722 1.1811, 1.5525 -1.5867 1.1811, 1.5348 -1.5867 1.1811, 1.5706 -1.5825 1.1811, 1.5632 -1.5854 1.1811, 1.5348 -1.5223 1.1811, 1.5531 -1.5223 1.1811, 1.5636 -1.5236 1.1811, 1.5713 -1.5265 1.1811, 1.5841 -1.5394 1.1811, 1.5863 -1.5457 1.1811, 1.5871 -1.5537 1.1811, 1.5869 -1.5581 1.1811, 1.5774 -1.5776 1.1811, 1.5768 -1.5782 1.1811, 1.5774 -1.5308 1.1811, 1.5802 -1.5336 1.1811, 1.7292 -1.6887 1.1811, 1.8488 -1.6061 1.1811, 1.8488 -1.5872 1.1811, 1.8488 -1.5218 1.1811, 1.9685 -1.6893 1.1811, 1.9685 -1.6061 1.1811, 1.9685 -1.5872 1.1811, 1.9685 -1.5218 1.1811, 1.426 1.9291 1.1811, 1.9685 1.9291 1.1811, 1.8488 1.9291 1.1811, 1.6695 1.9291 1.1811, 1.6093 1.9291 1.1811, 1.5889 1.9291 1.1811, 1.5287 1.9291 1.1811, 1.5137 1.9291 1.1811, 1.4843 1.9291 1.1811, 2.0079 1.9291 1.1417, 2.0079 -1.9291 1.1417, 2.0079 1.9291 0.0039, 2.0079 -1.9291 0.0039, 1.9685 1.9685 0.0039, -1.9685 1.9685 0.0039, 1.9685 1.9685 1.1417, -1.9685 1.9685 1.1417, -2.0079 -1.9291 1.1417, -2.0079 1.9291 1.1417, -2.0079 -1.9291 0.0039, -2.0079 1.9291 0.0039, 1.9685 -1.9685 1.1417, -1.9685 -1.9685 1.1417, 1.9685 -1.9685 0.0039, -1.9685 -1.9685 0.0039, 1.9773 -1.9675 0.0039, 2.004 -1.9462 0.0039, 2.0069 1.9379 0.0039, 1.9856 -1.9646 0.0039, 1.9993 -1.9537 0.0039, 1.9931 -1.9599 0.0039, 1.9773 1.9675 0.0039, 1.9856 1.9646 0.0039, 2.004 1.9462 0.0039, 1.9931 1.9599 0.0039, 1.9993 1.9537 0.0039, -1.9787 -1.9672 0.0039, -2.0065 -1.9393 0.0039, -1.9882 -1.9632 0.0039, -2.0026 -1.9488 0.0039, -1.9963 -1.957 0.0039, -1.9963 1.957 0.0039, -1.9882 1.9632 0.0039, -2.0026 1.9488 0.0039, -1.9787 1.9672 0.0039, -2.0065 1.9393 0.0039, 2.0069 -1.9379 0.0039, -1.9787 1.9672 1.1417, -1.9882 1.9632 1.1417, -1.9963 1.957 1.1417, -2.0026 1.9488 1.1417, -2.0065 1.9393 1.1417, -1.9685 1.9672 1.1519, 1.9685 1.9672 1.1519, -1.9685 1.9632 1.1614, 1.9685 1.9632 1.1614, -1.9685 1.957 1.1696, 1.9685 1.957 1.1696, -1.9685 1.9488 1.1758, 1.9685 1.9488 1.1758, -1.9685 1.9393 1.1798, 1.9685 1.9393 1.1798, 2.0067 1.9379 1.1417, 2.0065 1.9393 1.1417, 2.0037 1.9461 1.1417, 2.0026 1.9488 1.1417, 1.999 1.9535 1.1417, 1.9929 1.9597 1.1417, 1.9963 1.957 1.1417, 1.9772 1.9674 1.1417, 1.9787 1.9672 1.1417, 1.9855 1.9644 1.1417, 1.9882 1.9632 1.1417, -2.0065 1.9291 1.1519, -2.0052 1.939 1.1519, -1.9856 1.939 1.1758, -1.9773 1.9342 1.1798, -1.9757 1.9363 1.1798, -1.9711 1.939 1.1798, -1.9783 1.9318 1.1798, -1.9875 1.9342 1.1758, -1.9954 1.9363 1.1696, -1.9787 1.9291 1.1798, -1.9824 1.9431 1.1758, -1.9736 1.938 1.1798, -1.9783 1.9462 1.1758, -1.9736 1.9481 1.1758, -1.9882 1.9291 1.1758, -1.9963 1.9291 1.1696, -2.0026 1.9291 1.1614, -1.9926 1.9431 1.1696, -1.9882 1.9488 1.1696, -1.9824 1.9532 1.1696, -1.9757 1.956 1.1696, -2.0014 1.938 1.1614, -1.998 1.9462 1.1614, -1.9926 1.9532 1.1614, -1.9856 1.9587 1.1614, -1.9773 1.9621 1.1614, -2.0014 1.9481 1.1519, -1.9954 1.956 1.1519, -1.9875 1.9621 1.1519, -1.9783 1.9659 1.1519, 2.0052 1.939 1.1519, 2.0014 1.9481 1.1519, 1.9954 1.956 1.1519, 1.9875 1.9621 1.1519, 1.9783 1.9659 1.1519, 1.9773 1.9621 1.1614, 1.9757 1.956 1.1696, 1.9736 1.9481 1.1758, 1.9711 1.939 1.1798, 1.9856 1.9587 1.1614, 1.9824 1.9532 1.1696, 1.9783 1.9462 1.1758, 1.9736 1.938 1.1798, 1.9926 1.9532 1.1614, 1.9882 1.9488 1.1696, 1.9824 1.9431 1.1758, 1.9757 1.9363 1.1798, 1.998 1.9462 1.1614, 1.9926 1.9431 1.1696, 1.9856 1.939 1.1758, 1.9773 1.9342 1.1798, 2.0014 1.938 1.1614, 1.9954 1.9363 1.1696, 1.9875 1.9342 1.1758, 1.9783 1.9318 1.1798, 2.0065 1.9291 1.1519, 2.0026 1.9291 1.1614, 1.9963 1.9291 1.1696, 1.9882 1.9291 1.1758, 1.9787 1.9291 1.1798, -2.0065 -1.9393 1.1417, -2.0026 -1.9488 1.1417, -1.9963 -1.957 1.1417, -1.9882 -1.9632 1.1417, -1.9787 -1.9672 1.1417, -2.0065 -1.9291 1.1519, -2.0026 -1.9291 1.1614, -1.9963 -1.9291 1.1696, -1.9882 -1.9291 1.1758, -1.9787 -1.9291 1.1798, 2.0065 -1.9291 1.1519, 2.0026 -1.9291 1.1614, 1.9963 -1.9291 1.1696, 1.9882 -1.9291 1.1758, 1.9787 -1.9291 1.1798, 1.9772 -1.9674 1.1417, 1.9787 -1.9672 1.1417, 1.9855 -1.9644 1.1417, 1.9882 -1.9632 1.1417, 1.9929 -1.9597 1.1417, 1.999 -1.9535 1.1417, 1.9963 -1.957 1.1417, 2.0067 -1.9379 1.1417, 2.0065 -1.9393 1.1417, 2.0037 -1.9461 1.1417, 2.0026 -1.9488 1.1417, -1.9685 -1.9672 1.1519, -1.9783 -1.9659 1.1519, -1.9783 -1.9462 1.1758, -1.9736 -1.938 1.1798, -1.9757 -1.9363 1.1798, -1.9783 -1.9318 1.1798, -1.9711 -1.939 1.1798, -1.9736 -1.9481 1.1758, -1.9757 -1.956 1.1696, -1.9685 -1.9393 1.1798, -1.9824 -1.9431 1.1758, -1.9773 -1.9342 1.1798, -1.9856 -1.939 1.1758, -1.9875 -1.9342 1.1758, -1.9685 -1.9488 1.1758, -1.9685 -1.957 1.1696, -1.9685 -1.9632 1.1614, -1.9824 -1.9532 1.1696, -1.9882 -1.9488 1.1696, -1.9926 -1.9431 1.1696, -1.9954 -1.9363 1.1696, -1.9773 -1.9621 1.1614, -1.9856 -1.9587 1.1614, -1.9926 -1.9532 1.1614, -1.998 -1.9462 1.1614, -2.0014 -1.938 1.1614, -1.9875 -1.9621 1.1519, -1.9954 -1.956 1.1519, -2.0014 -1.9481 1.1519, -2.0052 -1.939 1.1519, 1.9783 -1.9659 1.1519, 1.9875 -1.9621 1.1519, 1.9954 -1.956 1.1519, 2.0014 -1.9481 1.1519, 2.0052 -1.939 1.1519, 2.0014 -1.938 1.1614, 1.9954 -1.9363 1.1696, 1.9875 -1.9342 1.1758, 1.9783 -1.9318 1.1798, 1.998 -1.9462 1.1614, 1.9926 -1.9431 1.1696, 1.9856 -1.939 1.1758, 1.9773 -1.9342 1.1798, 1.9926 -1.9532 1.1614, 1.9882 -1.9488 1.1696, 1.9824 -1.9431 1.1758, 1.9757 -1.9363 1.1798, 1.9856 -1.9587 1.1614, 1.9824 -1.9532 1.1696, 1.9783 -1.9462 1.1758, 1.9736 -1.938 1.1798, 1.9773 -1.9621 1.1614, 1.9757 -1.956 1.1696, 1.9736 -1.9481 1.1758, 1.9711 -1.939 1.1798, 1.9685 -1.9672 1.1519, 1.9685 -1.9632 1.1614, 1.9685 -1.957 1.1696, 1.9685 -1.9488 1.1758, 1.9685 -1.9393 1.1798
            ]
        }
        coordIndex [
            0,1,2,-1,3,4,5,-1,6,7,8,-1,9,10,11,-1,12,13,14,-1,13,12,15,-1,15,12,16,-1,15,16,17,-1,18,19,20,-1,5,21,22,-1,20,19,23,-1,23,19,24,-1,23,24,17,-1,17,24,25,-1,17,25,15,-1,26,27,28,-1,28,27,29,-1,26,30,27,-1,27,30,31,-1,27,31,32,-1,32,31,33,-1,27,34,35,-1,36,37,27,-1,27,37,38,-1,27,38,34,-1,35,39,27,-1,27,39,40,-1,27,40,29,-1,41,42,43,-1,44,45,31,-1,31,45,46,-1,31,46,33,-1,41,43,31,-1,31,43,47,-1,31,47,44,-1,36,27,48,-1,48,27,49,-1,48,49,50,-1,50,49,51,-1,50,51,52,-1,53,54,55,-1,55,54,56,-1,55,56,52,-1,52,56,57,-1,52,57,50,-1,58,59,60,-1,60,59,61,-1,60,61,62,-1,63,64,65,-1,66,67,63,-1,63,67,68,-1,63,68,64,-1,69,70,63,-1,63,70,71,-1,63,71,66,-1,72,73,74,-1,74,73,75,-1,74,75,69,-1,69,75,76,-1,69,76,70,-1,77,78,79,-1,79,78,80,-1,80,81,79,-1,79,81,82,-1,79,82,72,-1,77,79,83,-1,83,79,84,-1,83,84,85,-1,85,84,86,-1,86,84,87,-1,86,87,88,-1,49,89,51,-1,51,89,90,-1,51,90,91,-1,91,90,92,-1,91,92,93,-1,94,95,96,-1,97,98,99,-1,100,101,95,-1,95,101,102,-1,95,102,96,-1,96,98,94,-1,94,98,97,-1,94,97,103,-1,103,97,104,-1,105,106,107,-1,108,109,110,-1,110,109,111,-1,112,113,114,-1,109,115,116,-1,117,118,119,-1,119,118,120,-1,119,120,112,-1,112,120,121,-1,112,121,113,-1,116,122,109,-1,109,122,123,-1,109,123,111,-1,124,125,126,-1,124,126,127,-1,125,128,126,-1,126,128,129,-1,126,129,119,-1,119,129,130,-1,119,130,117,-1,131,132,133,-1,134,135,136,-1,136,135,137,-1,138,139,11,-1,139,140,11,-1,11,140,141,-1,11,141,142,-1,134,143,135,-1,135,143,144,-1,135,144,145,-1,132,138,133,-1,133,138,11,-1,133,11,146,-1,146,11,145,-1,146,145,147,-1,147,145,144,-1,142,148,11,-1,11,148,149,-1,11,149,9,-1,150,151,152,-1,152,151,153,-1,152,153,154,-1,152,155,150,-1,150,155,156,-1,150,156,157,-1,157,158,150,-1,150,158,159,-1,150,159,160,-1,160,159,161,-1,160,161,162,-1,162,161,163,-1,162,163,133,-1,133,163,164,-1,133,164,131,-1,165,166,154,-1,154,166,167,-1,154,167,152,-1,168,87,169,-1,137,135,170,-1,170,135,87,-1,170,87,171,-1,172,173,174,-1,175,176,168,-1,176,177,168,-1,168,177,178,-1,168,178,87,-1,87,178,179,-1,87,179,171,-1,172,174,168,-1,168,174,180,-1,168,180,175,-1,181,182,173,-1,173,182,183,-1,173,183,174,-1,181,184,182,-1,182,184,185,-1,182,185,186,-1,186,185,187,-1,186,188,189,-1,187,190,186,-1,186,190,191,-1,186,191,192,-1,192,193,186,-1,186,193,194,-1,186,194,188,-1,189,195,186,-1,186,195,196,-1,186,196,197,-1,198,199,200,-1,200,199,201,-1,200,201,169,-1,169,201,202,-1,169,202,168,-1,203,204,10,-1,10,204,112,-1,10,112,11,-1,11,112,114,-1,11,114,109,-1,109,114,205,-1,109,205,115,-1,206,207,208,-1,208,207,209,-1,210,211,212,-1,213,214,215,-1,216,217,87,-1,217,218,87,-1,87,218,219,-1,87,219,220,-1,206,221,207,-1,207,221,222,-1,207,222,223,-1,223,222,215,-1,223,215,224,-1,224,215,214,-1,225,226,210,-1,210,226,227,-1,210,227,211,-1,228,229,230,-1,230,229,231,-1,230,231,232,-1,212,233,210,-1,210,233,234,-1,210,234,84,-1,84,234,209,-1,84,209,235,-1,235,209,207,-1,235,236,84,-1,84,236,237,-1,84,237,87,-1,87,237,238,-1,87,238,216,-1,220,239,87,-1,87,239,240,-1,87,240,169,-1,169,240,241,-1,169,241,230,-1,242,243,215,-1,215,243,244,-1,215,244,245,-1,245,246,215,-1,215,246,247,-1,215,247,213,-1,248,249,250,-1,250,249,251,-1,249,252,251,-1,251,252,253,-1,251,253,210,-1,210,253,254,-1,210,254,225,-1,255,256,257,-1,257,256,258,-1,259,260,257,-1,257,260,261,-1,257,261,262,-1,262,263,257,-1,257,263,264,-1,257,264,255,-1,265,266,267,-1,267,266,268,-1,268,266,269,-1,269,266,270,-1,269,270,271,-1,271,270,272,-1,271,272,273,-1,274,275,272,-1,275,276,272,-1,272,276,277,-1,272,277,273,-1,273,277,278,-1,273,278,279,-1,279,278,280,-1,279,280,281,-1,282,283,284,-1,284,285,282,-1,282,285,286,-1,282,286,272,-1,272,286,287,-1,272,287,274,-1,288,289,290,-1,290,289,291,-1,288,290,292,-1,292,290,293,-1,292,293,294,-1,291,295,290,-1,290,295,296,-1,290,296,283,-1,283,296,297,-1,283,297,284,-1,298,299,290,-1,290,299,300,-1,290,300,293,-1,301,302,303,-1,303,302,304,-1,304,305,303,-1,303,305,306,-1,303,306,307,-1,298,290,308,-1,308,290,309,-1,308,309,307,-1,307,309,310,-1,307,310,303,-1,311,312,301,-1,301,312,313,-1,301,313,314,-1,314,315,301,-1,301,315,316,-1,301,316,302,-1,317,318,319,-1,320,321,322,-1,323,324,311,-1,325,326,327,-1,327,326,328,-1,320,322,329,-1,323,311,330,-1,319,318,311,-1,311,318,331,-1,311,331,330,-1,321,332,322,-1,322,332,333,-1,322,333,334,-1,335,336,337,-1,337,336,338,-1,337,338,339,-1,340,341,342,-1,342,341,343,-1,342,343,337,-1,337,343,344,-1,337,344,335,-1,340,345,341,-1,341,345,346,-1,341,346,326,-1,326,346,347,-1,326,347,328,-1,348,349,350,-1,350,349,351,-1,350,351,322,-1,322,351,352,-1,322,352,329,-1,334,353,322,-1,322,353,354,-1,322,354,355,-1,356,357,312,-1,312,357,358,-1,312,358,359,-1,359,360,312,-1,312,360,361,-1,312,361,362,-1,362,361,348,-1,362,348,363,-1,363,348,350,-1,324,364,311,-1,311,364,365,-1,311,365,312,-1,312,365,366,-1,312,366,356,-1,367,368,322,-1,322,368,369,-1,322,369,326,-1,326,369,370,-1,326,370,371,-1,355,372,322,-1,322,372,373,-1,322,373,367,-1,374,375,376,-1,374,376,377,-1,371,378,326,-1,326,378,376,-1,326,376,341,-1,341,376,375,-1,341,375,379,-1,379,375,380,-1,381,382,376,-1,376,382,383,-1,376,383,377,-1,384,385,386,-1,385,387,386,-1,386,387,388,-1,386,388,389,-1,390,386,391,-1,380,375,390,-1,390,375,392,-1,390,392,386,-1,386,392,393,-1,386,393,384,-1,391,394,390,-1,390,394,395,-1,390,395,396,-1,389,388,397,-1,397,388,398,-1,397,398,399,-1,399,398,400,-1,399,400,401,-1,402,403,396,-1,396,403,404,-1,396,404,390,-1,256,405,258,-1,258,405,406,-1,258,406,319,-1,319,406,407,-1,319,407,317,-1,408,4,409,-1,409,4,3,-1,409,3,410,-1,408,411,4,-1,4,411,412,-1,4,412,413,-1,413,412,414,-1,413,414,415,-1,415,414,416,-1,415,416,417,-1,418,419,420,-1,420,419,421,-1,420,421,422,-1,422,421,412,-1,422,412,423,-1,423,412,411,-1,423,411,424,-1,424,411,425,-1,424,425,426,-1,426,425,427,-1,428,429,430,-1,431,432,433,-1,433,432,434,-1,433,434,435,-1,436,437,438,-1,438,437,439,-1,438,439,440,-1,440,439,428,-1,440,428,441,-1,442,443,444,-1,444,443,445,-1,444,445,431,-1,430,429,446,-1,446,429,447,-1,446,447,448,-1,435,434,449,-1,449,434,52,-1,449,52,448,-1,448,52,51,-1,448,51,446,-1,6,450,451,-1,451,450,452,-1,451,452,453,-1,453,452,454,-1,453,454,455,-1,455,454,126,-1,455,126,456,-1,456,126,119,-1,456,119,457,-1,457,119,112,-1,457,112,458,-1,458,112,204,-1,458,204,459,-1,459,204,250,-1,459,250,460,-1,460,250,251,-1,203,198,204,-1,204,198,200,-1,204,200,250,-1,250,200,169,-1,250,169,248,-1,248,169,230,-1,248,230,461,-1,461,230,232,-1,462,319,463,-1,463,319,311,-1,463,311,464,-1,464,311,301,-1,464,301,465,-1,465,301,303,-1,465,303,466,-1,462,467,468,-1,467,469,468,-1,468,469,470,-1,468,470,464,-1,464,470,471,-1,464,471,463,-1,472,473,474,-1,474,473,470,-1,474,470,475,-1,475,470,469,-1,475,469,476,-1,476,469,477,-1,478,479,480,-1,481,482,480,-1,480,482,483,-1,480,483,413,-1,413,483,484,-1,413,484,4,-1,4,484,485,-1,4,485,486,-1,487,488,489,-1,490,491,487,-1,487,491,492,-1,487,492,480,-1,480,492,493,-1,480,493,478,-1,479,494,480,-1,480,494,495,-1,480,495,481,-1,489,496,487,-1,487,496,497,-1,487,497,490,-1,498,499,480,-1,500,501,502,-1,480,499,487,-1,487,499,503,-1,487,503,504,-1,72,74,79,-1,79,74,468,-1,79,468,84,-1,84,468,464,-1,84,464,210,-1,210,464,465,-1,210,465,251,-1,251,465,466,-1,251,466,460,-1,93,88,91,-1,91,88,87,-1,91,87,51,-1,51,87,135,-1,51,135,446,-1,446,135,145,-1,446,145,430,-1,450,505,452,-1,452,505,480,-1,452,480,454,-1,454,480,413,-1,454,413,126,-1,126,413,415,-1,126,415,127,-1,127,415,417,-1,127,417,99,-1,99,417,410,-1,99,410,97,-1,97,410,3,-1,97,3,20,-1,20,3,5,-1,20,5,18,-1,18,5,22,-1,506,21,14,-1,14,21,5,-1,14,5,12,-1,12,5,4,-1,12,4,487,-1,487,4,486,-1,487,486,488,-1,462,468,319,-1,319,468,74,-1,319,74,258,-1,258,74,507,-1,258,507,257,-1,507,508,257,-1,257,508,0,-1,257,0,69,-1,69,0,2,-1,69,2,74,-1,74,2,509,-1,74,509,507,-1,510,511,20,-1,512,513,430,-1,430,513,432,-1,430,432,428,-1,428,432,431,-1,428,431,441,-1,441,431,445,-1,514,515,20,-1,515,512,20,-1,20,512,430,-1,20,430,97,-1,97,430,145,-1,97,145,104,-1,104,145,11,-1,104,11,107,-1,107,11,109,-1,107,109,105,-1,105,109,108,-1,513,516,432,-1,432,516,517,-1,432,517,23,-1,23,517,518,-1,23,518,519,-1,520,521,23,-1,23,521,522,-1,23,522,20,-1,20,522,523,-1,20,523,510,-1,511,524,20,-1,20,524,525,-1,20,525,514,-1,519,526,23,-1,23,526,527,-1,23,527,520,-1,502,498,500,-1,500,498,480,-1,500,480,528,-1,528,480,505,-1,528,505,504,-1,504,505,529,-1,504,529,487,-1,487,529,530,-1,487,530,12,-1,12,530,531,-1,12,531,16,-1,6,8,450,-1,450,8,532,-1,450,532,505,-1,505,532,533,-1,505,533,529,-1,529,533,534,-1,529,534,530,-1,530,534,535,-1,530,535,531,-1,65,62,63,-1,63,62,61,-1,63,61,69,-1,69,61,536,-1,69,536,257,-1,257,536,266,-1,257,266,259,-1,259,266,265,-1,535,537,531,-1,531,537,538,-1,531,538,16,-1,16,538,539,-1,16,539,17,-1,17,539,540,-1,17,540,23,-1,23,540,541,-1,23,541,432,-1,432,541,542,-1,432,542,434,-1,434,542,543,-1,434,543,52,-1,52,543,544,-1,52,544,55,-1,55,544,59,-1,55,59,53,-1,53,59,58,-1,545,546,547,-1,547,546,548,-1,549,550,551,-1,551,550,552,-1,553,554,555,-1,555,554,556,-1,557,558,559,-1,559,558,560,-1,547,548,549,-1,561,559,562,-1,547,549,563,-1,561,562,564,-1,564,562,565,-1,564,565,566,-1,549,567,563,-1,563,567,568,-1,563,568,569,-1,569,568,570,-1,569,570,571,-1,559,560,555,-1,555,560,572,-1,555,572,573,-1,573,572,574,-1,573,574,575,-1,575,574,576,-1,577,578,579,-1,579,578,580,-1,579,580,581,-1,581,580,550,-1,581,550,556,-1,556,550,549,-1,556,549,555,-1,555,549,548,-1,555,548,559,-1,559,548,582,-1,559,582,562,-1,552,550,580,-1,552,580,583,-1,583,580,578,-1,583,578,584,-1,584,578,577,-1,584,577,585,-1,585,577,579,-1,585,579,586,-1,586,579,581,-1,586,581,587,-1,587,581,556,-1,587,556,554,-1,551,552,588,-1,551,588,589,-1,589,588,590,-1,589,590,591,-1,591,590,592,-1,591,592,593,-1,593,592,594,-1,593,594,595,-1,595,594,596,-1,595,596,597,-1,597,596,270,-1,597,270,537,-1,547,563,545,-1,545,563,598,-1,598,563,599,-1,599,563,569,-1,599,569,600,-1,600,569,601,-1,601,569,571,-1,601,571,602,-1,570,603,571,-1,571,603,604,-1,571,604,602,-1,605,606,568,-1,568,606,607,-1,568,607,570,-1,570,607,608,-1,570,608,603,-1,568,567,605,-1,605,567,549,-1,605,549,551,-1,554,609,610,-1,611,612,613,-1,270,596,614,-1,613,612,270,-1,615,270,612,-1,615,612,616,-1,616,612,611,-1,616,611,617,-1,618,270,615,-1,619,620,621,-1,621,620,614,-1,621,614,622,-1,622,614,596,-1,622,596,594,-1,618,615,623,-1,623,615,616,-1,623,616,624,-1,624,616,617,-1,624,617,625,-1,626,619,627,-1,627,619,621,-1,627,621,628,-1,628,621,622,-1,628,622,629,-1,629,622,594,-1,629,594,592,-1,630,626,631,-1,631,626,627,-1,631,627,632,-1,632,627,628,-1,632,628,633,-1,633,628,629,-1,633,629,634,-1,634,629,592,-1,634,592,590,-1,609,630,610,-1,610,630,631,-1,610,631,635,-1,635,631,632,-1,635,632,636,-1,636,632,633,-1,636,633,637,-1,637,633,634,-1,637,634,638,-1,638,634,590,-1,638,590,588,-1,554,610,587,-1,587,610,635,-1,587,635,586,-1,586,635,636,-1,586,636,585,-1,585,636,637,-1,585,637,584,-1,584,637,638,-1,584,638,583,-1,583,638,588,-1,583,588,552,-1,620,270,614,-1,609,625,630,-1,630,625,617,-1,630,617,626,-1,626,617,611,-1,626,611,619,-1,619,611,613,-1,619,613,620,-1,620,613,270,-1,598,599,639,-1,600,601,640,-1,602,604,641,-1,603,608,642,-1,607,606,643,-1,605,551,589,-1,606,605,643,-1,643,605,589,-1,643,589,644,-1,644,589,591,-1,644,591,645,-1,645,591,593,-1,645,593,646,-1,646,593,595,-1,646,595,647,-1,647,595,597,-1,647,597,537,-1,608,607,642,-1,642,607,643,-1,642,643,648,-1,648,643,644,-1,648,644,649,-1,649,644,645,-1,649,645,650,-1,650,645,646,-1,650,646,651,-1,651,646,647,-1,651,647,537,-1,604,603,641,-1,641,603,642,-1,641,642,652,-1,652,642,648,-1,652,648,653,-1,653,648,649,-1,653,649,654,-1,654,649,650,-1,654,650,655,-1,655,650,651,-1,655,651,537,-1,601,602,640,-1,640,602,641,-1,640,641,656,-1,656,641,652,-1,656,652,657,-1,657,652,653,-1,657,653,658,-1,658,653,654,-1,658,654,659,-1,659,654,655,-1,659,655,537,-1,599,600,639,-1,639,600,640,-1,639,640,660,-1,660,640,656,-1,660,656,661,-1,661,656,657,-1,661,657,662,-1,662,657,658,-1,662,658,663,-1,663,658,659,-1,663,659,537,-1,545,598,664,-1,664,598,639,-1,664,639,665,-1,665,639,660,-1,665,660,666,-1,666,660,661,-1,666,661,667,-1,667,661,662,-1,667,662,668,-1,668,662,663,-1,668,663,537,-1,553,555,573,-1,553,573,669,-1,669,573,575,-1,669,575,670,-1,670,575,576,-1,670,576,671,-1,671,576,574,-1,671,574,672,-1,672,574,572,-1,672,572,673,-1,673,572,560,-1,673,560,558,-1,554,553,674,-1,554,674,609,-1,609,674,675,-1,609,675,625,-1,625,675,676,-1,625,676,624,-1,624,676,677,-1,624,677,623,-1,623,677,678,-1,623,678,618,-1,618,678,310,-1,618,310,270,-1,546,545,664,-1,546,664,679,-1,679,664,665,-1,679,665,680,-1,680,665,666,-1,680,666,681,-1,681,666,667,-1,681,667,682,-1,682,667,668,-1,682,668,683,-1,683,668,537,-1,683,537,7,-1,559,561,557,-1,557,561,684,-1,684,561,685,-1,685,561,564,-1,685,564,686,-1,686,564,687,-1,687,564,566,-1,687,566,688,-1,565,689,566,-1,566,689,690,-1,566,690,688,-1,691,692,562,-1,562,692,693,-1,562,693,565,-1,565,693,694,-1,565,694,689,-1,562,582,691,-1,691,582,548,-1,691,548,546,-1,558,695,696,-1,697,698,699,-1,310,678,700,-1,699,698,310,-1,701,310,698,-1,701,698,702,-1,702,698,697,-1,702,697,703,-1,704,310,701,-1,705,706,707,-1,707,706,700,-1,707,700,708,-1,708,700,678,-1,708,678,677,-1,704,701,709,-1,709,701,702,-1,709,702,710,-1,710,702,703,-1,710,703,711,-1,712,705,713,-1,713,705,707,-1,713,707,714,-1,714,707,708,-1,714,708,715,-1,715,708,677,-1,715,677,676,-1,716,712,717,-1,717,712,713,-1,717,713,718,-1,718,713,714,-1,718,714,719,-1,719,714,715,-1,719,715,720,-1,720,715,676,-1,720,676,675,-1,695,716,696,-1,696,716,717,-1,696,717,721,-1,721,717,718,-1,721,718,722,-1,722,718,719,-1,722,719,723,-1,723,719,720,-1,723,720,724,-1,724,720,675,-1,724,675,674,-1,558,696,673,-1,673,696,721,-1,673,721,672,-1,672,721,722,-1,672,722,671,-1,671,722,723,-1,671,723,670,-1,670,723,724,-1,670,724,669,-1,669,724,674,-1,669,674,553,-1,706,310,700,-1,695,711,716,-1,716,711,703,-1,716,703,712,-1,712,703,697,-1,712,697,705,-1,705,697,699,-1,705,699,706,-1,706,699,310,-1,684,685,725,-1,686,687,726,-1,688,690,727,-1,689,694,728,-1,693,692,729,-1,691,546,679,-1,692,691,729,-1,729,691,679,-1,729,679,730,-1,730,679,680,-1,730,680,731,-1,731,680,681,-1,731,681,732,-1,732,681,682,-1,732,682,733,-1,733,682,683,-1,733,683,7,-1,694,693,728,-1,728,693,729,-1,728,729,734,-1,734,729,730,-1,734,730,735,-1,735,730,731,-1,735,731,736,-1,736,731,732,-1,736,732,737,-1,737,732,733,-1,737,733,7,-1,690,689,727,-1,727,689,728,-1,727,728,738,-1,738,728,734,-1,738,734,739,-1,739,734,735,-1,739,735,740,-1,740,735,736,-1,740,736,741,-1,741,736,737,-1,741,737,7,-1,687,688,726,-1,726,688,727,-1,726,727,742,-1,742,727,738,-1,742,738,743,-1,743,738,739,-1,743,739,744,-1,744,739,740,-1,744,740,745,-1,745,740,741,-1,745,741,7,-1,685,686,725,-1,725,686,726,-1,725,726,746,-1,746,726,742,-1,746,742,747,-1,747,742,743,-1,747,743,748,-1,748,743,744,-1,748,744,749,-1,749,744,745,-1,749,745,7,-1,557,684,750,-1,750,684,725,-1,750,725,751,-1,751,725,746,-1,751,746,752,-1,752,746,747,-1,752,747,753,-1,753,747,748,-1,753,748,754,-1,754,748,749,-1,754,749,7,-1,558,557,750,-1,558,750,695,-1,695,750,751,-1,695,751,711,-1,711,751,752,-1,711,752,710,-1,710,752,753,-1,710,753,709,-1,709,753,754,-1,709,754,704,-1,704,754,7,-1,704,7,310,-1,
        ]
    }
}
Shape{
    appearance Appearance {
        material  Material 	{
            diffuseColor 1.0 1.0 1.0
            specularColor 0.5019607843137255 0.5019607843137255 0.5019607843137255
            ambientIntensity 1.0
            transparency 0.0
            shininess 0.5
        }
    }
    geometry IndexedFaceSet {
        ccw TRUE
        solid FALSE
        coord DEF co Coordinate {
            point [
                1.6539 -1.6399 1.185, 1.6608 -1.6357 1.185, 1.6519 -1.6378 1.185, 1.658 -1.6329 1.185, 1.647 -1.6346 1.185, 1.6519 -1.6286 1.185, 1.6413 -1.6326 1.185, 1.6442 -1.6256 1.185, 1.6334 -1.6318 1.185, 1.6337 -1.6244 1.185, 1.6236 -1.6318 1.185, 1.6153 -1.6244 1.185, 1.6236 -1.6814 1.185, 1.6153 -1.6887 1.185, 1.633 -1.6814 1.185, 1.633 -1.6887 1.185, 1.641 -1.6805 1.185, 1.6438 -1.6874 1.185, 1.6466 -1.6786 1.185, 1.6512 -1.6846 1.185, 1.6509 -1.6758 1.185, 1.6574 -1.6803 1.185, 1.6521 -1.6747 1.185, 1.658 -1.6797 1.185, 1.6555 -1.6705 1.185, 1.6626 -1.6743 1.185, 1.6576 -1.6656 1.185, 1.6659 -1.6676 1.185, 1.6588 -1.6596 1.185, 1.6675 -1.6602 1.185, 1.659 -1.656 1.185, 1.6677 -1.6557 1.185, 1.6581 -1.6483 1.185, 1.6669 -1.6478 1.185, 1.6564 -1.6435 1.185, 1.6646 -1.6415 1.185, 1.658 -1.6797 1.1811, 1.6626 -1.6743 1.1811, 1.6659 -1.6676 1.1811, 1.6675 -1.6602 1.1811, 1.6677 -1.6557 1.1811, 1.6669 -1.6478 1.1811, 1.6646 -1.6415 1.1811, 1.6608 -1.6357 1.1811, 1.658 -1.6329 1.1811, 1.6519 -1.6286 1.1811, 1.6442 -1.6256 1.1811, 1.6337 -1.6244 1.1811, 1.6153 -1.6244 1.1811, 1.6153 -1.6887 1.1811, 1.633 -1.6887 1.1811, 1.6438 -1.6874 1.1811, 1.6512 -1.6846 1.1811, 1.6574 -1.6803 1.1811, 1.6519 -1.6378 1.1811, 1.6539 -1.6399 1.1811, 1.6564 -1.6435 1.1811, 1.6581 -1.6483 1.1811, 1.659 -1.656 1.1811, 1.6334 -1.6318 1.1811, 1.6413 -1.6326 1.1811, 1.647 -1.6346 1.1811, 1.6236 -1.6318 1.1811, 1.6236 -1.6814 1.1811, 1.633 -1.6814 1.1811, 1.6521 -1.6747 1.1811, 1.6509 -1.6758 1.1811, 1.6466 -1.6786 1.1811, 1.641 -1.6805 1.1811, 1.6588 -1.6596 1.1811, 1.6576 -1.6656 1.1811, 1.6555 -1.6705 1.1811
            ]
        }
        coordIndex [
            0,1,2,-1,2,1,3,-1,2,3,4,-1,4,3,5,-1,4,5,6,-1,6,5,7,-1,6,7,8,-1,8,7,9,-1,8,9,10,-1,10,9,11,-1,10,11,12,-1,12,11,13,-1,12,13,14,-1,14,13,15,-1,14,15,16,-1,16,15,17,-1,16,17,18,-1,18,17,19,-1,18,19,20,-1,20,19,21,-1,20,21,22,-1,22,21,23,-1,22,23,24,-1,24,23,25,-1,24,25,26,-1,26,25,27,-1,26,27,28,-1,28,27,29,-1,28,29,30,-1,30,29,31,-1,30,31,32,-1,32,31,33,-1,32,33,34,-1,34,33,35,-1,34,35,0,-1,0,35,1,-1,23,36,37,-1,23,37,25,-1,25,37,38,-1,25,38,27,-1,27,38,39,-1,27,39,29,-1,29,39,40,-1,29,40,31,-1,31,40,41,-1,31,41,33,-1,33,41,42,-1,33,42,35,-1,35,42,43,-1,35,43,1,-1,1,43,44,-1,1,44,3,-1,3,44,45,-1,3,45,5,-1,5,45,46,-1,5,46,7,-1,7,46,47,-1,7,47,9,-1,11,9,48,-1,48,9,47,-1,13,11,49,-1,49,11,48,-1,15,13,50,-1,50,13,49,-1,15,50,51,-1,15,51,17,-1,17,51,52,-1,17,52,19,-1,19,52,53,-1,19,53,21,-1,21,53,36,-1,21,36,23,-1,2,54,55,-1,2,55,0,-1,0,55,56,-1,0,56,34,-1,34,56,57,-1,34,57,32,-1,32,57,58,-1,32,58,30,-1,8,59,60,-1,8,60,6,-1,6,60,61,-1,6,61,4,-1,4,61,54,-1,4,54,2,-1,8,10,59,-1,59,10,62,-1,10,12,62,-1,62,12,63,-1,12,14,63,-1,63,14,64,-1,22,65,66,-1,22,66,20,-1,20,66,67,-1,20,67,18,-1,18,67,68,-1,18,68,16,-1,16,68,64,-1,16,64,14,-1,30,58,69,-1,30,69,28,-1,28,69,70,-1,28,70,26,-1,26,70,71,-1,26,71,24,-1,24,71,65,-1,24,65,22,-1,
        ]
    }
}
Shape{
    appearance Appearance {
        material  Material 	{
            diffuseColor 0.34901960784313724 0.34901960784313724 0.34901960784313724
            specularColor 0.023529411764705882 0.023529411764705882 0.023529411764705882
            ambientIntensity 0.498
            transparency 0.0
            shininess 0.5
        }
    }
    geometry IndexedFaceSet {
        ccw TRUE
        solid FALSE
        coord DEF co Coordinate {
            point [
                1.6236 -1.6318 1.1811, 1.6236 -1.6814 1.1811, 1.6334 -1.6318 1.1811, 1.633 -1.6814 1.1811, 1.641 -1.6805 1.1811, 1.6466 -1.6786 1.1811, 1.6509 -1.6758 1.1811, 1.6521 -1.6747 1.1811, 1.6555 -1.6705 1.1811, 1.6576 -1.6656 1.1811, 1.6588 -1.6596 1.1811, 1.659 -1.656 1.1811, 1.6581 -1.6483 1.1811, 1.6564 -1.6435 1.1811, 1.6539 -1.6399 1.1811, 1.6519 -1.6378 1.1811, 1.6413 -1.6326 1.1811, 1.647 -1.6346 1.1811
            ]
        }
        coordIndex [
            0,1,2,-1,2,1,3,-1,2,3,4,-1,4,5,2,-1,2,5,6,-1,2,6,7,-1,7,8,2,-1,2,8,9,-1,2,9,10,-1,10,11,2,-1,2,11,12,-1,2,12,13,-1,13,14,2,-1,2,14,15,-1,2,15,16,-1,16,15,17,-1,
        ]
    }
}
Shape{
    appearance Appearance {
        material  Material 	{
            diffuseColor 1.0 1.0 1.0
            specularColor 0.5019607843137255 0.5019607843137255 0.5019607843137255
            ambientIntensity 1.0
            transparency 0.0
            shininess 0.5
        }
    }
    geometry IndexedFaceSet {
        ccw TRUE
        solid FALSE
        coord DEF co Coordinate {
            point [
                1.539 -1.6774 1.185, 1.539 -1.6774 1.1811, 1.5384 -1.6795 1.1811, 1.5384 -1.6795 1.185, 1.538 -1.6811 1.1811, 1.538 -1.6811 1.185, 1.5378 -1.6811 1.185, 1.5378 -1.6811 1.1811, 1.5368 -1.6773 1.185, 1.5368 -1.6773 1.1811, 1.5248 -1.6428 1.185, 1.5287 -1.654 1.1811, 1.5248 -1.6428 1.1811, 1.5158 -1.6428 1.185, 1.5158 -1.6428 1.1811, 1.5338 -1.6886 1.1811, 1.5338 -1.6886 1.185, 1.5287 -1.6756 1.1811, 1.5303 -1.697 1.1811, 1.5303 -1.697 1.185, 1.5335 -1.6893 1.1811, 1.5287 -1.6999 1.1811, 1.5287 -1.6999 1.1811, 1.5272 -1.7016 1.185, 1.5287 -1.6999 1.185, 1.5272 -1.7016 1.1811, 1.5257 -1.7026 1.1811, 1.5257 -1.7026 1.185, 1.5239 -1.7033 1.1811, 1.5239 -1.7033 1.185, 1.522 -1.7035 1.1811, 1.522 -1.7035 1.185, 1.5191 -1.7031 1.1811, 1.5191 -1.7031 1.185, 1.5174 -1.7026 1.1811, 1.5174 -1.7026 1.185, 1.5174 -1.7097 1.185, 1.5174 -1.7097 1.1811, 1.5209 -1.7103 1.1811, 1.5209 -1.7103 1.185, 1.5226 -1.7104 1.1811, 1.5226 -1.7104 1.185, 1.5259 -1.71 1.1811, 1.5259 -1.71 1.185, 1.5287 -1.7089 1.1811, 1.5291 -1.7088 1.185, 1.5291 -1.7088 1.1811, 1.5319 -1.7068 1.1811, 1.5319 -1.7068 1.185, 1.5324 -1.7063 1.1811, 1.5324 -1.7063 1.185, 1.5354 -1.7028 1.1811, 1.5354 -1.7028 1.185, 1.539 -1.6957 1.1811, 1.539 -1.6957 1.185, 1.5599 -1.6428 1.1811, 1.5599 -1.6428 1.185, 1.5416 -1.6893 1.1811, 1.5515 -1.6428 1.185, 1.5515 -1.6428 1.1811, 1.493 -1.6898 1.185, 1.493 -1.6898 1.1811, 1.5002 -1.689 1.185, 1.4976 -1.6893 1.1811, 1.5002 -1.689 1.1811, 1.5045 -1.6874 1.1811, 1.5045 -1.6874 1.185, 1.5064 -1.6862 1.1811, 1.5064 -1.6862 1.185, 1.5087 -1.6842 1.1811, 1.5087 -1.6842 1.185, 1.5102 -1.682 1.1811, 1.5102 -1.682 1.185, 1.5112 -1.6795 1.1811, 1.5112 -1.6795 1.185, 1.5116 -1.6762 1.1811, 1.5116 -1.6762 1.185, 1.5112 -1.6732 1.1811, 1.5112 -1.6732 1.185, 1.5104 -1.6709 1.1811, 1.5104 -1.6709 1.185, 1.5089 -1.6686 1.1811, 1.5089 -1.6686 1.185, 1.507 -1.6669 1.1811, 1.507 -1.6669 1.185, 1.5016 -1.6639 1.1811, 1.5016 -1.6639 1.185, 1.4985 -1.6627 1.1811, 1.4985 -1.6627 1.185, 1.4935 -1.6605 1.1811, 1.4935 -1.6605 1.185, 1.4907 -1.6587 1.1811, 1.4907 -1.6587 1.185, 1.4899 -1.6579 1.1811, 1.4899 -1.6579 1.185, 1.4893 -1.6568 1.1811, 1.4893 -1.6568 1.185, 1.489 -1.6555 1.1811, 1.489 -1.6555 1.185, 1.4889 -1.6545 1.1811, 1.4889 -1.6545 1.185, 1.489 -1.6532 1.1811, 1.489 -1.6532 1.185, 1.4894 -1.6521 1.1811, 1.4894 -1.6521 1.185, 1.4901 -1.6511 1.1811, 1.4901 -1.6511 1.185, 1.4913 -1.65 1.1811, 1.4913 -1.65 1.185, 1.4932 -1.649 1.1811, 1.4932 -1.649 1.185, 1.4953 -1.6485 1.1811, 1.4953 -1.6485 1.185, 1.4977 -1.6483 1.1811, 1.4977 -1.6483 1.185, 1.503 -1.6489 1.1811, 1.503 -1.6489 1.185, 1.5075 -1.6505 1.1811, 1.5075 -1.6505 1.185, 1.5094 -1.6516 1.1811, 1.5094 -1.6516 1.185, 1.5094 -1.6438 1.185, 1.5094 -1.6438 1.1811, 1.5031 -1.642 1.1811, 1.5031 -1.642 1.185, 1.4985 -1.6417 1.1811, 1.4985 -1.6417 1.185, 1.4925 -1.6424 1.1811, 1.4925 -1.6424 1.185, 1.4881 -1.644 1.1811, 1.4881 -1.644 1.185, 1.4858 -1.6454 1.1811, 1.4858 -1.6454 1.185, 1.4843 -1.6467 1.1811, 1.4834 -1.6475 1.185, 1.4834 -1.6475 1.1811, 1.4819 -1.6497 1.1811, 1.4819 -1.6497 1.185, 1.4809 -1.6523 1.1811, 1.4809 -1.6523 1.185, 1.4806 -1.6552 1.1811, 1.4806 -1.6552 1.185, 1.4809 -1.6583 1.1811, 1.4809 -1.6583 1.185, 1.4818 -1.6608 1.1811, 1.4818 -1.6608 1.185, 1.4829 -1.6625 1.1811, 1.4829 -1.6625 1.185, 1.4928 -1.6685 1.1811, 1.4928 -1.6685 1.185, 1.488 -1.6663 1.185, 1.4842 -1.6638 1.1811, 1.4842 -1.6638 1.185, 1.4843 -1.6639 1.1811, 1.488 -1.6663 1.1811, 1.4981 -1.6708 1.1811, 1.4981 -1.6708 1.185, 1.5012 -1.6726 1.1811, 1.5012 -1.6726 1.185, 1.5022 -1.6737 1.1811, 1.5022 -1.6737 1.185, 1.5029 -1.6748 1.1811, 1.5029 -1.6748 1.185, 1.5032 -1.676 1.1811, 1.5032 -1.676 1.185, 1.5033 -1.677 1.1811, 1.5033 -1.677 1.185, 1.5031 -1.6786 1.1811, 1.5031 -1.6786 1.185, 1.5027 -1.6797 1.1811, 1.5027 -1.6797 1.185, 1.502 -1.6807 1.1811, 1.502 -1.6807 1.185, 1.5011 -1.6816 1.1811, 1.5011 -1.6816 1.185, 1.5004 -1.682 1.1811, 1.5004 -1.682 1.185, 1.4983 -1.6828 1.1811, 1.4983 -1.6828 1.185, 1.4942 -1.6832 1.1811, 1.4942 -1.6832 1.185, 1.4938 -1.6832 1.1811, 1.4938 -1.6832 1.185, 1.4805 -1.6788 1.1811, 1.4805 -1.6788 1.185, 1.4837 -1.6807 1.185, 1.4887 -1.6827 1.1811, 1.4887 -1.6827 1.185, 1.4843 -1.681 1.1811, 1.4837 -1.6807 1.1811, 1.4805 -1.6871 1.185, 1.4805 -1.6871 1.1811, 1.4843 -1.6884 1.1811, 1.4863 -1.6891 1.185, 1.4877 -1.6893 1.1811, 1.4863 -1.6891 1.1811, 1.4616 -1.6887 1.185, 1.4696 -1.6887 1.185, 1.4616 -1.6816 1.185, 1.4696 -1.6592 1.185, 1.4616 -1.6595 1.185, 1.4442 -1.6691 1.185, 1.4462 -1.6682 1.185, 1.4613 -1.6816 1.185, 1.4571 -1.6804 1.185, 1.4601 -1.6835 1.185, 1.4548 -1.682 1.185, 1.4508 -1.6671 1.185, 1.4616 -1.6657 1.185, 1.4616 -1.6701 1.185, 1.4615 -1.6706 1.185, 1.461 -1.6742 1.185, 1.4598 -1.6771 1.185, 1.4581 -1.6795 1.185, 1.4613 -1.656 1.185, 1.469 -1.653 1.185, 1.4604 -1.6531 1.185, 1.4677 -1.6493 1.185, 1.4595 -1.6514 1.185, 1.4661 -1.6467 1.185, 1.4583 -1.6501 1.185, 1.4639 -1.6447 1.185, 1.4568 -1.6492 1.185, 1.4612 -1.6432 1.185, 1.455 -1.6486 1.185, 1.4578 -1.6422 1.185, 1.4522 -1.6483 1.185, 1.453 -1.6417 1.185, 1.448 -1.6487 1.185, 1.4454 -1.6426 1.185, 1.4429 -1.6503 1.185, 1.4393 -1.6448 1.185, 1.4372 -1.6538 1.185, 1.4372 -1.646 1.185, 1.4425 -1.6804 1.185, 1.4366 -1.6862 1.185, 1.4432 -1.6811 1.185, 1.4394 -1.6881 1.185, 1.4448 -1.6822 1.185, 1.4424 -1.6893 1.185, 1.4466 -1.6829 1.185, 1.4473 -1.6898 1.185, 1.4494 -1.6832 1.185, 1.4514 -1.6894 1.185, 1.4524 -1.6829 1.185, 1.4547 -1.6882 1.185, 1.4575 -1.6863 1.185, 1.4409 -1.6745 1.185, 1.4327 -1.6755 1.185, 1.4409 -1.6758 1.185, 1.4327 -1.6764 1.185, 1.4411 -1.6776 1.185, 1.4331 -1.6801 1.185, 1.4416 -1.6791 1.185, 1.4341 -1.6828 1.185, 1.4357 -1.6853 1.185, 1.4479 -1.6614 1.185, 1.4418 -1.6629 1.185, 1.443 -1.67 1.185, 1.4384 -1.6647 1.185, 1.442 -1.6711 1.185, 1.4359 -1.6668 1.185, 1.4413 -1.6726 1.185, 1.4343 -1.6691 1.185, 1.4332 -1.672 1.185, 1.4522 -1.6483 1.1811, 1.455 -1.6486 1.1811, 1.4568 -1.6492 1.1811, 1.4583 -1.6501 1.1811, 1.4595 -1.6514 1.1811, 1.4604 -1.6531 1.1811, 1.4613 -1.656 1.1811, 1.4616 -1.6595 1.1811, 1.4479 -1.6614 1.1811, 1.4418 -1.6629 1.1811, 1.4384 -1.6647 1.1811, 1.4359 -1.6668 1.1811, 1.4343 -1.6691 1.1811, 1.4332 -1.672 1.1811, 1.4327 -1.6755 1.1811, 1.4327 -1.6764 1.1811, 1.4331 -1.6801 1.1811, 1.4341 -1.6828 1.1811, 1.4357 -1.6853 1.1811, 1.4366 -1.6862 1.1811, 1.4473 -1.6898 1.1811, 1.4426 -1.6893 1.1811, 1.4424 -1.6893 1.1811, 1.4394 -1.6881 1.1811, 1.4514 -1.6894 1.1811, 1.4516 -1.6893 1.1811, 1.4547 -1.6882 1.1811, 1.4575 -1.6863 1.1811, 1.4601 -1.6835 1.1811, 1.4613 -1.6816 1.1811, 1.4616 -1.6816 1.1811, 1.4616 -1.6887 1.1811, 1.4696 -1.6887 1.1811, 1.4696 -1.6592 1.1811, 1.469 -1.653 1.1811, 1.4677 -1.6493 1.1811, 1.4661 -1.6467 1.1811, 1.4639 -1.6447 1.1811, 1.4612 -1.6432 1.1811, 1.4578 -1.6422 1.1811, 1.453 -1.6417 1.1811, 1.4454 -1.6426 1.1811, 1.4393 -1.6448 1.1811, 1.4372 -1.646 1.1811, 1.4372 -1.6538 1.1811, 1.4429 -1.6503 1.1811, 1.448 -1.6487 1.1811, 1.4581 -1.6795 1.1811, 1.4571 -1.6804 1.1811, 1.4548 -1.682 1.1811, 1.4524 -1.6829 1.1811, 1.4494 -1.6832 1.1811, 1.4616 -1.6701 1.1811, 1.4615 -1.6706 1.1811, 1.461 -1.6742 1.1811, 1.4598 -1.6771 1.1811, 1.4616 -1.6657 1.1811, 1.4508 -1.6671 1.1811, 1.443 -1.67 1.1811, 1.4442 -1.6691 1.1811, 1.4462 -1.6682 1.1811, 1.4409 -1.6758 1.1811, 1.4409 -1.6745 1.1811, 1.4413 -1.6726 1.1811, 1.442 -1.6711 1.1811, 1.4432 -1.6811 1.1811, 1.4425 -1.6804 1.1811, 1.4416 -1.6791 1.1811, 1.4411 -1.6776 1.1811, 1.4466 -1.6829 1.1811, 1.4448 -1.6822 1.1811
            ]
        }
        coordIndex [
            0,1,2,-1,0,2,3,-1,3,2,4,-1,3,4,5,-1,6,5,7,-1,7,5,4,-1,8,6,9,-1,9,6,7,-1,8,9,10,-1,10,9,11,-1,10,11,12,-1,13,10,14,-1,14,10,12,-1,15,16,17,-1,17,16,13,-1,17,13,14,-1,18,19,20,-1,20,19,16,-1,20,16,15,-1,19,18,21,-1,22,23,21,-1,21,23,24,-1,21,24,19,-1,22,25,23,-1,23,25,26,-1,23,26,27,-1,27,26,28,-1,27,28,29,-1,29,28,30,-1,29,30,31,-1,31,30,32,-1,31,32,33,-1,33,32,34,-1,33,34,35,-1,36,35,37,-1,37,35,34,-1,36,37,38,-1,36,38,39,-1,39,38,40,-1,39,40,41,-1,41,40,42,-1,41,42,43,-1,43,42,44,-1,43,44,45,-1,44,46,45,-1,45,46,47,-1,45,47,48,-1,48,47,49,-1,48,49,50,-1,50,49,51,-1,50,51,52,-1,52,51,53,-1,52,53,54,-1,55,56,57,-1,57,56,54,-1,57,54,53,-1,58,56,59,-1,59,56,55,-1,0,58,1,-1,1,58,59,-1,3,5,54,-1,56,58,54,-1,54,58,0,-1,54,0,3,-1,10,13,8,-1,8,13,16,-1,8,16,6,-1,52,24,50,-1,50,24,23,-1,35,36,33,-1,33,36,39,-1,33,39,31,-1,31,39,41,-1,31,41,29,-1,29,41,43,-1,29,43,27,-1,27,43,45,-1,27,45,23,-1,23,45,48,-1,23,48,50,-1,5,6,54,-1,54,6,16,-1,54,16,52,-1,52,16,19,-1,52,19,24,-1,60,61,62,-1,62,61,63,-1,63,64,62,-1,62,64,65,-1,62,65,66,-1,66,65,67,-1,66,67,68,-1,68,67,69,-1,68,69,70,-1,70,69,71,-1,70,71,72,-1,72,71,73,-1,72,73,74,-1,74,73,75,-1,74,75,76,-1,76,75,77,-1,76,77,78,-1,78,77,79,-1,78,79,80,-1,80,79,81,-1,80,81,82,-1,82,81,83,-1,82,83,84,-1,84,83,85,-1,84,85,86,-1,86,85,87,-1,86,87,88,-1,88,87,89,-1,88,89,90,-1,90,89,91,-1,90,91,92,-1,92,91,93,-1,92,93,94,-1,94,93,95,-1,94,95,96,-1,96,95,97,-1,96,97,98,-1,98,97,99,-1,98,99,100,-1,100,99,101,-1,100,101,102,-1,102,101,103,-1,102,103,104,-1,104,103,105,-1,104,105,106,-1,106,105,107,-1,106,107,108,-1,108,107,109,-1,108,109,110,-1,110,109,111,-1,110,111,112,-1,112,111,113,-1,112,113,114,-1,114,113,115,-1,114,115,116,-1,116,115,117,-1,116,117,118,-1,118,117,119,-1,118,119,120,-1,121,120,122,-1,122,120,119,-1,121,122,123,-1,121,123,124,-1,124,123,125,-1,124,125,126,-1,126,125,127,-1,126,127,128,-1,128,127,129,-1,128,129,130,-1,130,129,131,-1,130,131,132,-1,131,133,132,-1,132,133,134,-1,133,135,134,-1,134,135,136,-1,134,136,137,-1,137,136,138,-1,137,138,139,-1,139,138,140,-1,139,140,141,-1,141,140,142,-1,141,142,143,-1,143,142,144,-1,143,144,145,-1,145,144,146,-1,145,146,147,-1,148,149,150,-1,147,146,151,-1,147,151,152,-1,152,151,153,-1,152,153,150,-1,150,153,154,-1,150,154,148,-1,149,148,155,-1,149,155,156,-1,156,155,157,-1,156,157,158,-1,158,157,159,-1,158,159,160,-1,160,159,161,-1,160,161,162,-1,162,161,163,-1,162,163,164,-1,164,163,165,-1,164,165,166,-1,166,165,167,-1,166,167,168,-1,168,167,169,-1,168,169,170,-1,170,169,171,-1,170,171,172,-1,172,171,173,-1,172,173,174,-1,174,173,175,-1,174,175,176,-1,176,175,177,-1,176,177,178,-1,178,177,179,-1,178,179,180,-1,180,179,181,-1,180,181,182,-1,183,184,185,-1,182,181,186,-1,182,186,187,-1,187,186,188,-1,187,188,185,-1,185,188,189,-1,185,189,183,-1,190,184,191,-1,191,184,183,-1,191,192,190,-1,190,192,193,-1,61,60,194,-1,194,60,193,-1,194,193,195,-1,195,193,192,-1,106,108,130,-1,130,108,128,-1,156,88,149,-1,149,88,90,-1,66,68,172,-1,172,68,70,-1,172,70,170,-1,170,70,72,-1,170,72,168,-1,168,72,74,-1,168,74,166,-1,166,74,76,-1,166,76,164,-1,164,76,78,-1,164,78,162,-1,162,78,80,-1,162,80,160,-1,160,80,82,-1,160,82,158,-1,158,82,84,-1,158,84,156,-1,156,84,86,-1,156,86,88,-1,60,182,193,-1,193,182,187,-1,193,187,190,-1,190,187,185,-1,190,185,184,-1,108,110,128,-1,128,110,112,-1,128,112,126,-1,126,112,114,-1,126,114,124,-1,124,114,116,-1,124,116,121,-1,121,116,118,-1,121,118,120,-1,172,174,66,-1,66,174,176,-1,66,176,62,-1,62,176,178,-1,62,178,60,-1,60,178,180,-1,60,180,182,-1,130,132,106,-1,106,132,134,-1,106,134,104,-1,104,134,137,-1,104,137,102,-1,102,137,139,-1,102,139,100,-1,100,139,141,-1,100,141,98,-1,98,141,143,-1,98,143,96,-1,96,143,145,-1,96,145,94,-1,94,145,147,-1,94,147,92,-1,92,147,152,-1,92,152,90,-1,90,152,150,-1,90,150,149,-1,196,197,198,-1,198,197,199,-1,200,201,202,-1,203,204,205,-1,205,204,206,-1,207,208,199,-1,199,208,209,-1,209,210,199,-1,199,210,211,-1,199,211,198,-1,198,211,212,-1,198,212,203,-1,203,212,213,-1,203,213,204,-1,202,207,200,-1,200,207,199,-1,200,199,214,-1,214,199,215,-1,214,215,216,-1,216,215,217,-1,216,217,218,-1,218,217,219,-1,218,219,220,-1,220,219,221,-1,220,221,222,-1,222,221,223,-1,222,223,224,-1,224,223,225,-1,224,225,226,-1,226,225,227,-1,226,227,228,-1,228,227,229,-1,228,229,230,-1,230,229,231,-1,230,231,232,-1,232,231,233,-1,234,235,236,-1,236,235,237,-1,236,237,238,-1,238,237,239,-1,238,239,240,-1,240,239,241,-1,240,241,242,-1,242,241,243,-1,242,243,244,-1,244,243,245,-1,244,245,206,-1,206,245,246,-1,206,246,205,-1,247,248,249,-1,249,248,250,-1,249,250,251,-1,251,250,252,-1,251,252,253,-1,253,252,254,-1,253,254,234,-1,234,254,255,-1,234,255,235,-1,200,256,201,-1,201,256,257,-1,201,257,258,-1,258,257,259,-1,258,259,260,-1,260,259,261,-1,260,261,262,-1,262,261,263,-1,262,263,247,-1,247,263,264,-1,247,264,248,-1,226,265,266,-1,226,266,224,-1,224,266,267,-1,224,267,222,-1,222,267,268,-1,222,268,220,-1,220,268,269,-1,220,269,218,-1,218,269,270,-1,218,270,216,-1,216,270,271,-1,216,271,214,-1,214,271,272,-1,214,272,200,-1,256,200,273,-1,273,200,272,-1,256,273,274,-1,256,274,257,-1,257,274,275,-1,257,275,259,-1,259,275,276,-1,259,276,261,-1,261,276,277,-1,261,277,263,-1,263,277,278,-1,263,278,264,-1,264,278,279,-1,264,279,248,-1,248,279,280,-1,248,280,250,-1,250,280,281,-1,250,281,252,-1,252,281,282,-1,252,282,254,-1,254,282,283,-1,254,283,255,-1,255,283,284,-1,255,284,235,-1,285,241,286,-1,286,241,239,-1,286,239,287,-1,287,239,237,-1,287,237,288,-1,288,237,235,-1,288,235,284,-1,241,285,289,-1,241,289,243,-1,243,289,290,-1,243,290,245,-1,290,291,245,-1,245,291,292,-1,245,292,246,-1,246,292,293,-1,246,293,205,-1,205,293,294,-1,205,294,203,-1,198,203,295,-1,295,203,294,-1,196,198,296,-1,296,198,295,-1,197,196,297,-1,297,196,296,-1,199,197,298,-1,298,197,297,-1,199,298,299,-1,199,299,215,-1,215,299,300,-1,215,300,217,-1,217,300,301,-1,217,301,219,-1,219,301,302,-1,219,302,221,-1,221,302,303,-1,221,303,223,-1,223,303,304,-1,223,304,225,-1,225,304,305,-1,225,305,227,-1,227,305,306,-1,227,306,229,-1,229,306,307,-1,229,307,231,-1,231,307,308,-1,231,308,233,-1,232,233,309,-1,309,233,308,-1,232,309,310,-1,232,310,230,-1,230,310,311,-1,230,311,228,-1,228,311,265,-1,228,265,226,-1,213,312,313,-1,213,313,204,-1,204,313,314,-1,204,314,206,-1,206,314,315,-1,206,315,244,-1,244,315,316,-1,244,316,242,-1,209,317,318,-1,209,318,210,-1,210,318,319,-1,210,319,211,-1,211,319,320,-1,211,320,212,-1,212,320,312,-1,212,312,213,-1,209,208,317,-1,317,208,321,-1,208,207,321,-1,321,207,322,-1,258,323,324,-1,258,324,201,-1,201,324,325,-1,201,325,202,-1,202,325,322,-1,202,322,207,-1,249,326,327,-1,249,327,247,-1,247,327,328,-1,247,328,262,-1,262,328,329,-1,262,329,260,-1,260,329,323,-1,260,323,258,-1,236,330,331,-1,236,331,234,-1,234,331,332,-1,234,332,253,-1,253,332,333,-1,253,333,251,-1,251,333,326,-1,251,326,249,-1,242,316,334,-1,242,334,240,-1,240,334,335,-1,240,335,238,-1,238,335,330,-1,238,330,236,-1,
        ]
    }
}
Shape{
    appearance Appearance {
        material  Material 	{
            diffuseColor 0.34901960784313724 0.34901960784313724 0.34901960784313724
            specularColor 0.023529411764705882 0.023529411764705882 0.023529411764705882
            ambientIntensity 0.498
            transparency 0.0
            shininess 0.5
        }
    }
    geometry IndexedFaceSet {
        ccw TRUE
        solid FALSE
        coord DEF co Coordinate {
            point [
                1.4616 -1.6657 1.1811, 1.4508 -1.6671 1.1811, 1.4616 -1.6701 1.1811, 1.4462 -1.6682 1.1811, 1.4442 -1.6691 1.1811, 1.443 -1.67 1.1811, 1.4615 -1.6706 1.1811, 1.461 -1.6742 1.1811, 1.442 -1.6711 1.1811, 1.4598 -1.6771 1.1811, 1.4425 -1.6804 1.1811, 1.4432 -1.6811 1.1811, 1.4571 -1.6804 1.1811, 1.4416 -1.6791 1.1811, 1.4548 -1.682 1.1811, 1.4524 -1.6829 1.1811, 1.4494 -1.6832 1.1811, 1.4413 -1.6726 1.1811, 1.4409 -1.6745 1.1811, 1.4581 -1.6795 1.1811, 1.4409 -1.6758 1.1811, 1.4411 -1.6776 1.1811, 1.4448 -1.6822 1.1811, 1.4466 -1.6829 1.1811
            ]
        }
        coordIndex [
            0,1,2,-1,2,1,3,-1,3,4,2,-1,2,4,5,-1,2,5,6,-1,6,5,7,-1,7,5,8,-1,7,8,9,-1,10,11,12,-1,10,12,13,-1,14,12,15,-1,15,12,16,-1,8,17,9,-1,9,17,18,-1,9,18,19,-1,19,18,20,-1,19,20,12,-1,12,20,21,-1,12,21,13,-1,11,22,12,-1,12,22,23,-1,12,23,16,-1,
        ]
    }
}
Shape{
    appearance Appearance {
        material  Material 	{
            diffuseColor 1.0 1.0 1.0
            specularColor 0.5019607843137255 0.5019607843137255 0.5019607843137255
            ambientIntensity 1.0
            transparency 0.0
            shininess 0.5
        }
    }
    geometry IndexedFaceSet {
        ccw TRUE
        solid FALSE
        coord DEF co Coordinate {
            point [
                1.1062 -1.6979 1.185, 1.113 -1.7063 1.185, 1.1021 -1.6574 1.185, 1.094 -1.578 1.185, 1.1042 -1.5725 1.185, 1.1019 -1.5443 1.185, 1.1304 -1.543 1.185, 1.1446 -1.5764 1.185, 1.1516 -1.5619 1.185, 1.0921 -1.6512 1.185, 1.0958 -1.6863 1.185, 1.1016 -1.688 1.185, 1.1199 -1.5421 1.185, 1.1484 -1.6564 1.185, 1.1527 -1.658 1.185, 1.1908 -1.6688 1.185, 1.1563 -1.6604 1.185, 1.1593 -1.6637 1.185, 1.2549 -1.635 1.185, 1.2407 -1.6107 1.185, 1.1794 -1.6428 1.185, 1.1446 -1.656 1.185, 1.1401 -1.6566 1.185, 1.1341 -1.6286 1.185, 1.1361 -1.6582 1.185, 1.124 -1.6324 1.185, 1.1326 -1.6607 1.185, 1.1147 -1.6389 1.185, 1.1308 -1.6626 1.185, 1.1071 -1.6476 1.185, 1.1284 -1.6664 1.185, 1.127 -1.6707 1.185, 1.1268 -1.6752 1.185, 1.1616 -1.6303 1.185, 1.1506 -1.6275 1.185, 1.1451 -1.6272 1.185, 1.1613 -1.6675 1.185, 1.1623 -1.6717 1.185, 1.1908 -1.6734 1.185, 1.1623 -1.6759 1.185, 1.1906 -1.6783 1.185, 1.1398 -1.5321 1.185, 1.1619 -1.5497 1.185, 1.1506 -1.5229 1.185, 1.1741 -1.5407 1.185, 1.1617 -1.516 1.185, 1.1155 -1.5698 1.185, 1.1204 -1.5696 1.185, 1.1252 -1.5424 1.185, 1.1312 -1.5709 1.185, 1.1415 -1.5747 1.185, 1.1714 -1.6355 1.185, 1.2944 -1.6857 1.185, 1.2809 -1.6604 1.185, 1.2791 -1.689 1.185, 1.2764 -1.6611 1.185, 1.2521 -1.689 1.185, 1.2558 -1.6611 1.185, 1.2495 -1.6885 1.185, 1.1277 -1.6795 1.185, 1.1295 -1.6833 1.185, 1.27 -1.5897 1.185, 1.2736 -1.5897 1.185, 1.2924 -1.565 1.185, 1.2812 -1.5905 1.185, 1.2946 -1.5657 1.185, 1.2893 -1.5933 1.185, 1.3082 -1.5725 1.185, 1.2965 -1.598 1.185, 1.3206 -1.583 1.185, 1.3026 -1.6045 1.185, 1.33 -1.596 1.185, 1.3069 -1.6124 1.185, 1.3356 -1.6099 1.185, 1.3091 -1.6212 1.185, 1.3377 -1.6249 1.185, 1.3093 -1.6254 1.185, 1.3356 -1.6412 1.185, 1.3085 -1.6331 1.185, 1.3298 -1.6557 1.185, 1.3056 -1.6413 1.185, 1.3207 -1.6684 1.185, 1.3008 -1.6486 1.185, 1.3083 -1.6789 1.185, 1.2967 -1.6528 1.185, 1.2893 -1.6576 1.185, 1.2677 -1.5288 1.185, 1.2497 -1.5498 1.185, 1.2828 -1.5464 1.185, 1.26 -1.5621 1.185, 1.2671 -1.5768 1.185, 1.076 -1.6042 1.185, 1.0459 -1.6119 1.185, 1.0746 -1.6153 1.185, 1.0458 -1.6162 1.185, 1.0752 -1.6225 1.185, 1.048 -1.6342 1.185, 1.0785 -1.6336 1.185, 1.0546 -1.6512 1.185, 1.0839 -1.6428 1.185, 1.065 -1.6661 1.185, 1.0793 -1.6782 1.185, 1.1879 -1.6896 1.185, 1.1612 -1.6803 1.185, 1.1824 -1.6997 1.185, 1.1591 -1.6842 1.185, 1.1755 -1.7075 1.185, 1.1566 -1.687 1.185, 1.1664 -1.7139 1.185, 1.1532 -1.6895 1.185, 1.1562 -1.7178 1.185, 1.1492 -1.6911 1.185, 1.1451 -1.7192 1.185, 1.1446 -1.6917 1.185, 1.1433 -1.7191 1.185, 1.1438 -1.6917 1.185, 1.1325 -1.7174 1.185, 1.1397 -1.691 1.185, 1.122 -1.713 1.185, 1.1356 -1.6892 1.185, 1.1321 -1.6866 1.185, 1.1828 -1.5078 1.185, 1.189 -1.5347 1.185, 1.2055 -1.505 1.185, 1.2059 -1.5325 1.185, 1.2243 -1.507 1.185, 1.2215 -1.5344 1.185, 1.2473 -1.5151 1.185, 1.2358 -1.5399 1.185, 1.2487 -1.5488 1.185, 1.0849 -1.5509 1.185, 1.0704 -1.5612 1.185, 1.0863 -1.5849 1.185, 1.0673 -1.5641 1.185, 1.0799 -1.594 1.185, 1.0563 -1.5782 1.185, 1.049 -1.5947 1.185, 1.2535 -1.6606 1.185, 1.2425 -1.6842 1.185, 1.2435 -1.6852 1.185, 1.2549 -1.6609 1.185, 1.2465 -1.6874 1.185, 1.2389 -1.6748 1.185, 1.2393 -1.6782 1.185, 1.2405 -1.6813 1.185, 1.2495 -1.661 1.185, 1.2464 -1.6623 1.185, 1.239 -1.673 1.185, 1.2435 -1.6643 1.185, 1.2416 -1.6664 1.185, 1.2399 -1.6695 1.185, 1.253 -1.6606 1.185, 1.3237 -1.5872 1.1811, 1.33 -1.596 1.1811, 1.334 -1.6061 1.1811, 1.3356 -1.6099 1.1811, 1.3377 -1.6249 1.1811, 1.3206 -1.583 1.1811, 1.3082 -1.5725 1.1811, 1.2946 -1.5657 1.1811, 1.2924 -1.565 1.1811, 1.2828 -1.5464 1.1811, 1.2677 -1.5288 1.1811, 1.2572 -1.5218 1.1811, 1.2473 -1.5151 1.1811, 1.2243 -1.507 1.1811, 1.2055 -1.505 1.1811, 1.1506 -1.5229 1.1811, 1.1524 -1.5218 1.1811, 1.1617 -1.516 1.1811, 1.1828 -1.5078 1.1811, 1.1398 -1.5321 1.1811, 1.1304 -1.543 1.1811, 1.1252 -1.5424 1.1811, 1.1199 -1.5421 1.1811, 1.1019 -1.5443 1.1811, 1.0849 -1.5509 1.1811, 1.0704 -1.5612 1.1811, 1.0673 -1.5641 1.1811, 1.0563 -1.5782 1.1811, 1.0523 -1.5872 1.1811, 1.049 -1.5947 1.1811, 1.047 -1.6061 1.1811, 1.0459 -1.6119 1.1811, 1.0458 -1.6162 1.1811, 1.048 -1.6342 1.1811, 1.0546 -1.6512 1.1811, 1.065 -1.6661 1.1811, 1.0793 -1.6782 1.1811, 1.0958 -1.6863 1.1811, 1.1016 -1.688 1.1811, 1.1022 -1.6893 1.1811, 1.1062 -1.6979 1.1811, 1.113 -1.7063 1.1811, 1.122 -1.713 1.1811, 1.1261 -1.7148 1.1811, 1.1325 -1.7174 1.1811, 1.1433 -1.7191 1.1811, 1.1451 -1.7192 1.1811, 1.1908 -1.6734 1.1811, 1.1562 -1.7178 1.1811, 1.164 -1.7148 1.1811, 1.1664 -1.7139 1.1811, 1.1755 -1.7075 1.1811, 1.1824 -1.6997 1.1811, 1.1879 -1.6896 1.1811, 1.1879 -1.6893 1.1811, 1.1906 -1.6783 1.1811, 1.1908 -1.6688 1.1811, 1.2549 -1.635 1.1811, 1.2407 -1.6107 1.1811, 1.1794 -1.6428 1.1811, 1.1714 -1.6355 1.1811, 1.1616 -1.6303 1.1811, 1.1506 -1.6275 1.1811, 1.1451 -1.6272 1.1811, 1.1341 -1.6286 1.1811, 1.124 -1.6324 1.1811, 1.1147 -1.6389 1.1811, 1.1071 -1.6476 1.1811, 1.1021 -1.6574 1.1811, 1.0921 -1.6512 1.1811, 1.0839 -1.6428 1.1811, 1.0785 -1.6336 1.1811, 1.0752 -1.6225 1.1811, 1.0746 -1.6153 1.1811, 1.0758 -1.6061 1.1811, 1.076 -1.6042 1.1811, 1.0799 -1.594 1.1811, 1.0846 -1.5872 1.1811, 1.0863 -1.5849 1.1811, 1.094 -1.578 1.1811, 1.1042 -1.5725 1.1811, 1.1155 -1.5698 1.1811, 1.1204 -1.5696 1.1811, 1.1312 -1.5709 1.1811, 1.1415 -1.5747 1.1811, 1.1446 -1.5764 1.1811, 1.1516 -1.5619 1.1811, 1.1619 -1.5497 1.1811, 1.1741 -1.5407 1.1811, 1.189 -1.5347 1.1811, 1.2059 -1.5325 1.1811, 1.2215 -1.5344 1.1811, 1.2358 -1.5399 1.1811, 1.2487 -1.5488 1.1811, 1.2497 -1.5498 1.1811, 1.26 -1.5621 1.1811, 1.2671 -1.5768 1.1811, 1.2694 -1.5872 1.1811, 1.27 -1.5897 1.1811, 1.2736 -1.5897 1.1811, 1.2812 -1.5905 1.1811, 1.2893 -1.5933 1.1811, 1.2965 -1.598 1.1811, 1.3026 -1.6045 1.1811, 1.3034 -1.6061 1.1811, 1.3069 -1.6124 1.1811, 1.3091 -1.6212 1.1811, 1.3093 -1.6254 1.1811, 1.3085 -1.6331 1.1811, 1.3056 -1.6413 1.1811, 1.3008 -1.6486 1.1811, 1.2967 -1.6528 1.1811, 1.2893 -1.6576 1.1811, 1.2809 -1.6604 1.1811, 1.2764 -1.6611 1.1811, 1.2558 -1.6611 1.1811, 1.2549 -1.6609 1.1811, 1.2535 -1.6606 1.1811, 1.253 -1.6606 1.1811, 1.2495 -1.661 1.1811, 1.2464 -1.6623 1.1811, 1.2435 -1.6643 1.1811, 1.2416 -1.6664 1.1811, 1.2399 -1.6695 1.1811, 1.239 -1.673 1.1811, 1.2389 -1.6748 1.1811, 1.2393 -1.6782 1.1811, 1.2405 -1.6813 1.1811, 1.2425 -1.6842 1.1811, 1.2435 -1.6852 1.1811, 1.2465 -1.6874 1.1811, 1.2495 -1.6885 1.1811, 1.2521 -1.689 1.1811, 1.2791 -1.689 1.1811, 1.2944 -1.6857 1.1811, 1.3083 -1.6789 1.1811, 1.3207 -1.6684 1.1811, 1.3298 -1.6557 1.1811, 1.3356 -1.6412 1.1811, 1.1446 -1.656 1.1811, 1.1484 -1.6564 1.1811, 1.1527 -1.658 1.1811, 1.1563 -1.6604 1.1811, 1.1593 -1.6637 1.1811, 1.1613 -1.6675 1.1811, 1.1623 -1.6717 1.1811, 1.1623 -1.6759 1.1811, 1.1612 -1.6803 1.1811, 1.1591 -1.6842 1.1811, 1.1566 -1.687 1.1811, 1.1532 -1.6895 1.1811, 1.1492 -1.6911 1.1811, 1.1446 -1.6917 1.1811, 1.1438 -1.6917 1.1811, 1.1397 -1.691 1.1811, 1.1356 -1.6892 1.1811, 1.1321 -1.6866 1.1811, 1.1295 -1.6833 1.1811, 1.1277 -1.6795 1.1811, 1.1268 -1.6752 1.1811, 1.127 -1.6707 1.1811, 1.1284 -1.6664 1.1811, 1.1308 -1.6626 1.1811, 1.1326 -1.6607 1.1811, 1.1361 -1.6582 1.1811, 1.1401 -1.6566 1.1811
            ]
        }
        coordIndex [
            0,1,2,-1,3,4,5,-1,6,7,8,-1,9,10,2,-1,2,10,11,-1,2,11,0,-1,5,4,12,-1,13,14,15,-1,15,14,16,-1,15,16,17,-1,18,19,15,-1,15,19,20,-1,15,20,13,-1,13,20,21,-1,22,23,24,-1,24,23,25,-1,24,25,26,-1,26,25,27,-1,26,27,28,-1,28,27,29,-1,28,29,30,-1,30,29,2,-1,30,2,31,-1,31,2,32,-1,33,34,22,-1,22,34,35,-1,22,35,23,-1,17,36,15,-1,15,36,37,-1,15,37,38,-1,38,37,39,-1,38,39,40,-1,6,8,41,-1,41,8,42,-1,41,42,43,-1,43,42,44,-1,43,44,45,-1,4,46,12,-1,12,46,47,-1,12,47,48,-1,48,47,49,-1,48,49,6,-1,6,49,50,-1,6,50,7,-1,21,20,22,-1,22,20,51,-1,22,51,33,-1,52,53,54,-1,54,53,55,-1,54,55,56,-1,56,55,57,-1,56,57,58,-1,32,2,59,-1,59,2,1,-1,59,1,60,-1,61,62,63,-1,63,62,64,-1,63,64,65,-1,65,64,66,-1,65,66,67,-1,67,66,68,-1,67,68,69,-1,69,68,70,-1,69,70,71,-1,71,70,72,-1,71,72,73,-1,73,72,74,-1,73,74,75,-1,75,74,76,-1,75,76,77,-1,77,76,78,-1,77,78,79,-1,79,78,80,-1,79,80,81,-1,81,80,82,-1,81,82,83,-1,83,82,84,-1,83,84,52,-1,52,84,85,-1,52,85,53,-1,86,87,88,-1,88,87,89,-1,88,89,63,-1,63,89,90,-1,63,90,61,-1,91,92,93,-1,93,92,94,-1,93,94,95,-1,95,94,96,-1,95,96,97,-1,97,96,98,-1,97,98,99,-1,99,98,100,-1,99,100,9,-1,9,100,101,-1,9,101,10,-1,40,39,102,-1,102,39,103,-1,102,103,104,-1,104,103,105,-1,104,105,106,-1,106,105,107,-1,106,107,108,-1,108,107,109,-1,108,109,110,-1,110,109,111,-1,110,111,112,-1,112,111,113,-1,112,113,114,-1,114,113,115,-1,114,115,116,-1,116,115,117,-1,116,117,118,-1,118,117,119,-1,118,119,1,-1,1,119,120,-1,1,120,60,-1,45,44,121,-1,121,44,122,-1,121,122,123,-1,123,122,124,-1,123,124,125,-1,125,124,126,-1,125,126,127,-1,127,126,128,-1,127,128,86,-1,86,128,129,-1,86,129,87,-1,5,130,3,-1,3,130,131,-1,3,131,132,-1,132,131,133,-1,132,133,134,-1,134,133,135,-1,134,135,91,-1,91,135,136,-1,91,136,92,-1,137,138,139,-1,57,140,58,-1,58,140,137,-1,58,137,141,-1,141,137,139,-1,142,143,137,-1,137,143,144,-1,137,144,138,-1,145,146,147,-1,146,148,147,-1,147,148,149,-1,147,149,150,-1,142,137,147,-1,147,137,151,-1,147,151,145,-1,152,69,153,-1,153,69,71,-1,153,71,154,-1,154,71,73,-1,154,73,155,-1,155,73,75,-1,155,75,156,-1,152,157,69,-1,69,157,158,-1,69,158,67,-1,67,158,159,-1,67,159,65,-1,65,159,160,-1,65,160,63,-1,63,160,161,-1,63,161,88,-1,88,161,162,-1,88,162,86,-1,86,162,127,-1,127,162,163,-1,163,164,127,-1,127,164,165,-1,127,165,125,-1,125,165,166,-1,125,166,123,-1,167,43,168,-1,168,43,45,-1,168,45,169,-1,169,45,121,-1,169,121,170,-1,170,121,123,-1,170,123,166,-1,43,167,171,-1,43,171,41,-1,41,171,172,-1,41,172,6,-1,6,172,173,-1,6,173,48,-1,48,173,174,-1,48,174,12,-1,12,174,175,-1,12,175,5,-1,5,175,176,-1,5,176,130,-1,130,176,177,-1,130,177,131,-1,131,177,178,-1,131,178,133,-1,136,135,179,-1,179,135,133,-1,179,133,178,-1,179,180,136,-1,136,180,181,-1,136,181,92,-1,92,181,182,-1,182,183,92,-1,92,183,184,-1,92,184,94,-1,94,184,185,-1,94,185,96,-1,96,185,186,-1,96,186,98,-1,98,186,187,-1,98,187,100,-1,100,187,188,-1,100,188,101,-1,101,188,189,-1,101,189,10,-1,10,189,190,-1,10,190,11,-1,11,190,191,-1,11,191,0,-1,191,192,0,-1,0,192,193,-1,0,193,1,-1,1,193,194,-1,1,194,118,-1,118,194,195,-1,118,195,116,-1,195,196,116,-1,116,196,197,-1,116,197,114,-1,114,197,198,-1,114,198,112,-1,199,38,40,-1,112,198,200,-1,201,108,200,-1,200,108,110,-1,200,110,112,-1,201,202,108,-1,108,202,203,-1,108,203,106,-1,106,203,204,-1,106,204,104,-1,104,204,205,-1,104,205,102,-1,102,205,206,-1,102,206,40,-1,40,206,207,-1,40,207,199,-1,15,38,208,-1,208,38,199,-1,18,15,209,-1,209,15,208,-1,19,18,210,-1,210,18,209,-1,20,19,211,-1,211,19,210,-1,20,211,212,-1,20,212,51,-1,51,212,213,-1,51,213,33,-1,33,213,214,-1,33,214,34,-1,34,214,215,-1,34,215,35,-1,35,215,216,-1,35,216,23,-1,23,216,217,-1,23,217,25,-1,25,217,218,-1,25,218,27,-1,27,218,219,-1,27,219,29,-1,29,219,220,-1,29,220,2,-1,2,220,221,-1,2,221,9,-1,9,221,222,-1,9,222,99,-1,99,222,223,-1,99,223,97,-1,97,223,224,-1,97,224,95,-1,95,224,225,-1,95,225,93,-1,93,225,226,-1,93,226,91,-1,91,226,227,-1,91,227,228,-1,229,132,228,-1,228,132,134,-1,228,134,91,-1,229,230,132,-1,132,230,231,-1,132,231,3,-1,3,231,232,-1,3,232,4,-1,4,232,233,-1,4,233,46,-1,46,233,234,-1,46,234,47,-1,47,234,235,-1,47,235,49,-1,49,235,236,-1,49,236,50,-1,50,236,237,-1,50,237,7,-1,7,237,238,-1,7,238,8,-1,8,238,239,-1,8,239,42,-1,42,239,240,-1,42,240,44,-1,44,240,241,-1,44,241,122,-1,122,241,242,-1,122,242,124,-1,124,242,243,-1,124,243,126,-1,126,243,244,-1,126,244,128,-1,128,244,245,-1,128,245,129,-1,129,245,246,-1,129,246,87,-1,87,246,247,-1,87,247,89,-1,89,247,248,-1,89,248,90,-1,90,248,61,-1,61,248,249,-1,61,249,250,-1,62,61,251,-1,251,61,250,-1,62,251,252,-1,62,252,64,-1,64,252,253,-1,64,253,66,-1,66,253,254,-1,66,254,68,-1,68,254,255,-1,68,255,70,-1,70,255,256,-1,70,256,72,-1,256,257,72,-1,72,257,258,-1,72,258,74,-1,74,258,259,-1,74,259,76,-1,76,259,260,-1,76,260,78,-1,78,260,261,-1,78,261,80,-1,80,261,262,-1,80,262,82,-1,82,262,263,-1,82,263,84,-1,84,263,264,-1,84,264,85,-1,85,264,265,-1,85,265,53,-1,53,265,266,-1,53,266,55,-1,57,55,267,-1,267,55,266,-1,57,267,268,-1,57,268,140,-1,140,268,269,-1,140,269,137,-1,137,269,270,-1,137,270,151,-1,151,270,271,-1,151,271,145,-1,145,271,272,-1,145,272,146,-1,146,272,273,-1,146,273,148,-1,148,273,274,-1,148,274,149,-1,149,274,275,-1,149,275,150,-1,150,275,276,-1,150,276,147,-1,147,276,277,-1,147,277,142,-1,142,277,278,-1,142,278,143,-1,143,278,279,-1,143,279,144,-1,144,279,280,-1,144,280,138,-1,138,280,281,-1,138,281,139,-1,139,281,282,-1,139,282,141,-1,141,282,283,-1,141,283,58,-1,58,283,284,-1,58,284,56,-1,54,56,285,-1,285,56,284,-1,54,285,286,-1,54,286,52,-1,52,286,287,-1,52,287,83,-1,83,287,288,-1,83,288,81,-1,81,288,289,-1,81,289,79,-1,79,289,290,-1,79,290,77,-1,77,290,156,-1,77,156,75,-1,21,291,292,-1,21,292,13,-1,13,292,293,-1,13,293,14,-1,14,293,294,-1,14,294,16,-1,16,294,295,-1,16,295,17,-1,17,295,296,-1,17,296,36,-1,36,296,297,-1,36,297,37,-1,37,297,298,-1,37,298,39,-1,39,298,299,-1,39,299,103,-1,103,299,300,-1,103,300,105,-1,105,300,301,-1,105,301,107,-1,107,301,302,-1,107,302,109,-1,109,302,303,-1,109,303,111,-1,111,303,304,-1,111,304,113,-1,113,304,305,-1,113,305,115,-1,115,305,306,-1,115,306,117,-1,117,306,307,-1,117,307,119,-1,119,307,308,-1,119,308,120,-1,120,308,309,-1,120,309,60,-1,60,309,310,-1,60,310,59,-1,59,310,311,-1,59,311,32,-1,32,311,312,-1,32,312,31,-1,31,312,313,-1,31,313,30,-1,30,313,314,-1,30,314,28,-1,28,314,315,-1,28,315,26,-1,26,315,316,-1,26,316,24,-1,24,316,317,-1,24,317,22,-1,22,317,291,-1,22,291,21,-1,
        ]
    }
}
Shape{
    appearance Appearance {
        material  Material 	{
            diffuseColor 0.34901960784313724 0.34901960784313724 0.34901960784313724
            specularColor 0.023529411764705882 0.023529411764705882 0.023529411764705882
            ambientIntensity 0.498
            transparency 0.0
            shininess 0.5
        }
    }
    geometry IndexedFaceSet {
        ccw TRUE
        solid FALSE
        coord DEF co Coordinate {
            point [
                1.1438 -1.6917 1.1811, 1.1326 -1.6607 1.1811, 1.1308 -1.6626 1.1811, 1.1492 -1.6911 1.1811, 1.1532 -1.6895 1.1811, 1.1484 -1.6564 1.1811, 1.1446 -1.656 1.1811, 1.1401 -1.6566 1.1811, 1.1361 -1.6582 1.1811, 1.1277 -1.6795 1.1811, 1.1295 -1.6833 1.1811, 1.1321 -1.6866 1.1811, 1.1446 -1.6917 1.1811, 1.1284 -1.6664 1.1811, 1.127 -1.6707 1.1811, 1.1268 -1.6752 1.1811, 1.1356 -1.6892 1.1811, 1.1397 -1.691 1.1811, 1.1566 -1.687 1.1811, 1.1591 -1.6842 1.1811, 1.1612 -1.6803 1.1811, 1.1623 -1.6759 1.1811, 1.1623 -1.6717 1.1811, 1.1613 -1.6675 1.1811, 1.1593 -1.6637 1.1811, 1.1563 -1.6604 1.1811, 1.1527 -1.658 1.1811
            ]
        }
        coordIndex [
            0,1,2,-1,3,4,5,-1,6,7,0,-1,0,7,8,-1,0,8,1,-1,9,10,2,-1,2,10,11,-1,6,0,5,-1,5,0,12,-1,5,12,3,-1,13,14,2,-1,2,14,15,-1,2,15,9,-1,11,16,2,-1,2,16,17,-1,2,17,0,-1,4,18,5,-1,5,18,19,-1,5,19,20,-1,20,21,5,-1,5,21,22,-1,5,22,23,-1,23,24,5,-1,5,24,25,-1,5,25,26,-1,
        ]
    }
}
Shape{
    appearance Appearance {
        material  Material 	{
            diffuseColor 1.0 1.0 1.0
            specularColor 0.5019607843137255 0.5019607843137255 0.5019607843137255
            ambientIntensity 1.0
            transparency 0.0
            shininess 0.5
        }
    }
    geometry IndexedFaceSet {
        ccw TRUE
        solid FALSE
        coord DEF co Coordinate {
            point [
                1.5734 -1.5378 1.185, 1.5802 -1.5336 1.185, 1.5713 -1.5358 1.185, 1.5774 -1.5308 1.185, 1.5664 -1.5325 1.185, 1.5713 -1.5265 1.185, 1.5608 -1.5306 1.185, 1.5636 -1.5236 1.185, 1.5528 -1.5297 1.185, 1.5531 -1.5223 1.185, 1.5431 -1.5297 1.185, 1.5348 -1.5223 1.185, 1.5431 -1.5793 1.185, 1.5348 -1.5867 1.185, 1.5524 -1.5793 1.185, 1.5525 -1.5867 1.185, 1.5605 -1.5785 1.185, 1.5632 -1.5854 1.185, 1.566 -1.5765 1.185, 1.5706 -1.5825 1.185, 1.5703 -1.5737 1.185, 1.5768 -1.5782 1.185, 1.5715 -1.5726 1.185, 1.5774 -1.5776 1.185, 1.5749 -1.5684 1.185, 1.5821 -1.5722 1.185, 1.577 -1.5635 1.185, 1.5853 -1.5656 1.185, 1.5782 -1.5576 1.185, 1.5869 -1.5581 1.185, 1.5784 -1.5539 1.185, 1.5871 -1.5537 1.185, 1.5776 -1.5463 1.185, 1.5863 -1.5457 1.185, 1.5758 -1.5414 1.185, 1.5841 -1.5394 1.185, 1.5774 -1.5776 1.1811, 1.5821 -1.5722 1.1811, 1.5853 -1.5656 1.1811, 1.5869 -1.5581 1.1811, 1.5871 -1.5537 1.1811, 1.5863 -1.5457 1.1811, 1.5841 -1.5394 1.1811, 1.5802 -1.5336 1.1811, 1.5774 -1.5308 1.1811, 1.5713 -1.5265 1.1811, 1.5636 -1.5236 1.1811, 1.5531 -1.5223 1.1811, 1.5348 -1.5223 1.1811, 1.5348 -1.5867 1.1811, 1.5525 -1.5867 1.1811, 1.5632 -1.5854 1.1811, 1.5706 -1.5825 1.1811, 1.5768 -1.5782 1.1811, 1.5713 -1.5358 1.1811, 1.5734 -1.5378 1.1811, 1.5758 -1.5414 1.1811, 1.5776 -1.5463 1.1811, 1.5784 -1.5539 1.1811, 1.5528 -1.5297 1.1811, 1.5608 -1.5306 1.1811, 1.5664 -1.5325 1.1811, 1.5431 -1.5297 1.1811, 1.5431 -1.5793 1.1811, 1.5524 -1.5793 1.1811, 1.5715 -1.5726 1.1811, 1.5703 -1.5737 1.1811, 1.566 -1.5765 1.1811, 1.5605 -1.5785 1.1811, 1.5782 -1.5576 1.1811, 1.577 -1.5635 1.1811, 1.5749 -1.5684 1.1811
            ]
        }
        coordIndex [
            0,1,2,-1,2,1,3,-1,2,3,4,-1,4,3,5,-1,4,5,6,-1,6,5,7,-1,6,7,8,-1,8,7,9,-1,8,9,10,-1,10,9,11,-1,10,11,12,-1,12,11,13,-1,12,13,14,-1,14,13,15,-1,14,15,16,-1,16,15,17,-1,16,17,18,-1,18,17,19,-1,18,19,20,-1,20,19,21,-1,20,21,22,-1,22,21,23,-1,22,23,24,-1,24,23,25,-1,24,25,26,-1,26,25,27,-1,26,27,28,-1,28,27,29,-1,28,29,30,-1,30,29,31,-1,30,31,32,-1,32,31,33,-1,32,33,34,-1,34,33,35,-1,34,35,0,-1,0,35,1,-1,23,36,37,-1,23,37,25,-1,25,37,38,-1,25,38,27,-1,27,38,39,-1,27,39,29,-1,29,39,40,-1,29,40,31,-1,31,40,41,-1,31,41,33,-1,33,41,42,-1,33,42,35,-1,35,42,43,-1,35,43,1,-1,1,43,44,-1,1,44,3,-1,3,44,45,-1,3,45,5,-1,5,45,46,-1,5,46,7,-1,7,46,47,-1,7,47,9,-1,11,9,48,-1,48,9,47,-1,13,11,49,-1,49,11,48,-1,15,13,50,-1,50,13,49,-1,15,50,51,-1,15,51,17,-1,17,51,52,-1,17,52,19,-1,19,52,53,-1,19,53,21,-1,21,53,36,-1,21,36,23,-1,2,54,55,-1,2,55,0,-1,0,55,56,-1,0,56,34,-1,34,56,57,-1,34,57,32,-1,32,57,58,-1,32,58,30,-1,8,59,60,-1,8,60,6,-1,6,60,61,-1,6,61,4,-1,4,61,54,-1,4,54,2,-1,8,10,59,-1,59,10,62,-1,10,12,62,-1,62,12,63,-1,12,14,63,-1,63,14,64,-1,22,65,66,-1,22,66,20,-1,20,66,67,-1,20,67,18,-1,18,67,68,-1,18,68,16,-1,16,68,64,-1,16,64,14,-1,30,58,69,-1,30,69,28,-1,28,69,70,-1,28,70,26,-1,26,70,71,-1,26,71,24,-1,24,71,65,-1,24,65,22,-1,
        ]
    }
}
Shape{
    appearance Appearance {
        material  Material 	{
            diffuseColor 0.34901960784313724 0.34901960784313724 0.34901960784313724
            specularColor 0.023529411764705882 0.023529411764705882 0.023529411764705882
            ambientIntensity 0.498
            transparency 0.0
            shininess 0.5
        }
    }
    geometry IndexedFaceSet {
        ccw TRUE
        solid FALSE
        coord DEF co Coordinate {
            point [
                1.5431 -1.5297 1.1811, 1.5431 -1.5793 1.1811, 1.5528 -1.5297 1.1811, 1.5524 -1.5793 1.1811, 1.5605 -1.5785 1.1811, 1.566 -1.5765 1.1811, 1.5703 -1.5737 1.1811, 1.5715 -1.5726 1.1811, 1.5749 -1.5684 1.1811, 1.577 -1.5635 1.1811, 1.5782 -1.5576 1.1811, 1.5784 -1.5539 1.1811, 1.5776 -1.5463 1.1811, 1.5758 -1.5414 1.1811, 1.5734 -1.5378 1.1811, 1.5713 -1.5358 1.1811, 1.5608 -1.5306 1.1811, 1.5664 -1.5325 1.1811
            ]
        }
        coordIndex [
            0,1,2,-1,2,1,3,-1,2,3,4,-1,4,5,2,-1,2,5,6,-1,2,6,7,-1,7,8,2,-1,2,8,9,-1,2,9,10,-1,10,11,2,-1,2,11,12,-1,2,12,13,-1,13,14,2,-1,2,14,15,-1,2,15,16,-1,16,15,17,-1,
        ]
    }
}
Shape{
    appearance Appearance {
        material  Material 	{
            diffuseColor 1.0 1.0 1.0
            specularColor 0.5019607843137255 0.5019607843137255 0.5019607843137255
            ambientIntensity 1.0
            transparency 0.0
            shininess 0.5
        }
    }
    geometry IndexedFaceSet {
        ccw TRUE
        solid FALSE
        coord DEF co Coordinate {
            point [
                1.4585 -1.5803 1.185, 1.4585 -1.5803 1.1811, 1.4525 -1.5797 1.1811, 1.4525 -1.5797 1.185, 1.4478 -1.578 1.1811, 1.4478 -1.578 1.185, 1.4435 -1.5751 1.1811, 1.4435 -1.5751 1.185, 1.442 -1.5736 1.1811, 1.442 -1.5736 1.185, 1.4387 -1.569 1.1811, 1.4387 -1.569 1.185, 1.4367 -1.5637 1.1811, 1.4367 -1.5637 1.185, 1.4357 -1.5558 1.1811, 1.4357 -1.5558 1.185, 1.4357 -1.5552 1.1811, 1.4357 -1.5552 1.185, 1.4365 -1.5472 1.1811, 1.4365 -1.5472 1.185, 1.4385 -1.5415 1.1811, 1.4385 -1.5415 1.185, 1.4415 -1.5369 1.1811, 1.4415 -1.5369 1.185, 1.4424 -1.5359 1.1811, 1.4424 -1.5359 1.185, 1.4465 -1.5324 1.1811, 1.4465 -1.5324 1.185, 1.4515 -1.53 1.1811, 1.4515 -1.53 1.185, 1.4571 -1.5289 1.1811, 1.4571 -1.5289 1.185, 1.4599 -1.5287 1.1811, 1.4599 -1.5287 1.185, 1.4751 -1.5325 1.1811, 1.4751 -1.5325 1.185, 1.474 -1.532 1.185, 1.4675 -1.5296 1.1811, 1.4675 -1.5296 1.185, 1.4724 -1.5314 1.1811, 1.474 -1.532 1.1811, 1.4751 -1.5239 1.185, 1.4751 -1.5239 1.1811, 1.4599 -1.5212 1.1811, 1.4599 -1.5212 1.185, 1.4605 -1.5212 1.185, 1.4724 -1.523 1.1811, 1.4688 -1.522 1.185, 1.4688 -1.522 1.1811, 1.4665 -1.5218 1.1811, 1.4605 -1.5212 1.1811, 1.4517 -1.5221 1.185, 1.4547 -1.5218 1.1811, 1.4517 -1.5221 1.1811, 1.4448 -1.5245 1.1811, 1.4448 -1.5245 1.185, 1.4384 -1.5287 1.1811, 1.4384 -1.5287 1.185, 1.4362 -1.5307 1.1811, 1.4362 -1.5307 1.185, 1.4318 -1.5364 1.1811, 1.4298 -1.5409 1.1811, 1.4286 -1.5435 1.185, 1.4318 -1.5364 1.185, 1.4286 -1.5435 1.1811, 1.4271 -1.5518 1.1811, 1.4271 -1.5518 1.185, 1.4269 -1.5557 1.1811, 1.4269 -1.5557 1.185, 1.4282 -1.566 1.1811, 1.4298 -1.5703 1.1811, 1.4307 -1.5728 1.185, 1.4282 -1.566 1.185, 1.4307 -1.5728 1.1811, 1.4346 -1.5783 1.1811, 1.4346 -1.5783 1.185, 1.4352 -1.579 1.1811, 1.4352 -1.579 1.185, 1.4573 -1.5877 1.1811, 1.4573 -1.5877 1.185, 1.4535 -1.5876 1.185, 1.4404 -1.5833 1.1811, 1.4404 -1.5833 1.185, 1.4465 -1.5861 1.1811, 1.4465 -1.5861 1.185, 1.4517 -1.5872 1.1811, 1.4535 -1.5876 1.1811, 1.4751 -1.584 1.1811, 1.4751 -1.584 1.185, 1.474 -1.5845 1.185, 1.4671 -1.5868 1.185, 1.463 -1.5872 1.1811, 1.4671 -1.5868 1.1811, 1.4724 -1.5851 1.1811, 1.474 -1.5845 1.1811, 1.4751 -1.576 1.185, 1.4751 -1.576 1.1811, 1.4724 -1.5773 1.1811, 1.4689 -1.5788 1.185, 1.4689 -1.5788 1.1811, 1.4616 -1.5802 1.1811, 1.4616 -1.5802 1.185, 1.6893 -1.6639 1.185, 1.6867 -1.6711 1.185, 1.7109 -1.6639 1.185, 1.7134 -1.6711 1.185, 1.6989 -1.6371 1.185, 1.6958 -1.6244 1.185, 1.6713 -1.6887 1.185, 1.6805 -1.6887 1.185, 1.6995 -1.6352 1.185, 1.7 -1.6326 1.185, 1.7047 -1.6244 1.185, 1.7002 -1.6326 1.185, 1.7007 -1.6353 1.185, 1.7012 -1.6371 1.185, 1.7292 -1.6887 1.185, 1.72 -1.6887 1.185, 1.6958 -1.6244 1.1811, 1.7047 -1.6244 1.1811, 1.6713 -1.6887 1.1811, 1.6805 -1.6887 1.1811, 1.6867 -1.6711 1.1811, 1.7134 -1.6711 1.1811, 1.72 -1.6887 1.1811, 1.7292 -1.6887 1.1811, 1.6989 -1.6371 1.1811, 1.6995 -1.6352 1.1811, 1.7 -1.6326 1.1811, 1.6893 -1.6639 1.1811, 1.7109 -1.6639 1.1811, 1.7012 -1.6371 1.1811, 1.7002 -1.6326 1.1811, 1.7007 -1.6353 1.1811
            ]
        }
        coordIndex [
            0,1,2,-1,0,2,3,-1,3,2,4,-1,3,4,5,-1,5,4,6,-1,5,6,7,-1,7,6,8,-1,7,8,9,-1,9,8,10,-1,9,10,11,-1,11,10,12,-1,11,12,13,-1,13,12,14,-1,13,14,15,-1,15,14,16,-1,15,16,17,-1,17,16,18,-1,17,18,19,-1,19,18,20,-1,19,20,21,-1,21,20,22,-1,21,22,23,-1,23,22,24,-1,23,24,25,-1,25,24,26,-1,25,26,27,-1,27,26,28,-1,27,28,29,-1,29,28,30,-1,29,30,31,-1,31,30,32,-1,31,32,33,-1,34,35,36,-1,33,32,37,-1,33,37,38,-1,38,37,39,-1,38,39,36,-1,36,39,40,-1,36,40,34,-1,41,35,42,-1,42,35,34,-1,43,44,45,-1,41,42,46,-1,41,46,47,-1,46,48,47,-1,47,48,49,-1,47,49,45,-1,45,49,50,-1,45,50,43,-1,44,43,51,-1,51,43,52,-1,52,53,51,-1,51,53,54,-1,51,54,55,-1,55,54,56,-1,55,56,57,-1,57,56,58,-1,57,58,59,-1,59,58,60,-1,61,62,60,-1,60,62,63,-1,60,63,59,-1,61,64,62,-1,62,64,65,-1,62,65,66,-1,66,65,67,-1,66,67,68,-1,68,67,69,-1,70,71,69,-1,69,71,72,-1,69,72,68,-1,70,73,71,-1,71,73,74,-1,71,74,75,-1,75,74,76,-1,75,76,77,-1,78,79,80,-1,77,76,81,-1,77,81,82,-1,82,81,83,-1,82,83,84,-1,84,83,85,-1,84,85,80,-1,80,85,86,-1,80,86,78,-1,87,88,89,-1,79,78,90,-1,90,78,91,-1,91,92,90,-1,90,92,93,-1,90,93,89,-1,89,93,94,-1,89,94,87,-1,95,88,96,-1,96,88,87,-1,95,96,97,-1,95,97,98,-1,97,99,98,-1,98,99,100,-1,98,100,101,-1,101,100,1,-1,101,1,0,-1,36,35,41,-1,11,13,72,-1,19,21,63,-1,72,13,68,-1,63,21,59,-1,36,41,38,-1,38,41,47,-1,38,47,33,-1,33,47,45,-1,33,45,31,-1,31,45,44,-1,31,44,29,-1,29,44,51,-1,29,51,27,-1,51,55,27,-1,27,55,57,-1,27,57,25,-1,25,57,59,-1,25,59,23,-1,23,59,21,-1,72,71,11,-1,11,71,75,-1,11,75,9,-1,9,75,77,-1,9,77,7,-1,7,77,82,-1,7,82,5,-1,5,82,84,-1,5,84,3,-1,3,84,80,-1,3,80,0,-1,0,80,79,-1,0,79,101,-1,101,79,90,-1,101,90,98,-1,98,90,89,-1,98,89,95,-1,95,89,88,-1,13,15,68,-1,68,15,17,-1,68,17,66,-1,66,17,19,-1,66,19,62,-1,62,19,63,-1,102,103,104,-1,104,103,105,-1,106,107,102,-1,102,107,108,-1,102,108,103,-1,103,108,109,-1,106,110,107,-1,107,110,111,-1,107,111,112,-1,112,111,113,-1,112,113,114,-1,114,115,112,-1,112,115,104,-1,112,104,116,-1,116,104,105,-1,116,105,117,-1,107,112,118,-1,118,112,119,-1,108,107,120,-1,120,107,118,-1,109,108,121,-1,121,108,120,-1,103,109,122,-1,122,109,121,-1,105,103,123,-1,123,103,122,-1,117,105,124,-1,124,105,123,-1,116,117,125,-1,125,117,124,-1,112,116,119,-1,119,116,125,-1,106,126,127,-1,106,127,110,-1,110,127,128,-1,110,128,111,-1,106,102,126,-1,126,102,129,-1,102,104,129,-1,129,104,130,-1,104,115,130,-1,130,115,131,-1,113,132,133,-1,113,133,114,-1,114,133,131,-1,114,131,115,-1,113,111,132,-1,132,111,128,-1,
        ]
    }
}
Shape{
    appearance Appearance {
        material  Material 	{
            diffuseColor 0.34901960784313724 0.34901960784313724 0.34901960784313724
            specularColor 0.023529411764705882 0.023529411764705882 0.023529411764705882
            ambientIntensity 0.498
            transparency 0.0
            shininess 0.5
        }
    }
    geometry IndexedFaceSet {
        ccw TRUE
        solid FALSE
        coord DEF co Coordinate {
            point [
                1.7002 -1.6326 1.1811, 1.7 -1.6326 1.1811, 1.7007 -1.6353 1.1811, 1.6995 -1.6352 1.1811, 1.7012 -1.6371 1.1811, 1.6989 -1.6371 1.1811, 1.7109 -1.6639 1.1811, 1.6893 -1.6639 1.1811
            ]
        }
        coordIndex [
            0,1,2,-1,2,1,3,-1,2,3,4,-1,4,3,5,-1,4,5,6,-1,6,5,7,-1,
        ]
    }
}
Shape{
    appearance Appearance {
        material  Material 	{
            diffuseColor 1.0 1.0 1.0
            specularColor 0.5019607843137255 0.5019607843137255 0.5019607843137255
            ambientIntensity 1.0
            transparency 0.0
            shininess 0.5
        }
    }
    geometry IndexedFaceSet {
        ccw TRUE
        solid FALSE
        coord DEF co Coordinate {
            point [
                1.6032 -1.6814 1.185, 1.6032 -1.6814 1.1811, 1.5769 -1.6814 1.185, 1.5889 -1.6814 1.1811, 1.5769 -1.6814 1.1811, 1.5769 -1.6598 1.185, 1.5769 -1.6598 1.1811, 1.5999 -1.6598 1.185, 1.5889 -1.6598 1.1811, 1.5999 -1.6598 1.1811, 1.5999 -1.6524 1.185, 1.5999 -1.6524 1.1811, 1.5769 -1.6524 1.1811, 1.5769 -1.6524 1.185, 1.5889 -1.6524 1.1811, 1.5769 -1.6318 1.185, 1.5769 -1.6318 1.1811, 1.6017 -1.6318 1.1811, 1.6017 -1.6318 1.185, 1.5889 -1.6318 1.1811, 1.6017 -1.6244 1.185, 1.6017 -1.6244 1.1811, 1.5686 -1.6244 1.1811, 1.5686 -1.6244 1.185, 1.5889 -1.6244 1.1811, 1.5686 -1.6887 1.185, 1.5686 -1.6887 1.1811, 1.6032 -1.6887 1.1811, 1.6032 -1.6887 1.185, 1.5889 -1.6887 1.1811, 1.3987 -1.6814 1.185, 1.425 -1.6814 1.185, 1.3987 -1.6814 1.1811, 1.425 -1.6814 1.1811, 1.3987 -1.6598 1.185, 1.3987 -1.6598 1.1811, 1.4217 -1.6598 1.185, 1.4217 -1.6598 1.1811, 1.4217 -1.6524 1.185, 1.4217 -1.6524 1.1811, 1.3987 -1.6524 1.185, 1.3987 -1.6524 1.1811, 1.3987 -1.6318 1.185, 1.3987 -1.6318 1.1811, 1.4235 -1.6318 1.185, 1.4235 -1.6318 1.1811, 1.4235 -1.6244 1.185, 1.4235 -1.6244 1.1811, 1.3904 -1.6244 1.185, 1.3904 -1.6244 1.1811, 1.3904 -1.6887 1.185, 1.3904 -1.6887 1.1811, 1.425 -1.6887 1.185, 1.425 -1.6887 1.1811, 1.6087 -1.5618 1.185, 1.6061 -1.5691 1.185, 1.6303 -1.5618 1.185, 1.6329 -1.5691 1.185, 1.6183 -1.535 1.185, 1.6152 -1.5223 1.185, 1.5907 -1.5867 1.185, 1.5999 -1.5867 1.185, 1.6189 -1.5331 1.185, 1.6194 -1.5305 1.185, 1.6241 -1.5223 1.185, 1.6196 -1.5305 1.185, 1.6201 -1.5333 1.185, 1.6206 -1.535 1.185, 1.6486 -1.5867 1.185, 1.6394 -1.5867 1.185, 1.6152 -1.5223 1.1811, 1.6241 -1.5223 1.1811, 1.5907 -1.5867 1.1811, 1.6093 -1.538 1.1811, 1.5999 -1.5867 1.1811, 1.6061 -1.5691 1.1811, 1.6329 -1.5691 1.1811, 1.6093 -1.5691 1.1811, 1.6394 -1.5867 1.1811, 1.6486 -1.5867 1.1811, 1.6183 -1.535 1.1811, 1.6189 -1.5331 1.1811, 1.6194 -1.5305 1.1811, 1.6087 -1.5618 1.1811, 1.6303 -1.5618 1.1811, 1.6206 -1.535 1.1811, 1.6196 -1.5305 1.1811, 1.6201 -1.5333 1.1811
            ]
        }
        coordIndex [
            0,1,2,-1,2,1,3,-1,2,3,4,-1,5,2,6,-1,6,2,4,-1,5,6,7,-1,7,6,8,-1,7,8,9,-1,10,7,11,-1,11,7,9,-1,12,13,14,-1,14,13,10,-1,14,10,11,-1,15,13,16,-1,16,13,12,-1,17,18,19,-1,19,18,15,-1,19,15,16,-1,20,18,21,-1,21,18,17,-1,22,23,24,-1,24,23,20,-1,24,20,21,-1,25,23,26,-1,26,23,22,-1,27,28,29,-1,29,28,25,-1,29,25,26,-1,0,28,1,-1,1,28,27,-1,25,28,0,-1,0,2,25,-1,25,2,5,-1,25,5,23,-1,18,20,15,-1,15,20,23,-1,15,23,13,-1,13,23,5,-1,13,5,10,-1,10,5,7,-1,30,31,32,-1,32,31,33,-1,34,30,35,-1,35,30,32,-1,36,34,37,-1,37,34,35,-1,38,36,39,-1,39,36,37,-1,40,38,41,-1,41,38,39,-1,42,40,43,-1,43,40,41,-1,44,42,45,-1,45,42,43,-1,46,44,47,-1,47,44,45,-1,48,46,49,-1,49,46,47,-1,50,48,51,-1,51,48,49,-1,52,50,53,-1,53,50,51,-1,31,52,33,-1,33,52,53,-1,50,52,31,-1,31,30,50,-1,50,30,34,-1,50,34,48,-1,44,46,42,-1,42,46,48,-1,42,48,40,-1,40,48,34,-1,40,34,38,-1,38,34,36,-1,54,55,56,-1,56,55,57,-1,58,59,54,-1,54,59,60,-1,54,60,55,-1,55,60,61,-1,58,62,59,-1,59,62,63,-1,59,63,64,-1,64,63,65,-1,64,65,66,-1,66,67,64,-1,64,67,56,-1,64,56,68,-1,68,56,57,-1,68,57,69,-1,59,64,70,-1,70,64,71,-1,72,60,73,-1,73,60,59,-1,73,59,70,-1,61,60,74,-1,74,60,72,-1,55,61,75,-1,75,61,74,-1,76,57,77,-1,77,57,55,-1,77,55,75,-1,69,57,78,-1,78,57,76,-1,68,69,79,-1,79,69,78,-1,64,68,71,-1,71,68,79,-1,58,80,81,-1,58,81,62,-1,62,81,82,-1,62,82,63,-1,58,54,80,-1,80,54,83,-1,54,56,83,-1,83,56,84,-1,56,67,84,-1,84,67,85,-1,65,86,87,-1,65,87,66,-1,66,87,85,-1,66,85,67,-1,65,63,86,-1,86,63,82,-1,
        ]
    }
}
Shape{
    appearance Appearance {
        material  Material 	{
            diffuseColor 0.34901960784313724 0.34901960784313724 0.34901960784313724
            specularColor 0.023529411764705882 0.023529411764705882 0.023529411764705882
            ambientIntensity 0.498
            transparency 0.0
            shininess 0.5
        }
    }
    geometry IndexedFaceSet {
        ccw TRUE
        solid FALSE
        coord DEF co Coordinate {
            point [
                1.6196 -1.5305 1.1811, 1.6194 -1.5305 1.1811, 1.6201 -1.5333 1.1811, 1.6189 -1.5331 1.1811, 1.6206 -1.535 1.1811, 1.6183 -1.535 1.1811, 1.6303 -1.5618 1.1811, 1.6087 -1.5618 1.1811
            ]
        }
        coordIndex [
            0,1,2,-1,2,1,3,-1,2,3,4,-1,4,3,5,-1,4,5,6,-1,6,5,7,-1,
        ]
    }
}
Shape{
    appearance Appearance {
        material  Material 	{
            diffuseColor 1.0 1.0 1.0
            specularColor 0.5019607843137255 0.5019607843137255 0.5019607843137255
            ambientIntensity 1.0
            transparency 0.0
            shininess 0.5
        }
    }
    geometry IndexedFaceSet {
        ccw TRUE
        solid FALSE
        coord DEF co Coordinate {
            point [
                1.4963 -1.5793 1.1811, 1.4963 -1.5793 1.185, 1.5137 -1.5793 1.1811, 1.5226 -1.5793 1.185, 1.5226 -1.5793 1.1811, 1.4963 -1.5577 1.185, 1.4963 -1.5577 1.1811, 1.5193 -1.5577 1.185, 1.5137 -1.5577 1.1811, 1.5193 -1.5577 1.1811, 1.5193 -1.5503 1.185, 1.5193 -1.5503 1.1811, 1.4963 -1.5503 1.1811, 1.4963 -1.5503 1.185, 1.5137 -1.5503 1.1811, 1.4963 -1.5297 1.185, 1.4963 -1.5297 1.1811, 1.5211 -1.5297 1.185, 1.5137 -1.5297 1.1811, 1.5211 -1.5297 1.1811, 1.5211 -1.5223 1.185, 1.5211 -1.5223 1.1811, 1.488 -1.5223 1.1811, 1.488 -1.5223 1.185, 1.5137 -1.5223 1.1811, 1.488 -1.5867 1.185, 1.488 -1.5867 1.1811, 1.5226 -1.5867 1.185, 1.5137 -1.5867 1.1811, 1.5226 -1.5867 1.1811, 1.3987 -1.5793 1.185, 1.4243 -1.5793 1.185, 1.3987 -1.5793 1.1811, 1.4243 -1.5793 1.1811, 1.3987 -1.5223 1.185, 1.3987 -1.5223 1.1811, 1.3904 -1.5223 1.185, 1.3904 -1.5223 1.1811, 1.3904 -1.5867 1.185, 1.3904 -1.5867 1.1811, 1.4243 -1.5867 1.185, 1.4243 -1.5867 1.1811
            ]
        }
        coordIndex [
            0,1,2,-1,2,1,3,-1,2,3,4,-1,5,1,6,-1,6,1,0,-1,5,6,7,-1,7,6,8,-1,7,8,9,-1,10,7,11,-1,11,7,9,-1,12,13,14,-1,14,13,10,-1,14,10,11,-1,15,13,16,-1,16,13,12,-1,15,16,17,-1,17,16,18,-1,17,18,19,-1,20,17,21,-1,21,17,19,-1,22,23,24,-1,24,23,20,-1,24,20,21,-1,25,23,26,-1,26,23,22,-1,25,26,27,-1,27,26,28,-1,27,28,29,-1,3,27,4,-1,4,27,29,-1,25,27,3,-1,3,1,25,-1,25,1,5,-1,25,5,23,-1,17,20,15,-1,15,20,23,-1,15,23,13,-1,13,23,5,-1,13,5,10,-1,10,5,7,-1,30,31,32,-1,32,31,33,-1,34,30,35,-1,35,30,32,-1,36,34,37,-1,37,34,35,-1,38,36,39,-1,39,36,37,-1,40,38,41,-1,41,38,39,-1,31,40,33,-1,33,40,41,-1,34,36,30,-1,30,36,38,-1,30,38,31,-1,31,38,40,-1,
        ]
    }
}