ISO-10303-21;
HEADER;
FILE_DESCRIPTION (( 'STEP AP203' ),
    '1' );
FILE_NAME ('COSSE.STEP',
    '2021-06-14T10:21:29',
    ( '' ),
    ( '' ),
    'SwSTEP 2.0',
    'SolidWorks 2012',
    '' );
FILE_SCHEMA (( 'CONFIG_CONTROL_DESIGN' ));
ENDSEC;

DATA;
#1 = DESIGN_CONTEXT ( 'detailed design', #154, 'design' ) ;
#2 = PRODUCT_DEFINITION_SHAPE ( 'NONE', 'NONE',  #463 ) ;
#3 = VERTEX_POINT ( 'NONE', #142 ) ;
#4 = MANIFOLD_SOLID_BREP ( 'Cut-Extrude1', #554 ) ;
#5 = UNCERTAINTY_MEASURE_WITH_UNIT (LENGTH_MEASURE( 1.000000000000000100E-005 ), #261, 'distance_accuracy_value', 'NONE');
#6 = ADVANCED_BREP_SHAPE_REPRESENTATION ( 'COSSE', ( #4, #461 ), #459 ) ;
#7 = CARTESIAN_POINT ( 'NONE',  ( -0.6500000000000000200, 0.5000000000000000000, 0.8000000000000000400 ) ) ;
#8 = CARTESIAN_POINT ( 'NONE',  ( 6.500000000000000900, 6.000000000000000000, 0.8000000000000000400 ) ) ;
#9 = DIRECTION ( 'NONE',  ( 0.0000000000000000000, -0.0000000000000000000, 1.000000000000000000 ) ) ;
#10 = CARTESIAN_POINT ( 'NONE',  ( 0.6500000000000000200, 4.500000000000000900, 0.8000000000000000400 ) ) ;
#11 = CARTESIAN_POINT ( 'NONE',  ( -0.6500000000000002400, 6.000000000000000000, 0.8000000000000000400 ) ) ;
#12 = CARTESIAN_POINT ( 'NONE',  ( 1.600000000000000800, 9.500000000000001800, 0.8000000000000000400 ) ) ;
#13 = CARTESIAN_POINT ( 'NONE',  ( 5.649999999999999500, 13.00000000000000200, 0.8000000000000000400 ) ) ;
#14 = CARTESIAN_POINT ( 'NONE',  ( -0.1499999999999999700, 0.0000000000000000000, 0.0000000000000000000 ) ) ;
#15 = CARTESIAN_POINT ( 'NONE',  ( 2.500000000000000400, 9.500000000000001800, 0.8000000000000000400 ) ) ;
#16 = CARTESIAN_POINT ( 'NONE',  ( 4.850000000000000500, 0.5000000000000000000, 0.8000000000000000400 ) ) ;
#17 = DIRECTION ( 'NONE',  ( 1.000000000000000000, 0.0000000000000000000, 0.0000000000000000000 ) ) ;
#18 = CARTESIAN_POINT ( 'NONE',  ( 0.6500000000000000200, 0.5000000000000000000, 0.8000000000000000400 ) ) ;
#19 = CARTESIAN_POINT ( 'NONE',  ( -0.1499999999999999700, 0.0000000000000000000, 0.8000000000000000400 ) ) ;
#20 = APPROVAL_ROLE ( '' ) ;
#21 = DIRECTION ( 'NONE',  ( 1.000000000000000000, 0.0000000000000000000, 0.0000000000000000000 ) ) ;
#22 = CARTESIAN_POINT ( 'NONE',  ( 0.3499999999999997000, 14.00000000000000000, 0.3999999999999975800 ) ) ;
#23 = CARTESIAN_POINT ( 'NONE',  ( -0.6500000000000000200, 4.000000000000000000, 0.8000000000000000400 ) ) ;
#24 = DIRECTION ( 'NONE',  ( 0.0000000000000000000, -1.000000000000000000, 0.0000000000000000000 ) ) ;
#25 = DIRECTION ( 'NONE',  ( 1.000000000000000000, 0.0000000000000000000, 0.0000000000000000000 ) ) ;
#26 = DIRECTION ( 'NONE',  ( 1.000000000000000000, 0.0000000000000000000, 0.0000000000000000000 ) ) ;
#27 = DIRECTION ( 'NONE',  ( -1.000000000000000000, -0.0000000000000000000, -0.0000000000000000000 ) ) ;
#28 = CARTESIAN_POINT ( 'NONE',  ( 4.850000000000000500, 0.0000000000000000000, 0.0000000000000000000 ) ) ;
#29 = CARTESIAN_POINT ( 'NONE',  ( 0.6500000000000000200, 0.0000000000000000000, 0.0000000000000000000 ) ) ;
#30 = DIRECTION ( 'NONE',  ( 3.097720492815726400E-017, -1.000000000000000000, -0.0000000000000000000 ) ) ;
#31 = CARTESIAN_POINT ( 'NONE',  ( 0.6500000000000000200, 0.5000000000000000000, 0.8000000000000000400 ) ) ;
#32 = CARTESIAN_POINT ( 'NONE',  ( 4.349999999999999600, 0.5000000000000004400, 0.8000000000000000400 ) ) ;
#33 = CARTESIAN_POINT ( 'NONE',  ( -1.500000000000000000, 6.000000000000000000, 0.0000000000000000000 ) ) ;
#34 = DIRECTION ( 'NONE',  ( 0.0000000000000000000, 0.0000000000000000000, -1.000000000000000000 ) ) ;
#35 = DIRECTION ( 'NONE',  ( 1.000000000000000000, 0.0000000000000000000, 0.0000000000000000000 ) ) ;
#36 = DIRECTION ( 'NONE',  ( -1.000000000000000000, 0.0000000000000000000, 0.0000000000000000000 ) ) ;
#37 = DIRECTION ( 'NONE',  ( 0.0000000000000000000, -0.0000000000000000000, -1.000000000000000000 ) ) ;
#38 = CARTESIAN_POINT ( 'NONE',  ( 5.649999999999999500, 13.00000000000000200, 0.0000000000000000000 ) ) ;
#39 = CARTESIAN_POINT ( 'NONE',  ( 4.850000000000000500, 0.0000000000000000000, 0.8000000000000000400 ) ) ;
#40 = DIRECTION ( 'NONE',  ( -1.000000000000000000, -0.0000000000000000000, -0.0000000000000000000 ) ) ;
#41 = CARTESIAN_POINT ( 'NONE',  ( 5.150000000000000400, 0.0000000000000000000, 0.8000000000000000400 ) ) ;
#42 = DIRECTION ( 'NONE',  ( 0.0000000000000000000, 0.0000000000000000000, -1.000000000000000000 ) ) ;
#43 = CARTESIAN_POINT ( 'NONE',  ( 3.400000000000000400, 9.500000000000001800, -3.252606517456513300E-016 ) ) ;
#44 = CARTESIAN_POINT ( 'NONE',  ( 2.500000000000000400, 9.500000000000001800, -3.252606517456513300E-016 ) ) ;
#45 = DIRECTION ( 'NONE',  ( -0.0000000000000000000, -0.0000000000000000000, -1.000000000000000000 ) ) ;
#46 = CARTESIAN_POINT ( 'NONE',  ( -0.6500000000000000200, 0.0000000000000000000, 0.0000000000000000000 ) ) ;
#47 = DIRECTION ( 'NONE',  ( 0.7071067811865479100, 0.7071067811865471300, 0.0000000000000000000 ) ) ;
#48 = CARTESIAN_POINT ( 'NONE',  ( -0.05000000000000002400, 13.60000000000000100, 0.0000000000000000000 ) ) ;
#49 = CARTESIAN_POINT ( 'NONE',  ( -0.6500000000000000200, 4.000000000000000000, 0.0000000000000000000 ) ) ;
#50 = DIRECTION ( 'NONE',  ( 1.000000000000000000, 0.0000000000000000000, 0.0000000000000000000 ) ) ;
#51 = PLANE ( 'NONE',  #456 ) ;
#52 = DIRECTION ( 'NONE',  ( -1.000000000000000000, 0.0000000000000000000, 0.0000000000000000000 ) ) ;
#53 = CARTESIAN_POINT ( 'NONE',  ( 6.500000000000000900, 4.000000000000000900, 0.0000000000000000000 ) ) ;
#54 = DIRECTION ( 'NONE',  ( -0.0000000000000000000, -0.0000000000000000000, -1.000000000000000000 ) ) ;
#55 = DIRECTION ( 'NONE',  ( 1.000000000000000000, 0.0000000000000000000, 0.0000000000000000000 ) ) ;
#56 = DIRECTION ( 'NONE',  ( 0.0000000000000000000, 1.000000000000000000, -0.0000000000000000000 ) ) ;
#57 = CARTESIAN_POINT ( 'NONE',  ( -1.500000000000000000, 4.000000000000000000, 0.0000000000000000000 ) ) ;
#58 = PLANE ( 'NONE',  #438 ) ;
#59 = DIRECTION ( 'NONE',  ( 0.0000000000000000000, 0.0000000000000000000, -1.000000000000000000 ) ) ;
#60 = DIRECTION ( 'NONE',  ( 0.0000000000000000000, 1.000000000000000000, 0.0000000000000000000 ) ) ;
#61 = DIRECTION ( 'NONE',  ( -0.0000000000000000000, -1.000000000000000000, -0.0000000000000000000 ) ) ;
#62 = CARTESIAN_POINT ( 'NONE',  ( -1.500000000000000000, 4.000000000000000000, 0.8000000000000000400 ) ) ;
#63 = DIRECTION ( 'NONE',  ( -0.0000000000000000000, -0.0000000000000000000, -1.000000000000000000 ) ) ;
#64 = DIRECTION ( 'NONE',  ( -0.0000000000000000000, -1.000000000000000000, -0.0000000000000000000 ) ) ;
#65 = CARTESIAN_POINT ( 'NONE',  ( -0.6500000000000000200, 4.000000000000000000, 0.0000000000000000000 ) ) ;
#66 = DIRECTION ( 'NONE',  ( 1.000000000000000000, -0.0000000000000000000, -0.0000000000000000000 ) ) ;
#67 = CARTESIAN_POINT ( 'NONE',  ( -0.6500000000000000200, 4.000000000000000000, 0.8000000000000000400 ) ) ;
#68 = CARTESIAN_POINT ( 'NONE',  ( 5.649999999999999500, 13.00000000000000200, 0.8000000000000000400 ) ) ;
#69 = DIRECTION ( 'NONE',  ( 1.000000000000000000, -0.0000000000000000000, -0.0000000000000000000 ) ) ;
#70 = DIRECTION ( 'NONE',  ( -1.000000000000000000, 0.0000000000000000000, 0.0000000000000000000 ) ) ;
#71 = DIRECTION ( 'NONE',  ( -0.0000000000000000000, 1.000000000000000000, -0.0000000000000000000 ) ) ;
#72 = CARTESIAN_POINT ( 'NONE',  ( -1.500000000000000000, 4.000000000000000000, 0.8000000000000000400 ) ) ;
#73 = CARTESIAN_POINT ( 'NONE',  ( -1.500000000000000000, 6.000000000000000000, 0.8000000000000000400 ) ) ;
#74 = CARTESIAN_POINT ( 'NONE',  ( 5.650000000000000400, 0.5000000000000000000, 0.8000000000000000400 ) ) ;
#75 = CARTESIAN_POINT ( 'NONE',  ( 4.649999999999999500, 14.00000000000000000, 0.3999999999999973600 ) ) ;
#76 = CARTESIAN_POINT ( 'NONE',  ( 5.050000000000000700, 13.60000000000000100, -3.252606517456513300E-016 ) ) ;
#77 = DIRECTION ( 'NONE',  ( 0.0000000000000000000, -0.0000000000000000000, 1.000000000000000000 ) ) ;
#78 = PLANE ( 'NONE',  #451 ) ;
#79 = DIRECTION ( 'NONE',  ( 1.000000000000000000, 0.0000000000000000000, -0.0000000000000000000 ) ) ;
#80 = DIRECTION ( 'NONE',  ( 1.000000000000000000, 0.0000000000000000000, 0.0000000000000000000 ) ) ;
#81 = CARTESIAN_POINT ( 'NONE',  ( -0.6500000000000000200, 0.0000000000000000000, 0.0000000000000000000 ) ) ;
#82 = CARTESIAN_POINT ( 'NONE',  ( 0.6500000000000000200, 0.5000000000000000000, 0.0000000000000000000 ) ) ;
#83 = DIRECTION ( 'NONE',  ( -0.0000000000000000000, -0.0000000000000000000, 1.000000000000000000 ) ) ;
#84 = CARTESIAN_POINT ( 'NONE',  ( -0.6500000000000004700, 13.00000000000000200, 0.0000000000000000000 ) ) ;
#85 = CARTESIAN_POINT ( 'NONE',  ( -1.500000000000000000, 6.000000000000000000, 0.8000000000000000400 ) ) ;
#86 = DIRECTION ( 'NONE',  ( 0.0000000000000000000, 0.0000000000000000000, 1.000000000000000000 ) ) ;
#87 = CARTESIAN_POINT ( 'NONE',  ( 5.150000000000000400, 0.0000000000000000000, 0.0000000000000000000 ) ) ;
#88 = PLANE ( 'NONE',  #439 ) ;
#89 = DIRECTION ( 'NONE',  ( 0.0000000000000000000, 0.0000000000000000000, 1.000000000000000000 ) ) ;
#90 = CARTESIAN_POINT ( 'NONE',  ( 6.500000000000000900, 6.000000000000000000, 0.8000000000000000400 ) ) ;
#91 = CARTESIAN_POINT ( 'NONE',  ( 5.649999999999999500, 13.00000000000000200, 0.8000000000000000400 ) ) ;
#92 = CARTESIAN_POINT ( 'NONE',  ( -0.6500000000000004700, 13.00000000000000200, 0.8000000000000000400 ) ) ;
#93 = DIRECTION ( 'NONE',  ( 0.7071067811865471300, -0.7071067811865479100, 0.0000000000000000000 ) ) ;
#94 = DIRECTION ( 'NONE',  ( -0.0000000000000000000, -0.0000000000000000000, -1.000000000000000000 ) ) ;
#95 = CARTESIAN_POINT ( 'NONE',  ( 5.649999999999999500, 6.000000000000000000, 0.0000000000000000000 ) ) ;
#96 = DIRECTION ( 'NONE',  ( -0.0000000000000000000, 1.000000000000000000, -0.0000000000000000000 ) ) ;
#97 = CARTESIAN_POINT ( 'NONE',  ( -0.1499999999999999700, 0.0000000000000000000, 0.8000000000000000400 ) ) ;
#98 = DIRECTION ( 'NONE',  ( -1.000000000000000000, 0.0000000000000000000, 0.0000000000000000000 ) ) ;
#99 = CARTESIAN_POINT ( 'NONE',  ( 4.349999999999999600, 4.500000000000000900, 0.0000000000000000000 ) ) ;
#100 = DIRECTION ( 'NONE',  ( -0.0000000000000000000, 0.0000000000000000000, -1.000000000000000000 ) ) ;
#101 = CARTESIAN_POINT ( 'NONE',  ( -0.1499999999999999700, 0.5000000000000000000, 0.8000000000000000400 ) ) ;
#102 = CARTESIAN_POINT ( 'NONE',  ( 4.850000000000000500, 0.5000000000000000000, 0.0000000000000000000 ) ) ;
#103 = CARTESIAN_POINT ( 'NONE',  ( -0.6500000000000002400, 6.000000000000000000, 0.8000000000000000400 ) ) ;
#104 = CARTESIAN_POINT ( 'NONE',  ( 0.6500000000000000200, 4.500000000000000900, 0.8000000000000000400 ) ) ;
#105 = CARTESIAN_POINT ( 'NONE',  ( 0.6500000000000000200, 4.500000000000000900, 0.8000000000000000400 ) ) ;
#106 = PLANE ( 'NONE',  #457 ) ;
#107 = DIRECTION ( 'NONE',  ( 1.000000000000000000, 0.0000000000000000000, -0.0000000000000000000 ) ) ;
#108 = CARTESIAN_POINT ( 'NONE',  ( 5.150000000000000400, 0.0000000000000000000, 0.8000000000000000400 ) ) ;
#109 = CARTESIAN_POINT ( 'NONE',  ( 4.349999999999999600, 0.0000000000000000000, 0.0000000000000000000 ) ) ;
#110 = DIRECTION ( 'NONE',  ( 1.000000000000000000, 0.0000000000000000000, 0.0000000000000000000 ) ) ;
#111 = DIRECTION ( 'NONE',  ( -0.7071067811865479100, -0.7071067811865471300, -0.0000000000000000000 ) ) ;
#112 = CARTESIAN_POINT ( 'NONE',  ( 5.650000000000000400, 4.000000000000000900, 0.8000000000000000400 ) ) ;
#113 = CARTESIAN_POINT ( 'NONE',  ( 6.500000000000000900, 6.000000000000000000, 0.8000000000000000400 ) ) ;
#114 = DIRECTION ( 'NONE',  ( -0.0000000000000000000, -0.0000000000000000000, -1.000000000000000000 ) ) ;
#115 = DIRECTION ( 'NONE',  ( 1.000000000000000000, -0.0000000000000000000, -0.0000000000000000000 ) ) ;
#116 = CARTESIAN_POINT ( 'NONE',  ( 6.500000000000000900, 4.000000000000000900, 0.8000000000000000400 ) ) ;
#117 = CARTESIAN_POINT ( 'NONE',  ( 5.649999999999999500, 6.000000000000000000, 0.8000000000000000400 ) ) ;
#118 = DIRECTION ( 'NONE',  ( -0.0000000000000000000, -0.0000000000000000000, -1.000000000000000000 ) ) ;
#119 = DIRECTION ( 'NONE',  ( 1.000000000000000000, -0.0000000000000000000, -0.0000000000000000000 ) ) ;
#120 = CARTESIAN_POINT ( 'NONE',  ( 6.500000000000000900, 6.000000000000000000, 0.0000000000000000000 ) ) ;
#121 = CARTESIAN_POINT ( 'NONE',  ( 4.349999999999999600, 4.500000000000000900, 0.8000000000000000400 ) ) ;
#122 = PLANE ( 'NONE',  #458 ) ;
#123 = CARTESIAN_POINT ( 'NONE',  ( 5.650000000000000400, 0.5000000000000000000, 0.0000000000000000000 ) ) ;
#124 = APPROVAL_STATUS ( 'not_yet_approved' ) ;
#125 = CARTESIAN_POINT ( 'NONE',  ( 3.400000000000000400, 9.500000000000001800, -3.252606517456513300E-016 ) ) ;
#126 = CARTESIAN_POINT ( 'NONE',  ( 1.600000000000000800, 9.500000000000001800, -3.252606517456513300E-016 ) ) ;
#127 = DIRECTION ( 'NONE',  ( 0.0000000000000000000, 0.0000000000000000000, 1.000000000000000000 ) ) ;
#128 = CARTESIAN_POINT ( 'NONE',  ( -0.6500000000000000200, 0.5000000000000000000, 0.0000000000000000000 ) ) ;
#129 = CARTESIAN_POINT ( 'NONE',  ( 5.649999999999999500, 6.000000000000000000, 0.8000000000000000400 ) ) ;
#130 = DIRECTION ( 'NONE',  ( 0.0000000000000000000, -1.000000000000000000, 0.0000000000000000000 ) ) ;
#131 = DIRECTION ( 'NONE',  ( 0.0000000000000000000, 1.000000000000000000, 0.0000000000000000000 ) ) ;
#132 = CARTESIAN_POINT ( 'NONE',  ( -0.6500000000000000200, 0.5000000000000000000, 0.8000000000000000400 ) ) ;
#133 = APPLICATION_PROTOCOL_DEFINITION ( 'international standard', 'config_control_design', 1994, #154 ) ;
#134 = PERSON_AND_ORGANIZATION_ROLE ( 'design_owner' ) ;
#135 = CARTESIAN_POINT ( 'NONE',  ( 0.1499999999999999700, 0.0000000000000000000, 0.8000000000000000400 ) ) ;
#136 = DIRECTION ( 'NONE',  ( 0.0000000000000000000, -0.0000000000000000000, 1.000000000000000000 ) ) ;
#137 = MECHANICAL_CONTEXT ( 'NONE', #138, 'mechanical' ) ;
#138 = APPLICATION_CONTEXT ( 'configuration controlled 3d designs of mechanical parts and assemblies' ) ;
#139 = DIRECTION ( 'NONE',  ( 1.000000000000000000, 0.0000000000000000000, 0.0000000000000000000 ) ) ;
#140 = SECURITY_CLASSIFICATION_LEVEL ( 'unclassified' ) ;
#141 = DIRECTION ( 'NONE',  ( 0.0000000000000000000, -1.000000000000000000, 0.0000000000000000000 ) ) ;
#142 = CARTESIAN_POINT ( 'NONE',  ( 5.650000000000000400, 4.000000000000000900, 0.8000000000000000400 ) ) ;
#143 = PERSON_AND_ORGANIZATION_ROLE ( 'creator' ) ;
#144 = CARTESIAN_POINT ( 'NONE',  ( 5.650000000000000400, 4.000000000000000900, 0.0000000000000000000 ) ) ;
#145 = CARTESIAN_POINT ( 'NONE',  ( 5.649999999999999500, 6.000000000000000000, 0.0000000000000000000 ) ) ;
#146 = PERSON_AND_ORGANIZATION_ROLE ( 'creator' ) ;
#147 = CARTESIAN_POINT ( 'NONE',  ( -1.500000000000000000, 4.000000000000000000, 0.8000000000000000400 ) ) ;
#148 = CARTESIAN_POINT ( 'NONE',  ( 0.6500000000000000200, 4.500000000000000900, 0.8000000000000000400 ) ) ;
#149 =( NAMED_UNIT ( * ) PLANE_ANGLE_UNIT ( ) SI_UNIT ( $, .RADIAN. ) );
#150 = CARTESIAN_POINT ( 'NONE',  ( 4.349999999999999600, 0.5000000000000004400, 0.8000000000000000400 ) ) ;
#151 = DIRECTION ( 'NONE',  ( -0.0000000000000000000, -0.0000000000000000000, -1.000000000000000000 ) ) ;
#152 = CARTESIAN_POINT ( 'NONE',  ( 0.1499999999999999700, 0.5000000000000000000, 0.8000000000000000400 ) ) ;
#153 = PERSON_AND_ORGANIZATION_ROLE ( 'design_supplier' ) ;
#154 = APPLICATION_CONTEXT ( 'configuration controlled 3d designs of mechanical parts and assemblies' ) ;
#155 = DIRECTION ( 'NONE',  ( 0.0000000000000000000, 0.0000000000000000000, -1.000000000000000000 ) ) ;
#156 = CARTESIAN_POINT ( 'NONE',  ( 3.400000000000000400, 9.500000000000001800, 0.8000000000000000400 ) ) ;
#157 = DIRECTION ( 'NONE',  ( 0.0000000000000000000, -0.0000000000000000000, -1.000000000000000000 ) ) ;
#158 = CARTESIAN_POINT ( 'NONE',  ( 0.1499999999999999700, 0.0000000000000000000, 0.8000000000000000400 ) ) ;
#159 = DIRECTION ( 'NONE',  ( -1.000000000000000000, 0.0000000000000000000, 0.0000000000000000000 ) ) ;
#160 = CARTESIAN_POINT ( 'NONE',  ( -0.6500000000000000200, 4.000000000000000000, 0.8000000000000000400 ) ) ;
#161 = CARTESIAN_POINT ( 'NONE',  ( 6.500000000000000900, 4.000000000000000900, 0.8000000000000000400 ) ) ;
#162 = CARTESIAN_POINT ( 'NONE',  ( 4.349999999999999600, 4.500000000000000900, 0.8000000000000000400 ) ) ;
#163 = DIRECTION ( 'NONE',  ( 3.097720492815726400E-017, -1.000000000000000000, -0.0000000000000000000 ) ) ;
#164 = DIRECTION ( 'NONE',  ( -1.000000000000000000, 0.0000000000000000000, 0.0000000000000000000 ) ) ;
#165 = DIRECTION ( 'NONE',  ( 0.0000000000000000000, 1.000000000000000000, 0.0000000000000000000 ) ) ;
#166 = DIRECTION ( 'NONE',  ( -0.0000000000000000000, -0.0000000000000000000, 1.000000000000000000 ) ) ;
#167 = DIRECTION ( 'NONE',  ( -0.0000000000000000000, -0.0000000000000000000, 1.000000000000000000 ) ) ;
#168 = CARTESIAN_POINT ( 'NONE',  ( 5.650000000000000400, 0.0000000000000000000, 0.0000000000000000000 ) ) ;
#169 = PLANE ( 'NONE',  #440 ) ;
#170 = DIRECTION ( 'NONE',  ( -3.097720492815726400E-017, 1.000000000000000000, 0.0000000000000000000 ) ) ;
#171 = DIRECTION ( 'NONE',  ( 0.0000000000000000000, 0.0000000000000000000, 1.000000000000000000 ) ) ;
#172 = CARTESIAN_POINT ( 'NONE',  ( 0.6500000000000000200, 4.500000000000000900, 0.0000000000000000000 ) ) ;
#173 = DIRECTION ( 'NONE',  ( 1.000000000000000000, 0.0000000000000000000, -0.0000000000000000000 ) ) ;
#174 = DIRECTION ( 'NONE',  ( -0.0000000000000000000, -0.0000000000000000000, 1.000000000000000000 ) ) ;
#175 = CARTESIAN_POINT ( 'NONE',  ( 3.149999999999998600, 15.50000000000000000, -1.100000000000001200 ) ) ;
#176 = CARTESIAN_POINT ( 'NONE',  ( 3.216666666666660100, 15.43333333333333900, 1.833333333333329700 ) ) ;
#177 = APPROVAL_STATUS ( 'not_yet_approved' ) ;
#178 = DIRECTION ( 'NONE',  ( -0.0000000000000000000, 1.000000000000000000, -0.0000000000000000000 ) ) ;
#179 = DIRECTION ( 'NONE',  ( -0.0000000000000000000, -0.0000000000000000000, -1.000000000000000000 ) ) ;
#180 = CARTESIAN_POINT ( 'NONE',  ( 5.649999999999999500, 13.00000000000000200, 0.8000000000000000400 ) ) ;
#181 = CARTESIAN_POINT ( 'NONE',  ( -0.6500000000000002400, 6.000000000000000000, 0.0000000000000000000 ) ) ;
#182 = DIRECTION ( 'NONE',  ( -0.0000000000000000000, 1.000000000000000000, -0.0000000000000000000 ) ) ;
#183 = CARTESIAN_POINT ( 'NONE',  ( 5.649999999999999500, 13.00000000000000200, 0.0000000000000000000 ) ) ;
#184 = CARTESIAN_POINT ( 'NONE',  ( -0.6500000000000004700, 13.00000000000000200, 0.8000000000000000400 ) ) ;
#185 = CARTESIAN_POINT ( 'NONE',  ( 0.3499999999999997000, 13.60000000000000000, 0.8000000000000000400 ) ) ;
#186 = DIRECTION ( 'NONE',  ( 1.000000000000000000, 0.0000000000000000000, 0.0000000000000000000 ) ) ;
#187 = CARTESIAN_POINT ( 'NONE',  ( 4.850000000000000500, 0.0000000000000000000, 0.8000000000000000400 ) ) ;
#188 = CARTESIAN_POINT ( 'NONE',  ( 2.500000000000000400, 9.500000000000001800, 0.8000000000000000400 ) ) ;
#189 = DIRECTION ( 'NONE',  ( 0.0000000000000000000, 0.0000000000000000000, 1.000000000000000000 ) ) ;
#190 = DIRECTION ( 'NONE',  ( 0.5773502691896260600, -0.5773502691896255100, 0.5773502691896256200 ) ) ;
#191 = CARTESIAN_POINT ( 'NONE',  ( 5.150000000000000400, 0.5000000000000000000, 0.8000000000000000400 ) ) ;
#192 = DIRECTION ( 'NONE',  ( 0.0000000000000000000, -0.0000000000000000000, 1.000000000000000000 ) ) ;
#193 = CARTESIAN_POINT ( 'NONE',  ( -0.6500000000000002400, 6.000000000000000000, 0.8000000000000000400 ) ) ;
#194 = PLANE ( 'NONE',  #460 ) ;
#195 = DIRECTION ( 'NONE',  ( -1.000000000000000000, -0.0000000000000000000, -0.0000000000000000000 ) ) ;
#196 = DIRECTION ( 'NONE',  ( -0.0000000000000000000, -0.0000000000000000000, -1.000000000000000000 ) ) ;
#197 = CARTESIAN_POINT ( 'NONE',  ( 4.649999999999999500, 14.00000000000000000, 0.8000000000000000400 ) ) ;
#198 = DIRECTION ( 'NONE',  ( -0.0000000000000000000, -1.000000000000000000, -0.0000000000000000000 ) ) ;
#199 = CARTESIAN_POINT ( 'NONE',  ( 1.600000000000000800, 9.500000000000001800, -3.252606517456513300E-016 ) ) ;
#200 = CARTESIAN_POINT ( 'NONE',  ( 0.1499999999999999700, 0.5000000000000000000, 0.0000000000000000000 ) ) ;
#201 = DIRECTION ( 'NONE',  ( -0.0000000000000000000, 0.0000000000000000000, -1.000000000000000000 ) ) ;
#202 = DIRECTION ( 'NONE',  ( -1.000000000000000000, 0.0000000000000000000, 0.0000000000000000000 ) ) ;
#203 = CARTESIAN_POINT ( 'NONE',  ( 5.649999999999999500, 6.000000000000000000, 0.8000000000000000400 ) ) ;
#204 = DATE_TIME_ROLE ( 'classification_date' ) ;
#205 = CARTESIAN_POINT ( 'NONE',  ( 6.500000000000000900, 6.000000000000000000, 0.0000000000000000000 ) ) ;
#206 = PLANE ( 'NONE',  #435 ) ;
#207 = CARTESIAN_POINT ( 'NONE',  ( -0.05000000000000177200, 13.60000000000000000, 0.8000000000000001600 ) ) ;
#208 = CARTESIAN_POINT ( 'NONE',  ( 2.500000000000000400, 9.500000000000001800, -3.252606517456513300E-016 ) ) ;
#209 = DIRECTION ( 'NONE',  ( 0.0000000000000000000, -0.7071067811865490200, -0.7071067811865460200 ) ) ;
#210 = CARTESIAN_POINT ( 'NONE',  ( -0.6500000000000002400, 6.000000000000000000, 0.8000000000000000400 ) ) ;
#211 = DIRECTION ( 'NONE',  ( 0.0000000000000000000, 1.000000000000000000, -0.0000000000000000000 ) ) ;
#212 = DIRECTION ( 'NONE',  ( -0.0000000000000000000, 0.0000000000000000000, -1.000000000000000000 ) ) ;
#213 = CARTESIAN_POINT ( 'NONE',  ( -0.6500000000000000200, 0.0000000000000000000, 0.8000000000000000400 ) ) ;
#214 = APPROVAL_ROLE ( '' ) ;
#215 = PLANE ( 'NONE',  #446 ) ;
#216 = DIRECTION ( 'NONE',  ( -1.000000000000000000, 0.0000000000000000000, 0.0000000000000000000 ) ) ;
#217 = DIRECTION ( 'NONE',  ( 0.0000000000000000000, 0.0000000000000000000, 1.000000000000000000 ) ) ;
#218 = DIRECTION ( 'NONE',  ( 0.0000000000000000000, 0.0000000000000000000, 1.000000000000000000 ) ) ;
#219 = DIRECTION ( 'NONE',  ( 0.0000000000000000000, -1.000000000000000000, 0.0000000000000000000 ) ) ;
#220 = PLANE ( 'NONE',  #436 ) ;
#221 = PLANE ( 'NONE',  #454 ) ;
#222 = APPROVAL_STATUS ( 'not_yet_approved' ) ;
#223 = DIRECTION ( 'NONE',  ( -1.000000000000000000, 0.0000000000000000000, 0.0000000000000000000 ) ) ;
#224 = CARTESIAN_POINT ( 'NONE',  ( 5.650000000000000400, 0.0000000000000000000, 0.8000000000000000400 ) ) ;
#225 = CARTESIAN_POINT ( 'NONE',  ( 4.649999999999999500, 14.00000000000000000, 0.8000000000000000400 ) ) ;
#226 = PLANE ( 'NONE',  #452 ) ;
#227 = DIRECTION ( 'NONE',  ( 0.0000000000000000000, 0.0000000000000000000, -1.000000000000000000 ) ) ;
#228 = CARTESIAN_POINT ( 'NONE',  ( -0.6500000000000000200, 4.000000000000000000, 0.8000000000000000400 ) ) ;
#229 = CARTESIAN_POINT ( 'NONE',  ( 0.3499999999999997000, 14.00000000000000000, 0.3999999999999975800 ) ) ;
#230 = PLANE ( 'NONE',  #441 ) ;
#231 = DIRECTION ( 'NONE',  ( 1.000000000000000000, 0.0000000000000000000, 0.0000000000000000000 ) ) ;
#232 = CARTESIAN_POINT ( 'NONE',  ( -1.500000000000000000, 4.000000000000000000, 0.0000000000000000000 ) ) ;
#233 = CARTESIAN_POINT ( 'NONE',  ( 5.150000000000000400, 0.5000000000000000000, 0.8000000000000000400 ) ) ;
#234 =( NAMED_UNIT ( * ) SI_UNIT ( $, .STERADIAN. ) SOLID_ANGLE_UNIT ( ) );
#235 = DIRECTION ( 'NONE',  ( 0.0000000000000000000, -0.7071067811865474600, 0.7071067811865474600 ) ) ;
#236 = CARTESIAN_POINT ( 'NONE',  ( 2.500000000000000400, 9.500000000000001800, -3.252606517456513300E-016 ) ) ;
#237 = CARTESIAN_POINT ( 'NONE',  ( -1.500000000000000000, 6.000000000000000000, 0.0000000000000000000 ) ) ;
#238 = DIRECTION ( 'NONE',  ( 0.0000000000000000000, 0.0000000000000000000, -1.000000000000000000 ) ) ;
#239 = CARTESIAN_POINT ( 'NONE',  ( 0.3499999999999997000, 14.00000000000000000, 0.3999999999999975800 ) ) ;
#240 = CARTESIAN_POINT ( 'NONE',  ( 4.349999999999999600, 4.500000000000000900, 0.8000000000000000400 ) ) ;
#241 = PLANE ( 'NONE',  #449 ) ;
#242 = CARTESIAN_POINT ( 'NONE',  ( 6.500000000000000900, 4.000000000000000900, 0.8000000000000000400 ) ) ;
#243 = CARTESIAN_POINT ( 'NONE',  ( -0.6500000000000000200, 4.000000000000000000, 0.0000000000000000000 ) ) ;
#244 = DIRECTION ( 'NONE',  ( -1.000000000000000000, 0.0000000000000000000, 0.0000000000000000000 ) ) ;
#245 = DIRECTION ( 'NONE',  ( -0.7071067811865472400, -0.7071067811865479100, 0.0000000000000000000 ) ) ;
#246 = DIRECTION ( 'NONE',  ( 0.7071067811865479100, -0.7071067811865472400, 0.0000000000000000000 ) ) ;
#247 = DIRECTION ( 'NONE',  ( 0.0000000000000000000, 0.0000000000000000000, -1.000000000000000000 ) ) ;
#248 = CARTESIAN_POINT ( 'NONE',  ( 0.1499999999999999700, 0.0000000000000000000, 0.0000000000000000000 ) ) ;
#249 = APPLICATION_PROTOCOL_DEFINITION ( 'international standard', 'config_control_design', 1994, #138 ) ;
#250 = PLANE ( 'NONE',  #443 ) ;
#251 = CARTESIAN_POINT ( 'NONE',  ( 4.349999999999999600, 0.0000000000000000000, 0.8000000000000000400 ) ) ;
#252 = CARTESIAN_POINT ( 'NONE',  ( -0.6500000000000000200, 0.0000000000000000000, 0.8000000000000000400 ) ) ;
#253 = DIRECTION ( 'NONE',  ( 0.0000000000000000000, 1.000000000000000000, 0.0000000000000000000 ) ) ;
#254 = DIRECTION ( 'NONE',  ( -0.0000000000000000000, -0.0000000000000000000, -1.000000000000000000 ) ) ;
#255 = DATE_TIME_ROLE ( 'creation_date' ) ;
#256 = DIRECTION ( 'NONE',  ( -0.0000000000000000000, 0.0000000000000000000, -1.000000000000000000 ) ) ;
#257 = APPROVAL_ROLE ( '' ) ;
#258 = DIRECTION ( 'NONE',  ( 0.0000000000000000000, 0.0000000000000000000, 1.000000000000000000 ) ) ;
#259 = CARTESIAN_POINT ( 'NONE',  ( 0.0000000000000000000, 0.0000000000000000000, 0.0000000000000000000 ) ) ;
#260 = CARTESIAN_POINT ( 'NONE',  ( -1.500000000000000000, 4.000000000000000000, 0.8000000000000000400 ) ) ;
#261 =( LENGTH_UNIT ( ) NAMED_UNIT ( * ) SI_UNIT ( .MILLI., .METRE. ) );
#262 = DIRECTION ( 'NONE',  ( 1.000000000000000000, 3.097720492815726400E-017, -0.0000000000000000000 ) ) ;
#263 = PLANE ( 'NONE',  #437 ) ;
#264 = DIRECTION ( 'NONE',  ( 1.000000000000000000, 0.0000000000000000000, 0.0000000000000000000 ) ) ;
#265 = DIRECTION ( 'NONE',  ( 0.0000000000000000000, -0.0000000000000000000, 1.000000000000000000 ) ) ;
#266 = DIRECTION ( 'NONE',  ( -0.0000000000000000000, -0.0000000000000000000, 1.000000000000000000 ) ) ;
#267 = CARTESIAN_POINT ( 'NONE',  ( 5.050000000000002500, 13.59999999999999800, 0.8000000000000008200 ) ) ;
#268 = DIRECTION ( 'NONE',  ( 0.0000000000000000000, -0.0000000000000000000, 1.000000000000000000 ) ) ;
#269 = CARTESIAN_POINT ( 'NONE',  ( -0.6500000000000002400, 6.000000000000000000, 0.0000000000000000000 ) ) ;
#270 = PERSON_AND_ORGANIZATION_ROLE ( 'classification_officer' ) ;
#271 = PLANE ( 'NONE',  #450 ) ;
#272 = DIRECTION ( 'NONE',  ( 1.000000000000000000, 0.0000000000000000000, 0.0000000000000000000 ) ) ;
#273 = CARTESIAN_POINT ( 'NONE',  ( 4.349999999999999600, 0.5000000000000004400, 0.0000000000000000000 ) ) ;
#274 = DIRECTION ( 'NONE',  ( 0.0000000000000000000, -0.0000000000000000000, 1.000000000000000000 ) ) ;
#275 = DIRECTION ( 'NONE',  ( 0.0000000000000000000, 1.000000000000000000, 0.0000000000000000000 ) ) ;
#276 = DIRECTION ( 'NONE',  ( 0.0000000000000000000, 0.0000000000000000000, -1.000000000000000000 ) ) ;
#277 = CARTESIAN_POINT ( 'NONE',  ( 6.500000000000000900, 4.000000000000000900, 0.0000000000000000000 ) ) ;
#278 = DIRECTION ( 'NONE',  ( -0.0000000000000000000, 0.0000000000000000000, -1.000000000000000000 ) ) ;
#279 = DIRECTION ( 'NONE',  ( -0.7071067811865479100, 0.7071067811865472400, -0.0000000000000000000 ) ) ;
#280 = CARTESIAN_POINT ( 'NONE',  ( -0.2500000000000013900, 13.40000000000000000, 0.9999999999999995600 ) ) ;
#281 = DIRECTION ( 'NONE',  ( -0.0000000000000000000, -0.0000000000000000000, -1.000000000000000000 ) ) ;
#282 = CARTESIAN_POINT ( 'NONE',  ( 0.3499999999999997000, 14.00000000000000000, 0.3999999999999975800 ) ) ;
#283 = CARTESIAN_POINT ( 'NONE',  ( 5.649999999999999500, 6.000000000000000000, 0.8000000000000000400 ) ) ;
#284 = DIRECTION ( 'NONE',  ( -1.000000000000000000, -0.0000000000000000000, -0.0000000000000000000 ) ) ;
#285 = DIRECTION ( 'NONE',  ( 1.000000000000000000, 0.0000000000000000000, 0.0000000000000000000 ) ) ;
#286 = CARTESIAN_POINT ( 'NONE',  ( 4.349999999999999600, 4.500000000000000900, 0.0000000000000000000 ) ) ;
#287 = DIRECTION ( 'NONE',  ( -0.0000000000000000000, -0.0000000000000000000, -1.000000000000000000 ) ) ;
#288 = CARTESIAN_POINT ( 'NONE',  ( -0.6500000000000000200, 4.000000000000000000, 0.8000000000000000400 ) ) ;
#289 = CARTESIAN_POINT ( 'NONE',  ( -0.6500000000000000200, 0.0000000000000000000, 0.8000000000000000400 ) ) ;
#290 = PLANE ( 'NONE',  #455 ) ;
#291 = CARTESIAN_POINT ( 'NONE',  ( 4.649999999999999500, 14.00000000000000000, 0.0000000000000000000 ) ) ;
#292 = DIRECTION ( 'NONE',  ( 0.0000000000000000000, -0.0000000000000000000, 1.000000000000000000 ) ) ;
#293 = DIRECTION ( 'NONE',  ( 0.0000000000000000000, 1.000000000000000000, 0.0000000000000000000 ) ) ;
#294 = CARTESIAN_POINT ( 'NONE',  ( 4.349999999999999600, 0.0000000000000000000, 0.8000000000000000400 ) ) ;
#295 = DIRECTION ( 'NONE',  ( 0.0000000000000000000, 0.0000000000000000000, 1.000000000000000000 ) ) ;
#296 = CARTESIAN_POINT ( 'NONE',  ( -0.6500000000000000200, 0.0000000000000000000, 0.8000000000000000400 ) ) ;
#297 = DIRECTION ( 'NONE',  ( -0.0000000000000000000, 0.7071067811865475700, 0.7071067811865475700 ) ) ;
#298 = CARTESIAN_POINT ( 'NONE',  ( 6.500000000000000900, 6.000000000000000000, 0.8000000000000000400 ) ) ;
#299 = CARTESIAN_POINT ( 'NONE',  ( -0.6500000000000000200, 13.60000000000000000, 0.8000000000000000400 ) ) ;
#300 = PLANE ( 'NONE',  #445 ) ;
#301 = DIRECTION ( 'NONE',  ( 0.0000000000000000000, -0.7071067811865460200, 0.7071067811865490200 ) ) ;
#302 = CARTESIAN_POINT ( 'NONE',  ( 4.349999999999999600, 4.500000000000000900, 0.8000000000000000400 ) ) ;
#303 = DIRECTION ( 'NONE',  ( -0.5773502691896269500, 0.5773502691896264000, 0.5773502691896238400 ) ) ;
#304 = CARTESIAN_POINT ( 'NONE',  ( 0.6500000000000000200, 4.500000000000000900, 0.0000000000000000000 ) ) ;
#305 = DIRECTION ( 'NONE',  ( 1.000000000000000000, 0.0000000000000000000, 0.0000000000000000000 ) ) ;
#306 = PLANE ( 'NONE',  #442 ) ;
#307 = DIRECTION ( 'NONE',  ( 1.000000000000000000, 0.0000000000000000000, 0.0000000000000000000 ) ) ;
#308 = DIRECTION ( 'NONE',  ( -0.0000000000000000000, -0.0000000000000000000, 1.000000000000000000 ) ) ;
#309 = DIRECTION ( 'NONE',  ( -0.0000000000000000000, 0.0000000000000000000, -1.000000000000000000 ) ) ;
#310 = DIRECTION ( 'NONE',  ( -0.0000000000000000000, -1.000000000000000000, -0.0000000000000000000 ) ) ;
#311 = DIRECTION ( 'NONE',  ( 0.0000000000000000000, 0.0000000000000000000, 1.000000000000000000 ) ) ;
#312 = DIRECTION ( 'NONE',  ( 1.000000000000000000, 0.0000000000000000000, 0.0000000000000000000 ) ) ;
#313 = DIRECTION ( 'NONE',  ( -0.0000000000000000000, -0.0000000000000000000, 1.000000000000000000 ) ) ;
#314 = CARTESIAN_POINT ( 'NONE',  ( 5.150000000000000400, 0.5000000000000000000, 0.0000000000000000000 ) ) ;
#315 = CARTESIAN_POINT ( 'NONE',  ( -1.500000000000000000, 6.000000000000000000, 0.8000000000000000400 ) ) ;
#316 = CARTESIAN_POINT ( 'NONE',  ( 0.6500000000000000200, 0.0000000000000000000, 0.8000000000000000400 ) ) ;
#317 = CARTESIAN_POINT ( 'NONE',  ( -0.6500000000000004700, 13.00000000000000200, 0.8000000000000000400 ) ) ;
#318 = CARTESIAN_POINT ( 'NONE',  ( -0.6500000000000000200, 13.60000000000000100, 0.0000000000000000000 ) ) ;
#319 = CARTESIAN_POINT ( 'NONE',  ( -0.1499999999999999700, 0.5000000000000000000, 0.8000000000000000400 ) ) ;
#320 = CARTESIAN_POINT ( 'NONE',  ( -0.1499999999999999700, 0.5000000000000000000, 0.0000000000000000000 ) ) ;
#321 = DIRECTION ( 'NONE',  ( 1.000000000000000000, 0.0000000000000000000, 0.0000000000000000000 ) ) ;
#322 = DIRECTION ( 'NONE',  ( 1.000000000000000000, 0.0000000000000000000, 0.0000000000000000000 ) ) ;
#323 = DIRECTION ( 'NONE',  ( 1.000000000000000000, 0.0000000000000000000, 0.0000000000000000000 ) ) ;
#324 = DIRECTION ( 'NONE',  ( 0.0000000000000000000, -0.0000000000000000000, 1.000000000000000000 ) ) ;
#325 = CARTESIAN_POINT ( 'NONE',  ( 0.6500000000000000200, 0.0000000000000000000, 0.8000000000000000400 ) ) ;
#326 = DIRECTION ( 'NONE',  ( 0.0000000000000000000, -0.0000000000000000000, 1.000000000000000000 ) ) ;
#327 = CARTESIAN_POINT ( 'NONE',  ( 0.1499999999999999700, 0.5000000000000000000, 0.8000000000000000400 ) ) ;
#328 = DIRECTION ( 'NONE',  ( -0.0000000000000000000, 0.0000000000000000000, -1.000000000000000000 ) ) ;
#329 = DIRECTION ( 'NONE',  ( 0.0000000000000000000, 0.0000000000000000000, 1.000000000000000000 ) ) ;
#330 = CARTESIAN_POINT ( 'NONE',  ( 2.500000000000000400, 9.500000000000001800, -3.252606517456513300E-016 ) ) ;
#331 = DIRECTION ( 'NONE',  ( 1.000000000000000000, 0.0000000000000000000, 0.0000000000000000000 ) ) ;
#332 = CARTESIAN_POINT ( 'NONE',  ( 6.500000000000000900, 4.000000000000000900, 0.8000000000000000400 ) ) ;
#333 = DIRECTION ( 'NONE',  ( 1.000000000000000000, 0.0000000000000000000, 0.0000000000000000000 ) ) ;
#334 = DIRECTION ( 'NONE',  ( 0.5773502691896260600, 0.5773502691896255100, -0.5773502691896255100 ) ) ;
#335 = DIRECTION ( 'NONE',  ( -0.7071067811865479100, 0.7071067811865472400, -0.0000000000000000000 ) ) ;
#336 = CARTESIAN_POINT ( 'NONE',  ( -0.6500000000000004700, 13.00000000000000200, 0.0000000000000000000 ) ) ;
#337 = DIRECTION ( 'NONE',  ( -0.5773502691896270600, -0.5773502691896264000, -0.5773502691896238400 ) ) ;
#338 = CARTESIAN_POINT ( 'NONE',  ( -1.500000000000000000, 6.000000000000000000, 0.8000000000000000400 ) ) ;
#339 = CARTESIAN_POINT ( 'NONE',  ( 4.850000000000000500, 0.5000000000000000000, 0.8000000000000000400 ) ) ;
#340 = DIRECTION ( 'NONE',  ( 1.000000000000000000, 0.0000000000000000000, 0.0000000000000000000 ) ) ;
#341 = DIRECTION ( 'NONE',  ( 0.0000000000000000000, 1.000000000000000000, 0.0000000000000000000 ) ) ;
#342 = CARTESIAN_POINT ( 'NONE',  ( 5.650000000000000400, 0.5000000000000000000, 0.8000000000000000400 ) ) ;
#343 = CARTESIAN_POINT ( 'NONE',  ( -0.6500000000000004700, 13.00000000000000200, 0.8000000000000000400 ) ) ;
#344 = DIRECTION ( 'NONE',  ( -0.7071067811865479100, -0.7071067811865471300, -0.0000000000000000000 ) ) ;
#345 = CARTESIAN_POINT ( 'NONE',  ( 5.650000000000000400, 0.0000000000000000000, 0.8000000000000000400 ) ) ;
#346 = EDGE_CURVE ( 'NONE', #944, #630, #700, .T. ) ;
#347 = EDGE_CURVE ( 'NONE', #630, #640, #698, .T. ) ;
#348 = EDGE_CURVE ( 'NONE', #638, #640, #702, .T. ) ;
#349 = EDGE_CURVE ( 'NONE', #638, #944, #699, .T. ) ;
#350 = EDGE_CURVE ( 'NONE', #637, #3, #706, .T. ) ;
#351 = EDGE_CURVE ( 'NONE', #637, #560, #708, .T. ) ;
#352 = EDGE_CURVE ( 'NONE', #560, #561, #704, .T. ) ;
#353 = EDGE_CURVE ( 'NONE', #3, #561, #834, .T. ) ;
#354 = EDGE_CURVE ( 'NONE', #561, #558, #837, .T. ) ;
#355 = EDGE_CURVE ( 'NONE', #636, #558, #836, .T. ) ;
#356 = EDGE_CURVE ( 'NONE', #3, #636, #842, .T. ) ;
#357 = EDGE_CURVE ( 'NONE', #558, #559, #841, .T. ) ;
#358 = EDGE_CURVE ( 'NONE', #564, #559, #844, .T. ) ;
#359 = EDGE_CURVE ( 'NONE', #636, #564, #839, .T. ) ;
#360 = EDGE_CURVE ( 'NONE', #559, #633, #848, .T. ) ;
#361 = EDGE_CURVE ( 'NONE', #566, #633, #850, .T. ) ;
#362 = EDGE_CURVE ( 'NONE', #564, #566, #846, .T. ) ;
#363 = EDGE_CURVE ( 'NONE', #633, #562, #854, .T. ) ;
#364 = EDGE_CURVE ( 'NONE', #568, #562, #856, .T. ) ;
#365 = EDGE_CURVE ( 'NONE', #566, #568, #852, .T. ) ;
#366 = EDGE_CURVE ( 'NONE', #563, #565, #860, .T. ) ;
#367 = EDGE_CURVE ( 'NONE', #565, #572, #862, .T. ) ;
#368 = EDGE_CURVE ( 'NONE', #568, #572, #864, .T. ) ;
#369 = EDGE_CURVE ( 'NONE', #562, #563, #866, .T. ) ;
#370 = EDGE_CURVE ( 'NONE', #573, #569, #868, .T. ) ;
#371 = EDGE_CURVE ( 'NONE', #573, #575, #870, .T. ) ;
#372 = EDGE_CURVE ( 'NONE', #575, #576, #858, .T. ) ;
#373 = EDGE_CURVE ( 'NONE', #576, #577, #874, .T. ) ;
#374 = EDGE_CURVE ( 'NONE', #569, #577, #876, .T. ) ;
#375 = EDGE_CURVE ( 'NONE', #577, #567, #872, .T. ) ;
#376 = EDGE_CURVE ( 'NONE', #574, #567, #880, .T. ) ;
#377 = EDGE_CURVE ( 'NONE', #569, #574, #878, .T. ) ;
#378 = EDGE_CURVE ( 'NONE', #567, #570, #884, .T. ) ;
#379 = EDGE_CURVE ( 'NONE', #578, #570, #886, .T. ) ;
#380 = EDGE_CURVE ( 'NONE', #574, #578, #882, .T. ) ;
#381 = EDGE_CURVE ( 'NONE', #570, #571, #890, .T. ) ;
#382 = EDGE_CURVE ( 'NONE', #579, #571, #892, .T. ) ;
#383 = EDGE_CURVE ( 'NONE', #578, #579, #888, .T. ) ;
#384 = EDGE_CURVE ( 'NONE', #571, #940, #896, .T. ) ;
#385 = EDGE_CURVE ( 'NONE', #579, #941, #898, .T. ) ;
#386 = EDGE_CURVE ( 'NONE', #556, #552, #900, .T. ) ;
#387 = EDGE_CURVE ( 'NONE', #640, #637, #894, .T. ) ;
#388 = EDGE_CURVE ( 'NONE', #572, #573, #903, .T. ) ;
#389 = EDGE_CURVE ( 'NONE', #937, #557, #710, .T. ) ;
#390 = EDGE_CURVE ( 'NONE', #938, #936, #712, .T. ) ;
#391 = EDGE_CURVE ( 'NONE', #635, #638, #762, .T. ) ;
#392 = EDGE_CURVE ( 'NONE', #934, #935, #764, .T. ) ;
#393 = EDGE_CURVE ( 'NONE', #560, #630, #766, .T. ) ;
#394 = EDGE_CURVE ( 'NONE', #944, #634, #763, .T. ) ;
#395 = EDGE_CURVE ( 'NONE', #631, #943, #767, .T. ) ;
#396 = EDGE_CURVE ( 'NONE', #942, #553, #768, .T. ) ;
#397 = EDGE_CURVE ( 'NONE', #576, #563, #769, .T. ) ;
#398 = EDGE_CURVE ( 'NONE', #565, #575, #770, .T. ) ;
#399 = EDGE_CURVE ( 'NONE', #934, #556, #765, .T. ) ;
#400 = EDGE_CURVE ( 'NONE', #940, #553, #774, .T. ) ;
#401 = EDGE_CURVE ( 'NONE', #935, #552, #772, .T. ) ;
#402 = EDGE_CURVE ( 'NONE', #941, #940, #776, .T. ) ;
#403 = EDGE_CURVE ( 'NONE', #553, #937, #780, .T. ) ;
#404 = EDGE_CURVE ( 'NONE', #935, #934, #782, .T. ) ;
#405 = EDGE_CURVE ( 'NONE', #557, #938, #784, .T. ) ;
#406 = EDGE_CURVE ( 'NONE', #552, #556, #785, .T. ) ;
#407 = EDGE_CURVE ( 'NONE', #557, #942, #787, .T. ) ;
#408 = EDGE_CURVE ( 'NONE', #941, #937, #778, .T. ) ;
#409 = EDGE_CURVE ( 'NONE', #942, #943, #790, .T. ) ;
#410 = EDGE_CURVE ( 'NONE', #943, #938, #792, .T. ) ;
#411 = EDGE_CURVE ( 'NONE', #936, #631, #794, .T. ) ;
#412 = EDGE_CURVE ( 'NONE', #936, #933, #788, .T. ) ;
#413 = EDGE_CURVE ( 'NONE', #631, #632, #798, .T. ) ;
#414 = EDGE_CURVE ( 'NONE', #933, #632, #800, .T. ) ;
#415 = EDGE_CURVE ( 'NONE', #632, #639, #796, .T. ) ;
#416 = EDGE_CURVE ( 'NONE', #939, #639, #804, .T. ) ;
#417 = EDGE_CURVE ( 'NONE', #933, #939, #802, .T. ) ;
#418 = EDGE_CURVE ( 'NONE', #639, #634, #808, .T. ) ;
#419 = EDGE_CURVE ( 'NONE', #634, #635, #810, .T. ) ;
#420 = EDGE_CURVE ( 'NONE', #939, #635, #812, .T. ) ;
#421 = AXIS2_PLACEMENT_3D ( 'NONE', #188, #189, #186 ) ;
#422 = AXIS2_PLACEMENT_3D ( 'NONE', #191, #192, #80 ) ;
#423 = AXIS2_PLACEMENT_3D ( 'NONE', #319, #326, #323 ) ;
#424 = AXIS2_PLACEMENT_3D ( 'NONE', #327, #324, #322 ) ;
#425 = AXIS2_PLACEMENT_3D ( 'NONE', #339, #274, #340 ) ;
#426 = AXIS2_PLACEMENT_3D ( 'NONE', #330, #329, #331 ) ;
#427 = AXIS2_PLACEMENT_3D ( 'NONE', #314, #309, #312 ) ;
#428 = AXIS2_PLACEMENT_3D ( 'NONE', #102, #328, #21 ) ;
#429 = AXIS2_PLACEMENT_3D ( 'NONE', #200, #212, #231 ) ;
#430 = AXIS2_PLACEMENT_3D ( 'NONE', #320, #201, #26 ) ;
#431 = AXIS2_PLACEMENT_3D ( 'NONE', #44, #311, #285 ) ;
#432 = AXIS2_PLACEMENT_3D ( 'NONE', #15, #89, #35 ) ;
#433 = AXIS2_PLACEMENT_3D ( 'NONE', #16, #100, #36 ) ;
#434 = AXIS2_PLACEMENT_3D ( 'NONE', #208, #83, #272 ) ;
#435 = AXIS2_PLACEMENT_3D ( 'NONE', #68, #202, #171 ) ;
#436 = AXIS2_PLACEMENT_3D ( 'NONE', #203, #219, #37 ) ;
#437 = AXIS2_PLACEMENT_3D ( 'NONE', #317, #93, #47 ) ;
#438 = AXIS2_PLACEMENT_3D ( 'NONE', #298, #52, #295 ) ;
#439 = AXIS2_PLACEMENT_3D ( 'NONE', #73, #24, #157 ) ;
#440 = AXIS2_PLACEMENT_3D ( 'NONE', #11, #262, #170 ) ;
#441 = AXIS2_PLACEMENT_3D ( 'NONE', #225, #245, #246 ) ;
#442 = AXIS2_PLACEMENT_3D ( 'NONE', #260, #305, #247 ) ;
#443 = AXIS2_PLACEMENT_3D ( 'NONE', #302, #107, #256 ) ;
#444 = AXIS2_PLACEMENT_3D ( 'NONE', #152, #34, #244 ) ;
#445 = AXIS2_PLACEMENT_3D ( 'NONE', #251, #165, #268 ) ;
#446 = AXIS2_PLACEMENT_3D ( 'NONE', #299, #297, #235 ) ;
#447 = AXIS2_PLACEMENT_3D ( 'NONE', #236, #308, #307 ) ;
#448 = AXIS2_PLACEMENT_3D ( 'NONE', #101, #238, #216 ) ;
#449 = AXIS2_PLACEMENT_3D ( 'NONE', #239, #301, #209 ) ;
#450 = AXIS2_PLACEMENT_3D ( 'NONE', #242, #211, #217 ) ;
#451 = AXIS2_PLACEMENT_3D ( 'NONE', #243, #9, #173 ) ;
#452 = AXIS2_PLACEMENT_3D ( 'NONE', #316, #223, #218 ) ;
#453 = AXIS2_PLACEMENT_3D ( 'NONE', #233, #227, #98 ) ;
#454 = AXIS2_PLACEMENT_3D ( 'NONE', #228, #265, #79 ) ;
#455 = AXIS2_PLACEMENT_3D ( 'NONE', #104, #293, #292 ) ;
#456 = AXIS2_PLACEMENT_3D ( 'NONE', #224, #164, #258 ) ;
#457 = AXIS2_PLACEMENT_3D ( 'NONE', #289, #253, #136 ) ;
#458 = AXIS2_PLACEMENT_3D ( 'NONE', #288, #56, #86 ) ;
#459 =( GEOMETRIC_REPRESENTATION_CONTEXT ( 3 ) GLOBAL_UNCERTAINTY_ASSIGNED_CONTEXT ( ( #5 ) ) GLOBAL_UNIT_ASSIGNED_CONTEXT ( ( #261, #149, #234 ) ) REPRESENTATION_CONTEXT ( 'NONE', 'WORKASPACE' ) );
#460 = AXIS2_PLACEMENT_3D ( 'NONE', #252, #55, #59 ) ;
#461 = AXIS2_PLACEMENT_3D ( 'NONE', #259, #127, #139 ) ;
#462 = CC_DESIGN_PERSON_AND_ORGANIZATION_ASSIGNMENT ( #728, #134, ( #945 ) ) ;
#463 = PRODUCT_DEFINITION ( 'UNKNOWN', '', #468, #1 ) ;
#464 = APPROVAL ( #124, 'UNSPECIFIED' ) ;
#465 = CC_DESIGN_APPROVAL ( #464, ( #463 ) ) ;
#466 = CC_DESIGN_PERSON_AND_ORGANIZATION_ASSIGNMENT ( #736, #146, ( #463 ) ) ;
#467 = CC_DESIGN_DATE_AND_TIME_ASSIGNMENT ( #740, #255, ( #463 ) ) ;
#468 = PRODUCT_DEFINITION_FORMATION_WITH_SPECIFIED_SOURCE ( 'ANY', '', #945, .NOT_KNOWN. ) ;
#469 = APPROVAL ( #177, 'UNSPECIFIED' ) ;
#470 = CC_DESIGN_APPROVAL ( #469, ( #468 ) ) ;
#471 = CC_DESIGN_PERSON_AND_ORGANIZATION_ASSIGNMENT ( #750, #270, ( #472 ) ) ;
#472 = SECURITY_CLASSIFICATION ( '', '', #140 ) ;
#473 = CC_DESIGN_PERSON_AND_ORGANIZATION_ASSIGNMENT ( #749, #153, ( #468 ) ) ;
#474 = CC_DESIGN_PERSON_AND_ORGANIZATION_ASSIGNMENT ( #748, #143, ( #468 ) ) ;
#475 = CC_DESIGN_DATE_AND_TIME_ASSIGNMENT ( #754, #204, ( #472 ) ) ;
#476 = APPROVAL ( #222, 'UNSPECIFIED' ) ;
#477 = CC_DESIGN_APPROVAL ( #476, ( #472 ) ) ;
#478 = CC_DESIGN_SECURITY_CLASSIFICATION ( #472, ( #468 ) ) ;
#479 = PRODUCT_RELATED_PRODUCT_CATEGORY ( 'detail', '', ( #945 ) ) ;
#480 = ORIENTED_EDGE ( 'NONE', *, *, #419, .T. ) ;
#481 = ORIENTED_EDGE ( 'NONE', *, *, #420, .F. ) ;
#482 = ORIENTED_EDGE ( 'NONE', *, *, #416, .T. ) ;
#483 = ORIENTED_EDGE ( 'NONE', *, *, #346, .T. ) ;
#484 = ORIENTED_EDGE ( 'NONE', *, *, #347, .T. ) ;
#485 = ORIENTED_EDGE ( 'NONE', *, *, #348, .F. ) ;
#486 = ORIENTED_EDGE ( 'NONE', *, *, #349, .T. ) ;
#487 = ORIENTED_EDGE ( 'NONE', *, *, #350, .F. ) ;
#488 = ORIENTED_EDGE ( 'NONE', *, *, #351, .T. ) ;
#489 = ORIENTED_EDGE ( 'NONE', *, *, #352, .T. ) ;
#490 = ORIENTED_EDGE ( 'NONE', *, *, #353, .F. ) ;
#491 = ORIENTED_EDGE ( 'NONE', *, *, #354, .T. ) ;
#492 = ORIENTED_EDGE ( 'NONE', *, *, #355, .F. ) ;
#493 = ORIENTED_EDGE ( 'NONE', *, *, #356, .F. ) ;
#494 = ORIENTED_EDGE ( 'NONE', *, *, #353, .T. ) ;
#495 = ORIENTED_EDGE ( 'NONE', *, *, #357, .T. ) ;
#496 = ORIENTED_EDGE ( 'NONE', *, *, #358, .F. ) ;
#497 = ORIENTED_EDGE ( 'NONE', *, *, #359, .F. ) ;
#498 = ORIENTED_EDGE ( 'NONE', *, *, #355, .T. ) ;
#499 = ORIENTED_EDGE ( 'NONE', *, *, #360, .T. ) ;
#500 = ORIENTED_EDGE ( 'NONE', *, *, #361, .F. ) ;
#501 = ORIENTED_EDGE ( 'NONE', *, *, #362, .F. ) ;
#502 = ORIENTED_EDGE ( 'NONE', *, *, #358, .T. ) ;
#503 = ORIENTED_EDGE ( 'NONE', *, *, #363, .T. ) ;
#504 = ORIENTED_EDGE ( 'NONE', *, *, #364, .F. ) ;
#505 = ORIENTED_EDGE ( 'NONE', *, *, #365, .F. ) ;
#506 = ORIENTED_EDGE ( 'NONE', *, *, #361, .T. ) ;
#507 = ORIENTED_EDGE ( 'NONE', *, *, #366, .T. ) ;
#508 = ORIENTED_EDGE ( 'NONE', *, *, #367, .T. ) ;
#509 = ORIENTED_EDGE ( 'NONE', *, *, #368, .F. ) ;
#510 = ORIENTED_EDGE ( 'NONE', *, *, #364, .T. ) ;
#511 = ORIENTED_EDGE ( 'NONE', *, *, #369, .T. ) ;
#512 = ORIENTED_EDGE ( 'NONE', *, *, #370, .F. ) ;
#513 = ORIENTED_EDGE ( 'NONE', *, *, #371, .T. ) ;
#514 = ORIENTED_EDGE ( 'NONE', *, *, #372, .T. ) ;
#515 = ORIENTED_EDGE ( 'NONE', *, *, #373, .T. ) ;
#516 = ORIENTED_EDGE ( 'NONE', *, *, #374, .F. ) ;
#517 = ORIENTED_EDGE ( 'NONE', *, *, #375, .T. ) ;
#518 = ORIENTED_EDGE ( 'NONE', *, *, #376, .F. ) ;
#519 = ORIENTED_EDGE ( 'NONE', *, *, #377, .F. ) ;
#520 = ORIENTED_EDGE ( 'NONE', *, *, #374, .T. ) ;
#521 = ORIENTED_EDGE ( 'NONE', *, *, #378, .T. ) ;
#522 = ORIENTED_EDGE ( 'NONE', *, *, #379, .F. ) ;
#523 = ORIENTED_EDGE ( 'NONE', *, *, #380, .F. ) ;
#524 = ORIENTED_EDGE ( 'NONE', *, *, #376, .T. ) ;
#525 = ORIENTED_EDGE ( 'NONE', *, *, #381, .T. ) ;
#526 = ORIENTED_EDGE ( 'NONE', *, *, #382, .F. ) ;
#527 = ORIENTED_EDGE ( 'NONE', *, *, #383, .F. ) ;
#528 = ORIENTED_EDGE ( 'NONE', *, *, #379, .T. ) ;
#529 = ORIENTED_EDGE ( 'NONE', *, *, #384, .T. ) ;
#530 = ORIENTED_EDGE ( 'NONE', *, *, #402, .F. ) ;
#531 = ORIENTED_EDGE ( 'NONE', *, *, #385, .F. ) ;
#532 = ORIENTED_EDGE ( 'NONE', *, *, #382, .T. ) ;
#533 = ORIENTED_EDGE ( 'NONE', *, *, #386, .F. ) ;
#534 = ORIENTED_EDGE ( 'NONE', *, *, #406, .F. ) ;
#535 = ORIENTED_EDGE ( 'NONE', *, *, #348, .T. ) ;
#536 = ORIENTED_EDGE ( 'NONE', *, *, #387, .T. ) ;
#537 = ORIENTED_EDGE ( 'NONE', *, *, #350, .T. ) ;
#538 = ORIENTED_EDGE ( 'NONE', *, *, #356, .T. ) ;
#539 = ORIENTED_EDGE ( 'NONE', *, *, #359, .T. ) ;
#540 = ORIENTED_EDGE ( 'NONE', *, *, #362, .T. ) ;
#541 = ORIENTED_EDGE ( 'NONE', *, *, #365, .T. ) ;
#542 = ORIENTED_EDGE ( 'NONE', *, *, #368, .T. ) ;
#543 = ORIENTED_EDGE ( 'NONE', *, *, #388, .T. ) ;
#544 = ORIENTED_EDGE ( 'NONE', *, *, #370, .T. ) ;
#545 = ORIENTED_EDGE ( 'NONE', *, *, #377, .T. ) ;
#546 = ORIENTED_EDGE ( 'NONE', *, *, #380, .T. ) ;
#547 = ORIENTED_EDGE ( 'NONE', *, *, #383, .T. ) ;
#548 = ORIENTED_EDGE ( 'NONE', *, *, #385, .T. ) ;
#549 = ORIENTED_EDGE ( 'NONE', *, *, #408, .T. ) ;
#550 = ORIENTED_EDGE ( 'NONE', *, *, #389, .T. ) ;
#551 = ORIENTED_EDGE ( 'NONE', *, *, #405, .T. ) ;
#552 = VERTEX_POINT ( 'NONE', #12 ) ;
#553 = VERTEX_POINT ( 'NONE', #128 ) ;
#554 = CLOSED_SHELL ( 'NONE', ( #907, #932, #930, #925, #928, #916, #918, #929, #923, #911, #909, #908, #914, #910, #913, #912, #915, #931, #927, #924, #922, #919, #926, #921, #906, #917, #920 ) ) ;
#555 = VECTOR ( 'NONE', #341, 1000.000000000000000 ) ;
#556 = VERTEX_POINT ( 'NONE', #156 ) ;
#557 = VERTEX_POINT ( 'NONE', #19 ) ;
#558 = VERTEX_POINT ( 'NONE', #53 ) ;
#559 = VERTEX_POINT ( 'NONE', #205 ) ;
#560 = VERTEX_POINT ( 'NONE', #123 ) ;
#561 = VERTEX_POINT ( 'NONE', #144 ) ;
#562 = VERTEX_POINT ( 'NONE', #38 ) ;
#563 = VERTEX_POINT ( 'NONE', #76 ) ;
#564 = VERTEX_POINT ( 'NONE', #8 ) ;
#565 = VERTEX_POINT ( 'NONE', #75 ) ;
#566 = VERTEX_POINT ( 'NONE', #129 ) ;
#567 = VERTEX_POINT ( 'NONE', #269 ) ;
#568 = VERTEX_POINT ( 'NONE', #13 ) ;
#569 = VERTEX_POINT ( 'NONE', #92 ) ;
#570 = VERTEX_POINT ( 'NONE', #237 ) ;
#571 = VERTEX_POINT ( 'NONE', #232 ) ;
#572 = VERTEX_POINT ( 'NONE', #267 ) ;
#573 = VERTEX_POINT ( 'NONE', #207 ) ;
#574 = VERTEX_POINT ( 'NONE', #210 ) ;
#575 = VERTEX_POINT ( 'NONE', #229 ) ;
#576 = VERTEX_POINT ( 'NONE', #48 ) ;
#577 = VERTEX_POINT ( 'NONE', #84 ) ;
#578 = VERTEX_POINT ( 'NONE', #85 ) ;
#579 = VERTEX_POINT ( 'NONE', #72 ) ;
#580 = EDGE_LOOP ( 'NONE', ( #690, #691, #692, #693 ) ) ;
#581 = EDGE_LOOP ( 'NONE', ( #614, #615, #616, #617 ) ) ;
#582 = EDGE_LOOP ( 'NONE', ( #618, #619, #620, #621 ) ) ;
#583 = EDGE_LOOP ( 'NONE', ( #495, #496, #497, #498 ) ) ;
#584 = EDGE_LOOP ( 'NONE', ( #535, #536, #537, #538, #539, #540, #541, #542, #543, #544, #545, #546, #547, #548, #549, #550, #551, #641, #642, #643, #644, #645 ) ) ;
#585 = EDGE_LOOP ( 'NONE', ( #682, #683, #684, #685 ) ) ;
#586 = EDGE_LOOP ( 'NONE', ( #629, #480, #481, #482 ) ) ;
#587 = EDGE_LOOP ( 'NONE', ( #686, #687, #688, #689 ) ) ;
#588 = EDGE_LOOP ( 'NONE', ( #694, #695, #696, #697 ) ) ;
#589 = EDGE_LOOP ( 'NONE', ( #483, #484, #485, #486 ) ) ;
#590 = EDGE_LOOP ( 'NONE', ( #626, #610, #627, #628 ) ) ;
#591 = EDGE_LOOP ( 'NONE', ( #525, #526, #527, #528 ) ) ;
#592 = EDGE_LOOP ( 'NONE', ( #499, #500, #501, #502 ) ) ;
#593 = EDGE_LOOP ( 'NONE', ( #512, #513, #514, #515, #516 ) ) ;
#594 = EDGE_LOOP ( 'NONE', ( #622, #623, #624, #625 ) ) ;
#595 = EDGE_LOOP ( 'NONE', ( #529, #530, #531, #532 ) ) ;
#596 = EDGE_LOOP ( 'NONE', ( #646, #647 ) ) ;
#597 = EDGE_LOOP ( 'NONE', ( #678, #679, #680, #681 ) ) ;
#598 = EDGE_LOOP ( 'NONE', ( #670, #671, #672, #673 ) ) ;
#599 = EDGE_LOOP ( 'NONE', ( #674, #675, #676, #677 ) ) ;
#600 = EDGE_LOOP ( 'NONE', ( #648, #649, #650, #651, #652, #653, #654, #655, #656, #657, #658, #659, #660, #661, #662, #663, #664, #665, #666, #667, #668, #669 ) ) ;
#601 = EDGE_LOOP ( 'NONE', ( #521, #522, #523, #524 ) ) ;
#602 = EDGE_LOOP ( 'NONE', ( #517, #518, #519, #520 ) ) ;
#603 = EDGE_LOOP ( 'NONE', ( #487, #488, #489, #490 ) ) ;
#604 = EDGE_LOOP ( 'NONE', ( #507, #508, #509, #510, #511 ) ) ;
#605 = EDGE_LOOP ( 'NONE', ( #503, #504, #505, #506 ) ) ;
#606 = EDGE_LOOP ( 'NONE', ( #491, #492, #493, #494 ) ) ;
#607 = EDGE_LOOP ( 'NONE', ( #533, #534 ) ) ;
#608 = EDGE_LOOP ( 'NONE', ( #611, #609, #612, #613 ) ) ;
#609 = ORIENTED_EDGE ( 'NONE', *, *, #401, .T. ) ;
#610 = ORIENTED_EDGE ( 'NONE', *, *, #416, .F. ) ;
#611 = ORIENTED_EDGE ( 'NONE', *, *, #404, .F. ) ;
#612 = ORIENTED_EDGE ( 'NONE', *, *, #406, .T. ) ;
#613 = ORIENTED_EDGE ( 'NONE', *, *, #399, .F. ) ;
#614 = ORIENTED_EDGE ( 'NONE', *, *, #400, .T. ) ;
#615 = ORIENTED_EDGE ( 'NONE', *, *, #403, .T. ) ;
#616 = ORIENTED_EDGE ( 'NONE', *, *, #408, .F. ) ;
#617 = ORIENTED_EDGE ( 'NONE', *, *, #402, .T. ) ;
#618 = ORIENTED_EDGE ( 'NONE', *, *, #405, .F. ) ;
#619 = ORIENTED_EDGE ( 'NONE', *, *, #407, .T. ) ;
#620 = ORIENTED_EDGE ( 'NONE', *, *, #409, .T. ) ;
#621 = ORIENTED_EDGE ( 'NONE', *, *, #410, .T. ) ;
#622 = ORIENTED_EDGE ( 'NONE', *, *, #412, .F. ) ;
#623 = ORIENTED_EDGE ( 'NONE', *, *, #411, .T. ) ;
#624 = ORIENTED_EDGE ( 'NONE', *, *, #413, .T. ) ;
#625 = ORIENTED_EDGE ( 'NONE', *, *, #414, .F. ) ;
#626 = ORIENTED_EDGE ( 'NONE', *, *, #415, .T. ) ;
#627 = ORIENTED_EDGE ( 'NONE', *, *, #417, .F. ) ;
#628 = ORIENTED_EDGE ( 'NONE', *, *, #414, .T. ) ;
#629 = ORIENTED_EDGE ( 'NONE', *, *, #418, .T. ) ;
#630 = VERTEX_POINT ( 'NONE', #87 ) ;
#631 = VERTEX_POINT ( 'NONE', #82 ) ;
#632 = VERTEX_POINT ( 'NONE', #172 ) ;
#633 = VERTEX_POINT ( 'NONE', #145 ) ;
#634 = VERTEX_POINT ( 'NONE', #273 ) ;
#635 = VERTEX_POINT ( 'NONE', #32 ) ;
#636 = VERTEX_POINT ( 'NONE', #161 ) ;
#637 = VERTEX_POINT ( 'NONE', #74 ) ;
#638 = VERTEX_POINT ( 'NONE', #39 ) ;
#639 = VERTEX_POINT ( 'NONE', #99 ) ;
#640 = VERTEX_POINT ( 'NONE', #41 ) ;
#641 = ORIENTED_EDGE ( 'NONE', *, *, #390, .T. ) ;
#642 = ORIENTED_EDGE ( 'NONE', *, *, #412, .T. ) ;
#643 = ORIENTED_EDGE ( 'NONE', *, *, #417, .T. ) ;
#644 = ORIENTED_EDGE ( 'NONE', *, *, #420, .T. ) ;
#645 = ORIENTED_EDGE ( 'NONE', *, *, #391, .T. ) ;
#646 = ORIENTED_EDGE ( 'NONE', *, *, #392, .T. ) ;
#647 = ORIENTED_EDGE ( 'NONE', *, *, #404, .T. ) ;
#648 = ORIENTED_EDGE ( 'NONE', *, *, #352, .F. ) ;
#649 = ORIENTED_EDGE ( 'NONE', *, *, #393, .T. ) ;
#650 = ORIENTED_EDGE ( 'NONE', *, *, #346, .F. ) ;
#651 = ORIENTED_EDGE ( 'NONE', *, *, #394, .T. ) ;
#652 = ORIENTED_EDGE ( 'NONE', *, *, #418, .F. ) ;
#653 = ORIENTED_EDGE ( 'NONE', *, *, #415, .F. ) ;
#654 = ORIENTED_EDGE ( 'NONE', *, *, #413, .F. ) ;
#655 = ORIENTED_EDGE ( 'NONE', *, *, #395, .T. ) ;
#656 = ORIENTED_EDGE ( 'NONE', *, *, #409, .F. ) ;
#657 = ORIENTED_EDGE ( 'NONE', *, *, #396, .T. ) ;
#658 = ORIENTED_EDGE ( 'NONE', *, *, #400, .F. ) ;
#659 = ORIENTED_EDGE ( 'NONE', *, *, #384, .F. ) ;
#660 = ORIENTED_EDGE ( 'NONE', *, *, #381, .F. ) ;
#661 = ORIENTED_EDGE ( 'NONE', *, *, #378, .F. ) ;
#662 = ORIENTED_EDGE ( 'NONE', *, *, #375, .F. ) ;
#663 = ORIENTED_EDGE ( 'NONE', *, *, #373, .F. ) ;
#664 = ORIENTED_EDGE ( 'NONE', *, *, #397, .T. ) ;
#665 = ORIENTED_EDGE ( 'NONE', *, *, #369, .F. ) ;
#666 = ORIENTED_EDGE ( 'NONE', *, *, #363, .F. ) ;
#667 = ORIENTED_EDGE ( 'NONE', *, *, #360, .F. ) ;
#668 = ORIENTED_EDGE ( 'NONE', *, *, #357, .F. ) ;
#669 = ORIENTED_EDGE ( 'NONE', *, *, #354, .F. ) ;
#670 = ORIENTED_EDGE ( 'NONE', *, *, #398, .F. ) ;
#671 = ORIENTED_EDGE ( 'NONE', *, *, #366, .F. ) ;
#672 = ORIENTED_EDGE ( 'NONE', *, *, #397, .F. ) ;
#673 = ORIENTED_EDGE ( 'NONE', *, *, #372, .F. ) ;
#674 = ORIENTED_EDGE ( 'NONE', *, *, #367, .F. ) ;
#675 = ORIENTED_EDGE ( 'NONE', *, *, #398, .T. ) ;
#676 = ORIENTED_EDGE ( 'NONE', *, *, #371, .F. ) ;
#677 = ORIENTED_EDGE ( 'NONE', *, *, #388, .F. ) ;
#678 = ORIENTED_EDGE ( 'NONE', *, *, #387, .F. ) ;
#679 = ORIENTED_EDGE ( 'NONE', *, *, #347, .F. ) ;
#680 = ORIENTED_EDGE ( 'NONE', *, *, #393, .F. ) ;
#681 = ORIENTED_EDGE ( 'NONE', *, *, #351, .F. ) ;
#682 = ORIENTED_EDGE ( 'NONE', *, *, #389, .F. ) ;
#683 = ORIENTED_EDGE ( 'NONE', *, *, #403, .F. ) ;
#684 = ORIENTED_EDGE ( 'NONE', *, *, #396, .F. ) ;
#685 = ORIENTED_EDGE ( 'NONE', *, *, #407, .F. ) ;
#686 = ORIENTED_EDGE ( 'NONE', *, *, #391, .F. ) ;
#687 = ORIENTED_EDGE ( 'NONE', *, *, #419, .F. ) ;
#688 = ORIENTED_EDGE ( 'NONE', *, *, #394, .F. ) ;
#689 = ORIENTED_EDGE ( 'NONE', *, *, #349, .F. ) ;
#690 = ORIENTED_EDGE ( 'NONE', *, *, #390, .F. ) ;
#691 = ORIENTED_EDGE ( 'NONE', *, *, #410, .F. ) ;
#692 = ORIENTED_EDGE ( 'NONE', *, *, #395, .F. ) ;
#693 = ORIENTED_EDGE ( 'NONE', *, *, #411, .F. ) ;
#694 = ORIENTED_EDGE ( 'NONE', *, *, #401, .F. ) ;
#695 = ORIENTED_EDGE ( 'NONE', *, *, #392, .F. ) ;
#696 = ORIENTED_EDGE ( 'NONE', *, *, #399, .T. ) ;
#697 = ORIENTED_EDGE ( 'NONE', *, *, #386, .T. ) ;
#698 = LINE ( 'NONE', #108, #703 ) ;
#699 = LINE ( 'NONE', #187, #707 ) ;
#700 = LINE ( 'NONE', #109, #701 ) ;
#701 = VECTOR ( 'NONE', #110, 1000.000000000000000 ) ;
#702 = LINE ( 'NONE', #294, #705 ) ;
#703 = VECTOR ( 'NONE', #167, 1000.000000000000000 ) ;
#704 = LINE ( 'NONE', #168, #555 ) ;
#705 = VECTOR ( 'NONE', #333, 1000.000000000000000 ) ;
#706 = LINE ( 'NONE', #345, #709 ) ;
#707 = VECTOR ( 'NONE', #278, 1000.000000000000000 ) ;
#708 = LINE ( 'NONE', #342, #711 ) ;
#709 = VECTOR ( 'NONE', #275, 1000.000000000000000 ) ;
#710 = CIRCLE ( 'NONE', #423, 0.5000000000000000000 ) ;
#711 = VECTOR ( 'NONE', #276, 1000.000000000000000 ) ;
#712 = CIRCLE ( 'NONE', #424, 0.5000000000000000000 ) ;
#713 = CYLINDRICAL_SURFACE ( 'NONE', #447, 0.8999999999999998000 ) ;
#714 = FACE_OUTER_BOUND ( 'NONE', #597, .T. ) ;
#715 = CYLINDRICAL_SURFACE ( 'NONE', #448, 0.5000000000000000000 ) ;
#716 = FACE_OUTER_BOUND ( 'NONE', #594, .T. ) ;
#717 = FACE_OUTER_BOUND ( 'NONE', #600, .T. ) ;
#718 = FACE_OUTER_BOUND ( 'NONE', #590, .T. ) ;
#719 = FACE_BOUND ( 'NONE', #607, .T. ) ;
#720 = FACE_OUTER_BOUND ( 'NONE', #603, .T. ) ;
#721 = CYLINDRICAL_SURFACE ( 'NONE', #453, 0.5000000000000004400 ) ;
#722 = FACE_OUTER_BOUND ( 'NONE', #584, .T. ) ;
#723 = FACE_OUTER_BOUND ( 'NONE', #582, .T. ) ;
#724 = FACE_OUTER_BOUND ( 'NONE', #595, .T. ) ;
#725 = FACE_OUTER_BOUND ( 'NONE', #581, .T. ) ;
#726 = SHAPE_DEFINITION_REPRESENTATION ( #2, #6 ) ;
#727 = ORGANIZATION ( 'UNSPECIFIED', 'UNSPECIFIED', '' ) ;
#728 = PERSON_AND_ORGANIZATION ( #946, #727 ) ;
#729 = PERSON_AND_ORGANIZATION ( #946, #727 ) ;
#730 = APPROVAL_PERSON_ORGANIZATION ( #729, #464, #214 ) ;
#731 = COORDINATED_UNIVERSAL_TIME_OFFSET ( 1, 0, .AHEAD. ) ;
#732 = LOCAL_TIME ( 11, 21, 29.00000000000000000, #731 ) ;
#733 = CALENDAR_DATE ( 2021, 14, 6 ) ;
#734 = DATE_AND_TIME ( #733, #732 ) ;
#735 = APPROVAL_DATE_TIME ( #734, #464 ) ;
#736 = PERSON_AND_ORGANIZATION ( #946, #727 ) ;
#737 = COORDINATED_UNIVERSAL_TIME_OFFSET ( 1, 0, .AHEAD. ) ;
#738 = LOCAL_TIME ( 11, 21, 29.00000000000000000, #737 ) ;
#739 = CALENDAR_DATE ( 2021, 14, 6 ) ;
#740 = DATE_AND_TIME ( #739, #738 ) ;
#741 = PERSON_AND_ORGANIZATION ( #946, #727 ) ;
#742 = APPROVAL_PERSON_ORGANIZATION ( #741, #469, #257 ) ;
#743 = COORDINATED_UNIVERSAL_TIME_OFFSET ( 1, 0, .AHEAD. ) ;
#744 = LOCAL_TIME ( 11, 21, 29.00000000000000000, #743 ) ;
#745 = CALENDAR_DATE ( 2021, 14, 6 ) ;
#746 = DATE_AND_TIME ( #745, #744 ) ;
#747 = APPROVAL_DATE_TIME ( #746, #469 ) ;
#748 = PERSON_AND_ORGANIZATION ( #946, #727 ) ;
#749 = PERSON_AND_ORGANIZATION ( #946, #727 ) ;
#750 = PERSON_AND_ORGANIZATION ( #946, #727 ) ;
#751 = COORDINATED_UNIVERSAL_TIME_OFFSET ( 1, 0, .AHEAD. ) ;
#752 = LOCAL_TIME ( 11, 21, 29.00000000000000000, #751 ) ;
#753 = CALENDAR_DATE ( 2021, 14, 6 ) ;
#754 = DATE_AND_TIME ( #753, #752 ) ;
#755 = PERSON_AND_ORGANIZATION ( #946, #727 ) ;
#756 = APPROVAL_PERSON_ORGANIZATION ( #755, #476, #20 ) ;
#757 = COORDINATED_UNIVERSAL_TIME_OFFSET ( 1, 0, .AHEAD. ) ;
#758 = LOCAL_TIME ( 11, 21, 29.00000000000000000, #757 ) ;
#759 = CALENDAR_DATE ( 2021, 14, 6 ) ;
#760 = DATE_AND_TIME ( #759, #758 ) ;
#761 = APPROVAL_DATE_TIME ( #760, #476 ) ;
#762 = CIRCLE ( 'NONE', #425, 0.5000000000000004400 ) ;
#763 = CIRCLE ( 'NONE', #428, 0.5000000000000004400 ) ;
#764 = CIRCLE ( 'NONE', #426, 0.8999999999999998000 ) ;
#765 = LINE ( 'NONE', #43, #775 ) ;
#766 = CIRCLE ( 'NONE', #427, 0.5000000000000004400 ) ;
#767 = CIRCLE ( 'NONE', #429, 0.5000000000000000000 ) ;
#768 = CIRCLE ( 'NONE', #430, 0.5000000000000000000 ) ;
#769 = LINE ( 'NONE', #318, #771 ) ;
#770 = LINE ( 'NONE', #22, #773 ) ;
#771 = VECTOR ( 'NONE', #25, 1000.000000000000000 ) ;
#772 = LINE ( 'NONE', #199, #779 ) ;
#773 = VECTOR ( 'NONE', #159, 1000.000000000000000 ) ;
#774 = LINE ( 'NONE', #81, #777 ) ;
#775 = VECTOR ( 'NONE', #313, 1000.000000000000000 ) ;
#776 = LINE ( 'NONE', #160, #781 ) ;
#777 = VECTOR ( 'NONE', #198, 1000.000000000000000 ) ;
#778 = LINE ( 'NONE', #296, #791 ) ;
#779 = VECTOR ( 'NONE', #174, 1000.000000000000000 ) ;
#780 = LINE ( 'NONE', #132, #783 ) ;
#781 = VECTOR ( 'NONE', #45, 1000.000000000000000 ) ;
#782 = CIRCLE ( 'NONE', #431, 0.8999999999999998000 ) ;
#783 = VECTOR ( 'NONE', #166, 1000.000000000000000 ) ;
#784 = LINE ( 'NONE', #213, #786 ) ;
#785 = CIRCLE ( 'NONE', #432, 0.8999999999999998000 ) ;
#786 = VECTOR ( 'NONE', #321, 1000.000000000000000 ) ;
#787 = LINE ( 'NONE', #97, #789 ) ;
#788 = LINE ( 'NONE', #325, #799 ) ;
#789 = VECTOR ( 'NONE', #155, 1000.000000000000000 ) ;
#790 = LINE ( 'NONE', #46, #793 ) ;
#791 = VECTOR ( 'NONE', #310, 1000.000000000000000 ) ;
#792 = LINE ( 'NONE', #135, #795 ) ;
#793 = VECTOR ( 'NONE', #264, 1000.000000000000000 ) ;
#794 = LINE ( 'NONE', #31, #797 ) ;
#795 = VECTOR ( 'NONE', #266, 1000.000000000000000 ) ;
#796 = LINE ( 'NONE', #304, #805 ) ;
#797 = VECTOR ( 'NONE', #42, 1000.000000000000000 ) ;
#798 = LINE ( 'NONE', #29, #801 ) ;
#799 = VECTOR ( 'NONE', #60, 1000.000000000000000 ) ;
#800 = LINE ( 'NONE', #148, #803 ) ;
#801 = VECTOR ( 'NONE', #131, 1000.000000000000000 ) ;
#802 = LINE ( 'NONE', #105, #809 ) ;
#803 = VECTOR ( 'NONE', #254, 1000.000000000000000 ) ;
#804 = LINE ( 'NONE', #240, #807 ) ;
#805 = VECTOR ( 'NONE', #50, 1000.000000000000000 ) ;
#806 = CYLINDRICAL_SURFACE ( 'NONE', #434, 0.8999999999999998000 ) ;
#807 = VECTOR ( 'NONE', #287, 1000.000000000000000 ) ;
#808 = LINE ( 'NONE', #286, #811 ) ;
#809 = VECTOR ( 'NONE', #17, 1000.000000000000000 ) ;
#810 = LINE ( 'NONE', #150, #813 ) ;
#811 = VECTOR ( 'NONE', #141, 1000.000000000000000 ) ;
#812 = LINE ( 'NONE', #162, #815 ) ;
#813 = VECTOR ( 'NONE', #77, 1000.000000000000000 ) ;
#814 = FACE_OUTER_BOUND ( 'NONE', #599, .T. ) ;
#815 = VECTOR ( 'NONE', #130, 1000.000000000000000 ) ;
#816 = CYLINDRICAL_SURFACE ( 'NONE', #433, 0.5000000000000004400 ) ;
#817 = FACE_OUTER_BOUND ( 'NONE', #583, .T. ) ;
#818 = FACE_OUTER_BOUND ( 'NONE', #601, .T. ) ;
#819 = FACE_OUTER_BOUND ( 'NONE', #587, .T. ) ;
#820 = FACE_OUTER_BOUND ( 'NONE', #605, .T. ) ;
#821 = FACE_OUTER_BOUND ( 'NONE', #608, .T. ) ;
#822 = FACE_OUTER_BOUND ( 'NONE', #593, .T. ) ;
#823 = FACE_OUTER_BOUND ( 'NONE', #592, .T. ) ;
#824 = FACE_OUTER_BOUND ( 'NONE', #602, .T. ) ;
#825 = FACE_OUTER_BOUND ( 'NONE', #604, .T. ) ;
#826 = FACE_OUTER_BOUND ( 'NONE', #591, .T. ) ;
#827 = FACE_OUTER_BOUND ( 'NONE', #586, .T. ) ;
#828 = FACE_OUTER_BOUND ( 'NONE', #580, .T. ) ;
#829 = FACE_OUTER_BOUND ( 'NONE', #588, .T. ) ;
#830 = FACE_OUTER_BOUND ( 'NONE', #589, .T. ) ;
#831 = FACE_OUTER_BOUND ( 'NONE', #606, .T. ) ;
#832 = CYLINDRICAL_SURFACE ( 'NONE', #444, 0.5000000000000000000 ) ;
#833 = FACE_OUTER_BOUND ( 'NONE', #598, .T. ) ;
#834 = LINE ( 'NONE', #112, #835 ) ;
#835 = VECTOR ( 'NONE', #114, 1000.000000000000000 ) ;
#836 = LINE ( 'NONE', #116, #840 ) ;
#837 = LINE ( 'NONE', #277, #838 ) ;
#838 = VECTOR ( 'NONE', #115, 1000.000000000000000 ) ;
#839 = LINE ( 'NONE', #113, #849 ) ;
#840 = VECTOR ( 'NONE', #118, 1000.000000000000000 ) ;
#841 = LINE ( 'NONE', #120, #845 ) ;
#842 = LINE ( 'NONE', #332, #843 ) ;
#843 = VECTOR ( 'NONE', #119, 1000.000000000000000 ) ;
#844 = LINE ( 'NONE', #90, #847 ) ;
#845 = VECTOR ( 'NONE', #71, 1000.000000000000000 ) ;
#846 = LINE ( 'NONE', #117, #855 ) ;
#847 = VECTOR ( 'NONE', #94, 1000.000000000000000 ) ;
#848 = LINE ( 'NONE', #95, #851 ) ;
#849 = VECTOR ( 'NONE', #96, 1000.000000000000000 ) ;
#850 = LINE ( 'NONE', #283, #853 ) ;
#851 = VECTOR ( 'NONE', #284, 1000.000000000000000 ) ;
#852 = LINE ( 'NONE', #91, #861 ) ;
#853 = VECTOR ( 'NONE', #281, 1000.000000000000000 ) ;
#854 = LINE ( 'NONE', #183, #857 ) ;
#855 = VECTOR ( 'NONE', #195, 1000.000000000000000 ) ;
#856 = LINE ( 'NONE', #180, #859 ) ;
#857 = VECTOR ( 'NONE', #182, 1000.000000000000000 ) ;
#858 = LINE ( 'NONE', #282, #875 ) ;
#859 = VECTOR ( 'NONE', #179, 1000.000000000000000 ) ;
#860 = LINE ( 'NONE', #176, #863 ) ;
#861 = VECTOR ( 'NONE', #178, 1000.000000000000000 ) ;
#862 = LINE ( 'NONE', #175, #865 ) ;
#863 = VECTOR ( 'NONE', #303, 1000.000000000000200 ) ;
#864 = LINE ( 'NONE', #197, #867 ) ;
#865 = VECTOR ( 'NONE', #190, 1000.000000000000100 ) ;
#866 = LINE ( 'NONE', #291, #869 ) ;
#867 = VECTOR ( 'NONE', #279, 1000.000000000000000 ) ;
#868 = LINE ( 'NONE', #184, #871 ) ;
#869 = VECTOR ( 'NONE', #335, 1000.000000000000000 ) ;
#870 = LINE ( 'NONE', #280, #873 ) ;
#871 = VECTOR ( 'NONE', #111, 1000.000000000000000 ) ;
#872 = LINE ( 'NONE', #181, #881 ) ;
#873 = VECTOR ( 'NONE', #334, 1000.000000000000100 ) ;
#874 = LINE ( 'NONE', #336, #877 ) ;
#875 = VECTOR ( 'NONE', #337, 1000.000000000000000 ) ;
#876 = LINE ( 'NONE', #343, #879 ) ;
#877 = VECTOR ( 'NONE', #344, 1000.000000000000000 ) ;
#878 = LINE ( 'NONE', #193, #885 ) ;
#879 = VECTOR ( 'NONE', #151, 1000.000000000000000 ) ;
#880 = LINE ( 'NONE', #103, #883 ) ;
#881 = VECTOR ( 'NONE', #30, 1000.000000000000000 ) ;
#882 = LINE ( 'NONE', #338, #891 ) ;
#883 = VECTOR ( 'NONE', #196, 1000.000000000000000 ) ;
#884 = LINE ( 'NONE', #33, #887 ) ;
#885 = VECTOR ( 'NONE', #163, 1000.000000000000000 ) ;
#886 = LINE ( 'NONE', #315, #889 ) ;
#887 = VECTOR ( 'NONE', #40, 1000.000000000000000 ) ;
#888 = LINE ( 'NONE', #147, #897 ) ;
#889 = VECTOR ( 'NONE', #54, 1000.000000000000000 ) ;
#890 = LINE ( 'NONE', #57, #893 ) ;
#891 = VECTOR ( 'NONE', #27, 1000.000000000000000 ) ;
#892 = LINE ( 'NONE', #62, #895 ) ;
#893 = VECTOR ( 'NONE', #61, 1000.000000000000000 ) ;
#894 = CIRCLE ( 'NONE', #422, 0.5000000000000004400 ) ;
#895 = VECTOR ( 'NONE', #63, 1000.000000000000000 ) ;
#896 = LINE ( 'NONE', #65, #899 ) ;
#897 = VECTOR ( 'NONE', #64, 1000.000000000000000 ) ;
#898 = LINE ( 'NONE', #67, #901 ) ;
#899 = VECTOR ( 'NONE', #66, 1000.000000000000000 ) ;
#900 = CIRCLE ( 'NONE', #421, 0.8999999999999998000 ) ;
#901 = VECTOR ( 'NONE', #69, 1000.000000000000000 ) ;
#902 = FACE_OUTER_BOUND ( 'NONE', #585, .T. ) ;
#903 = LINE ( 'NONE', #185, #905 ) ;
#904 = FACE_BOUND ( 'NONE', #596, .T. ) ;
#905 = VECTOR ( 'NONE', #70, 1000.000000000000000 ) ;
#906 = ADVANCED_FACE ( 'NONE', ( #819 ), #816, .T. ) ;
#907 = ADVANCED_FACE ( 'NONE', ( #821 ), #806, .F. ) ;
#908 = ADVANCED_FACE ( 'NONE', ( #820 ), #206, .F. ) ;
#909 = ADVANCED_FACE ( 'NONE', ( #823 ), #220, .F. ) ;
#910 = ADVANCED_FACE ( 'NONE', ( #822 ), #263, .F. ) ;
#911 = ADVANCED_FACE ( 'NONE', ( #817 ), #58, .F. ) ;
#912 = ADVANCED_FACE ( 'NONE', ( #818 ), #88, .F. ) ;
#913 = ADVANCED_FACE ( 'NONE', ( #824 ), #169, .F. ) ;
#914 = ADVANCED_FACE ( 'NONE', ( #825 ), #230, .F. ) ;
#915 = ADVANCED_FACE ( 'NONE', ( #826 ), #306, .F. ) ;
#916 = ADVANCED_FACE ( 'NONE', ( #827 ), #250, .F. ) ;
#917 = ADVANCED_FACE ( 'NONE', ( #828 ), #832, .T. ) ;
#918 = ADVANCED_FACE ( 'NONE', ( #830 ), #300, .F. ) ;
#919 = ADVANCED_FACE ( 'NONE', ( #814 ), #215, .T. ) ;
#920 = ADVANCED_FACE ( 'NONE', ( #829 ), #713, .F. ) ;
#921 = ADVANCED_FACE ( 'NONE', ( #902 ), #715, .T. ) ;
#922 = ADVANCED_FACE ( 'NONE', ( #833 ), #241, .F. ) ;
#923 = ADVANCED_FACE ( 'NONE', ( #831 ), #271, .F. ) ;
#924 = ADVANCED_FACE ( 'NONE', ( #904, #717 ), #78, .F. ) ;
#925 = ADVANCED_FACE ( 'NONE', ( #716 ), #226, .F. ) ;
#926 = ADVANCED_FACE ( 'NONE', ( #714 ), #721, .T. ) ;
#927 = ADVANCED_FACE ( 'NONE', ( #719, #722 ), #221, .T. ) ;
#928 = ADVANCED_FACE ( 'NONE', ( #718 ), #290, .F. ) ;
#929 = ADVANCED_FACE ( 'NONE', ( #720 ), #51, .F. ) ;
#930 = ADVANCED_FACE ( 'NONE', ( #723 ), #106, .F. ) ;
#931 = ADVANCED_FACE ( 'NONE', ( #724 ), #122, .F. ) ;
#932 = ADVANCED_FACE ( 'NONE', ( #725 ), #194, .F. ) ;
#933 = VERTEX_POINT ( 'NONE', #10 ) ;
#934 = VERTEX_POINT ( 'NONE', #125 ) ;
#935 = VERTEX_POINT ( 'NONE', #126 ) ;
#936 = VERTEX_POINT ( 'NONE', #18 ) ;
#937 = VERTEX_POINT ( 'NONE', #7 ) ;
#938 = VERTEX_POINT ( 'NONE', #158 ) ;
#939 = VERTEX_POINT ( 'NONE', #121 ) ;
#940 = VERTEX_POINT ( 'NONE', #49 ) ;
#941 = VERTEX_POINT ( 'NONE', #23 ) ;
#942 = VERTEX_POINT ( 'NONE', #14 ) ;
#943 = VERTEX_POINT ( 'NONE', #248 ) ;
#944 = VERTEX_POINT ( 'NONE', #28 ) ;
#945 = PRODUCT ( 'COSSE', 'COSSE', '', ( #137 ) ) ;
#946 = PERSON ( 'UNSPECIFIED', 'UNSPECIFIED', 'UNSPECIFIED', ('UNSPECIFIED'), ('UNSPECIFIED'), ('UNSPECIFIED') ) ;
ENDSEC;
END-ISO-10303-21;
